SplineFontDB: 3.2
FontName: CatsPaw-Thin
FullName: CatsPaw Thin
FamilyName: CatsPaw
Weight: Thin
Copyright: 
Version: 001.005
ItalicAngle: 0
UnderlinePosition: -102
UnderlineWidth: 51
Ascent: 819
Descent: 205
InvalidEm: 0
sfntRevision: 0x00010000
LayerCount: 2
Layer: 0 1 "Back" 1
Layer: 1 1 "Fore" 0
XUID: [1021 519 -785824813 11249]
StyleMap: 0x0040
FSType: 0
OS2Version: 4
OS2_WeightWidthSlopeOnly: 0
OS2_UseTypoMetrics: 0
CreationTime: 1650111813
ModificationTime: 1650448002
PfmFamily: 17
TTFWeight: 400
TTFWidth: 5
LineGap: 92
VLineGap: 0
Panose: 2 0 5 3 0 0 0 0 0 0
OS2TypoAscent: 819
OS2TypoAOffset: 0
OS2TypoDescent: -205
OS2TypoDOffset: 0
OS2TypoLinegap: 92
OS2WinAscent: 958
OS2WinAOffset: 0
OS2WinDescent: 460
OS2WinDOffset: 0
HheadAscent: 958
HheadAOffset: 0
HheadDescent: -460
HheadDOffset: 0
OS2SubXSize: 666
OS2SubYSize: 717
OS2SubXOff: 0
OS2SubYOff: 143
OS2SupXSize: 666
OS2SupYSize: 717
OS2SupXOff: 0
OS2SupYOff: 492
OS2StrikeYSize: 50
OS2StrikeYPos: 264
OS2CapHeight: 823
OS2XHeight: 527
OS2Vendor: 'CLGR'
OS2CodePages: 00000004.00000000
OS2UnicodeRanges: 00000203.00000000.00000000.00000000
Lookup: 258 0 0 "Pairwise Positioning (kerning) in Cyrillic lookup 0" { "Cyrillic1" [153,15,0] "Pairwise Positioning (kerning) in Cyrillic lookup 0-1" [153,15,0] } ['kern' ('DFLT' <'dflt' > 'cyrl' <'dflt' > ) ]
MarkAttachClasses: 1
DEI: 91125
KernClass2: 1 1 "Pairwise Positioning (kerning) in Cyrillic lookup 0-1"
 0 {}
KernClass2: 1+ 2 "Cyrillic1"
 7 uni0431
 7 uni0440
 0 {} -204 {}
TtTable: prep
PUSHW_1
 511
SCANCTRL
PUSHB_1
 4
SCANTYPE
EndTTInstrs
ShortTable: cvt  2
  33
  633
EndShort
ShortTable: maxp 16
  1
  0
  72
  174
  4
  0
  0
  2
  0
  1
  1
  0
  64
  0
  0
  0
EndShort
LangName: 1033 "" "" "" "" "" "Version 001.005" "" "" "" "" "Created with Calligraphr.com" "" "" "" "" "" "Catspaw" "Regular"
LangName: 1033 "" "" "" "" "" "Version 001.005" "" "" "" "" "Created with Calligraphr.com" "" "" "" "" "" "Catspaw" "Regular"

StartChar: u10000
Encoding: 256 65536 0
Width: 341
Flags: W
LayerCount: 2
Fore
SplineSet
35 0 m 1,0,-1
 35 682 l 1,1,-1
 306 682 l 1,2,-1
 306 0 l 1,3,-1
 35 0 l 1,0,-1
69 34 m 1,4,-1
 272 34 l 1,5,-1
 272 648 l 1,6,-1
 69 648 l 1,7,-1
 69 34 l 1,4,-1
EndSplineSet
Validated: 1
EndChar

StartChar: uni0401
Encoding: 161 1025 6
Width: 578
Flags: W
LayerCount: 2
Fore
SplineSet
312 894 m 0
 310 896 310 896 310 916 c 0
 310 933 310 933 314 939 c 0
 318 945 318 945 330 947 c 0
 339 949 339 949 347 942 c 0
 355 935 355 935 355 924 c 0
 355 912 355 912 345.5 902 c 0
 336 892 336 892 325 892 c 0
 314 892 314 892 312 894 c 0
184 892 m 0
 166 900 166 900 166 927 c 0
 166 936 166 936 172 943 c 0
 178 950 178 950 185 948 c 0
 191 946 191 946 195 946 c 0
 199 946 199 946 207.5 933.5 c 0
 216 921 216 921 216 915 c 0
 216 897 216 897 202 891 c 0
 195 888 195 888 194.5 888 c 0
 194 888 194 888 184 892 c 0
EndSplineSet
Refer: 73 -1 N 1 0 0 1 -4.99972 0 2
Validated: 32769
EndChar

StartChar: uni0410
Encoding: 176 1040 7
Width: 757
Flags: W
LayerCount: 2
Fore
SplineSet
615.353515625 230.163085938 m 1,0,1
 615.759765625 233 615.759765625 233 618.534179688 314.389648438 c 0,2,3
 622.759765625 424 622.759765625 424 629.637695312 489.772460938 c 0,4,5
 638.759765625 567 638.759765625 567 648.62109375 643.708984375 c 2,6,-1
 649.625 686.844726562 l 1,7,-1
 640.096679688 647.409179688 l 2,8,9
 604.759765625 574 604.759765625 574 578.618164062 495.918945312 c 0,10,11
 569.759765625 470 569.759765625 470 560.560546875 449.985351562 c 0,12,13
 544.759765625 414 544.759765625 414 543.020507812 407.001953125 c 1,14,15
 571.759765625 376 571.759765625 376 586.98828125 341.376953125 c 0,16,17
 605.759765625 299 605.759765625 299 612.594726562 252.109375 c 1,18,-1
 615.353515625 230.163085938 l 1,0,1
423.237304688 183.19921875 m 1,19,-1
 449.521484375 182.932617188 l 2,20,21
 518.759765625 182 518.759765625 182 601.549804688 196.513671875 c 1,22,-1
 599.0625 210.907226562 l 1,23,24
 581.759765625 308 581.759765625 308 569.211914062 328.928710938 c 0,25,26
 534.602539062 387.588867188 534.602539062 387.588867188 531.618164062 380.295898438 c 0,27,28
 526.759765625 367 526.759765625 367 521.879882812 358.913085938 c 0,29,30
 498.759765625 315 498.759765625 315 494.482421875 306.920898438 c 0,31,32
 462.759765625 245 462.759765625 245 462.475585938 244.259765625 c 0,33,34
 441.759765625 213 441.759765625 213 442.661132812 212.192382812 c 0,35,36
 442.759765625 212 442.759765625 212 433.622070312 198.7421875 c 2,37,-1
 423.237304688 183.19921875 l 1,19,-1
381.141601562 184.305664062 m 1,38,39
 403.759765625 210 403.759765625 210 442.579101562 270.908203125 c 0,40,41
 461.759765625 301 461.759765625 301 501.29296875 380.732421875 c 1,42,-1
 513.209960938 406.419921875 l 1,43,-1
 499.936523438 418.883789062 l 1,44,45
 429.759765625 481 429.759765625 481 375.422851562 480.6875 c 0,46,47
 312.759765625 481 312.759765625 481 252.530273438 426.887695312 c 0,48,49
 206.759765625 385 206.759765625 385 194.38671875 310.870117188 c 0,50,51
 193.759765625 307 193.759765625 307 194.162109375 294.190429688 c 0,52,53
 193.759765625 281 193.759765625 281 204.759765625 257 c 128,-1,54
 215.759765625 233 215.759765625 233 237.172851562 220.59375 c 0,55,56
 291.759765625 190 291.759765625 190 381.141601562 184.305664062 c 1,38,39
35.0068359375 82.162109375 m 0,57,58
 34.759765625 98 34.759765625 98 44.072265625 97.3681640625 c 0,59,60
 48.759765625 97 48.759765625 97 50.0927734375 95.162109375 c 0,61,62
 51.759765625 93 51.759765625 93 53.1689453125 84.8408203125 c 0,63,64
 62.759765625 51 62.759765625 51 84.556640625 33.8330078125 c 0,65,66
 105.759765625 16 105.759765625 16 133.962890625 16.2353515625 c 0,67,68
 161.759765625 16 161.759765625 16 199.313476562 31.703125 c 0,69,70
 288.759765625 69 288.759765625 69 361.28515625 159.885742188 c 1,71,72
 352.759765625 161 352.759765625 161 338.61328125 163.409179688 c 0,73,74
 279.759765625 172 279.759765625 172 232.38671875 195.711914062 c 0,75,76
 163.759765625 231 163.759765625 231 162.1796875 304.252929688 c 0,77,78
 161.759765625 323 161.759765625 323 165.1953125 336.123046875 c 0,79,80
 179.759765625 392 179.759765625 392 217.92578125 430.0859375 c 0,81,82
 252.759765625 465 252.759765625 465 295.799804688 485.612304688 c 0,83,84
 330.759765625 502 330.759765625 502 387.75 502.959960938 c 0,85,86
 395.759765625 503 395.759765625 503 404.715820312 502.513671875 c 0,87,88
 450.6484375 501.203125 450.6484375 501.203125 511.037109375 441.661132812 c 0,89,90
 521.759765625 431 521.759765625 431 525.987304688 432.383789062 c 0,91,92
 528.759765625 434 528.759765625 434 537.158203125 456.040039062 c 0,93,94
 620.759765625 654 620.759765625 654 631.96875 697.270507812 c 0,95,96
 637.759765625 718 637.759765625 718 644.147460938 748.590820312 c 0,97,98
 650.759765625 779 650.759765625 779 653.563476562 793.131835938 c 0,99,100
 656.759765625 807 656.759765625 807 656.921875 815.68359375 c 0,101,102
 656.759765625 824 656.759765625 824 670.607421875 828.188476562 c 0,103,104
 683.759765625 832 683.759765625 832 688.729492188 828.713867188 c 0,105,106
 691.759765625 826 691.759765625 826 693.26171875 810.966796875 c 0,107,108
 693.759765625 804 693.759765625 804 689.60546875 768.864257812 c 0,109,110
 685.759765625 731 685.759765625 731 678.6796875 617.022460938 c 1,111,112
 651.759765625 265 651.759765625 265 650.850585938 226.018554688 c 0,113,114
 650.759765625 222 650.759765625 222 650.794921875 214.381835938 c 0,115,116
 650.759765625 207 650.759765625 207 651.140625 204.795898438 c 1,117,118
 652.759765625 205 652.759765625 205 660.604492188 207.108398438 c 0,119,120
 667.759765625 209 667.759765625 209 676.38671875 210.969726562 c 0,121,122
 684.759765625 213 684.759765625 213 702.198242188 221.134765625 c 0,123,124
 719.759765625 230 719.759765625 230 721.469726562 228.189453125 c 0,125,126
 723.759765625 227 723.759765625 227 720.706054688 219.301757812 c 0,127,128
 717.759765625 212 717.759765625 212 704.08203125 202.587890625 c 0,129,130
 687.633789062 192.295898438 687.633789062 192.295898438 672.567382812 187.956054688 c 2,131,-1
 651.6953125 181.944335938 l 1,132,-1
 651.979492188 148.514648438 l 1,133,134
 650.759765625 120 650.759765625 120 661.129882812 69.02734375 c 0,135,136
 670.759765625 18 670.759765625 18 671.0859375 9.2001953125 c 0,137,138
 670.759765625 -5 670.759765625 -5 654.680664062 -4.0166015625 c 128,-1,139
 638.759765625 -3 638.759765625 -3 628.485351562 7.634765625 c 1,140,141
 622.759765625 30 622.759765625 30 618.580078125 94.0107421875 c 0,142,143
 614.759765625 158 614.759765625 158 608.7578125 177.704101562 c 1,144,145
 512.759765625 162 512.759765625 162 457.920898438 161.477539062 c 1,146,-1
 405.41796875 159.534179688 l 1,147,-1
 395.3203125 147.770507812 l 1,148,149
 295.759765625 33 295.759765625 33 208.458007812 0.611328125 c 0,150,151
 190.759765625 -6 190.759765625 -6 177.83984375 -7.4296875 c 128,-1,152
 164.759765625 -9 164.759765625 -9 127.735351562 -9.1591796875 c 0,153,154
 90.759765625 -9 90.759765625 -9 62.9443359375 17.625 c 0,155,156
 34.759765625 44 34.759765625 44 35.0068359375 82.162109375 c 0,57,58
EndSplineSet
Validated: 33
EndChar

StartChar: uni0411
Encoding: 177 1041 8
Width: 767
Flags: W
LayerCount: 2
Fore
SplineSet
387.766601562 -10.755859375 m 0,0,1
 386.8203125 -9 386.8203125 -9 366.291992188 -6.5830078125 c 128,-1,2
 345.8203125 -4 345.8203125 -4 311.881835938 13.02734375 c 0,3,4
 261.8203125 38 261.8203125 38 250.390625 63.205078125 c 0,5,6
 242.8203125 80 242.8203125 80 248.603515625 80.1669921875 c 0,7,8
 249.8203125 80 249.8203125 80 251.317382812 78.7431640625 c 0,9,10
 281.8203125 52 281.8203125 52 325.969726562 30.7548828125 c 0,11,12
 354.8203125 17 354.8203125 17 375.442382812 13.3447265625 c 0,13,14
 396.8203125 10 396.8203125 10 439.930664062 10.8837890625 c 0,15,16
 482.8203125 12 482.8203125 12 494.924804688 18.3818359375 c 0,17,18
 518.8203125 31 518.8203125 31 544.479492188 54.9208984375 c 0,19,20
 569.8203125 79 569.8203125 79 582.369140625 101.404296875 c 0,21,22
 603.8203125 139 603.8203125 139 611.893554688 176.552734375 c 0,23,24
 622.8203125 226 622.8203125 226 625.547851562 264.46875 c 0,25,26
 627.8203125 307 627.8203125 307 611.015625 346.889648438 c 0,27,28
 599.8203125 373 599.8203125 373 574.15625 405.985351562 c 0,29,30
 548.8203125 439 548.8203125 439 532.278320312 448.536132812 c 0,31,32
 520.8203125 455 520.8203125 455 494.05078125 464.916015625 c 0,33,34
 473.8203125 472 473.8203125 472 465.060546875 473.372070312 c 0,35,36
 455.8203125 475 455.8203125 475 424.036132812 474.587890625 c 0,37,38
 350.8203125 474 350.8203125 474 310.20703125 456.059570312 c 0,39,40
 289.8203125 447 289.8203125 447 277.111328125 438.91015625 c 0,41,42
 264.328125 430.045898438 264.328125 430.045898438 246.4140625 412.47265625 c 2,43,-1
 232.049804688 398.381835938 l 1,44,45
 230.8203125 379 230.8203125 379 227.640625 316.91015625 c 0,46,47
 225.8203125 278 225.8203125 278 210.33984375 205.400390625 c 0,48,49
 194.8203125 131 194.8203125 131 182.9609375 107.379882812 c 0,50,51
 175.8203125 93 175.8203125 93 176.197265625 89.8154296875 c 0,52,53
 175.8203125 86 175.8203125 86 147.448242188 30.2646484375 c 0,54,55
 123.8203125 -15 123.8203125 -15 67.0224609375 2.5087890625 c 0,56,57
 58.8203125 5 58.8203125 5 48.935546875 16.2451171875 c 0,58,59
 38.8203125 28 38.8203125 28 36.2685546875 36.978515625 c 0,60,61
 33.8203125 45 33.8203125 45 36.0986328125 78.5693359375 c 0,62,63
 37.8203125 112 37.8203125 112 41.7216796875 127.428710938 c 0,64,65
 53.8203125 179 53.8203125 179 80.3154296875 229.522460938 c 0,66,67
 119.8203125 305 119.8203125 305 137.014648438 328.916992188 c 0,68,69
 169.108398438 375.602539062 169.108398438 375.602539062 180.196289062 393.08984375 c 0,70,71
 190.8203125 410 190.8203125 410 207.135742188 426.298828125 c 0,72,73
 207.8203125 427 207.8203125 427 210.846679688 487.006835938 c 0,74,75
 212.8203125 524 212.8203125 524 220.655273438 603.795898438 c 0,76,77
 225.8203125 657 225.8203125 657 231.202148438 710.178710938 c 2,78,-1
 235.67578125 763.014648438 l 1,79,-1
 217.619140625 761.459960938 l 2,80,81
 200.8203125 760 200.8203125 760 161.973632812 745.75 c 0,82,83
 140.8203125 738 140.8203125 738 120.274414062 721.259765625 c 0,84,85
 106.8203125 710 106.8203125 710 97.8095703125 691.225585938 c 0,86,87
 88.8203125 673 88.8203125 673 95.955078125 668.379882812 c 0,88,89
 98.8203125 667 98.8203125 667 101.41796875 656.541015625 c 128,-1,90
 103.8203125 646 103.8203125 646 117.978515625 631.46484375 c 0,91,92
 134.8203125 614 134.8203125 614 123.943359375 607.854492188 c 0,93,94
 120.8203125 606 120.8203125 606 112.8203125 611.5 c 128,-1,95
 104.8203125 617 104.8203125 617 101.659179688 623.294921875 c 0,96,97
 97.8203125 630 97.8203125 630 87.099609375 646.013671875 c 0,98,99
 76.8203125 662 76.8203125 662 76.7958984375 679.278320312 c 0,100,101
 76.8203125 710 76.8203125 710 104.525390625 735.818359375 c 0,102,103
 113.8203125 744 113.8203125 744 137.732421875 757.838867188 c 0,104,105
 163.8203125 772 163.8203125 772 167.853515625 771.360351562 c 0,106,107
 170.8203125 771 170.8203125 771 185.086914062 775.3671875 c 0,108,109
 213.19140625 782.346679688 213.19140625 782.346679688 216.524414062 782.865234375 c 2,110,-1
 238.981445312 786.356445312 l 1,111,-1
 237.828125 802.293945312 l 2,112,113
 236.8203125 815 236.8203125 815 239.029296875 818.971679688 c 0,114,115
 240.8203125 823 240.8203125 823 250.943359375 824.720703125 c 0,116,117
 260.8203125 827 260.8203125 827 264.885742188 821.022460938 c 0,118,119
 269.138671875 814.512695312 269.138671875 814.512695312 267.421875 803.0625 c 2,120,-1
 265.551757812 790.591796875 l 1,121,-1
 287.014648438 790.739257812 l 2,122,123
 310.876953125 791.653320312 310.876953125 791.653320312 330.458007812 793.682617188 c 0,124,125
 352.8203125 796 352.8203125 796 414.891601562 797.423828125 c 0,126,127
 477.8203125 798 477.8203125 798 486.331054688 801.18359375 c 0,128,129
 495.8203125 804 495.8203125 804 540.653320312 805.70703125 c 0,130,131
 585.8203125 807 585.8203125 807 596.98046875 809.690429688 c 0,132,133
 609.8203125 812 609.8203125 812 651.630859375 812.275390625 c 0,134,135
 692.8203125 812 692.8203125 812 706.266601562 809.30859375 c 0,136,137
 721.8203125 806 721.8203125 806 727.944335938 799.727539062 c 0,138,139
 731.8203125 795 731.8203125 795 732.276367188 793.408203125 c 128,-1,140
 732.8203125 792 732.8203125 792 729.072265625 786.396484375 c 0,141,142
 725.8203125 781 725.8203125 781 722.252929688 780.393554688 c 0,143,144
 718.8203125 779 718.8203125 779 706.020507812 779.430664062 c 0,145,146
 687.8203125 780 687.8203125 780 678.036132812 778.205078125 c 0,147,148
 645.8203125 775 645.8203125 775 646.23828125 776.53125 c 0,149,150
 647.8203125 780 647.8203125 780 653.512695312 779.602539062 c 0,151,152
 659.8203125 780 659.8203125 780 670.145507812 783.178710938 c 0,153,154
 682.8203125 788 682.8203125 788 680.783203125 788.770507812 c 0,155,156
 677.8203125 790 677.8203125 790 661.823242188 790.046875 c 128,-1,157
 645.8203125 790 645.8203125 790 619.356445312 788.68359375 c 0,158,159
 593.8203125 787 593.8203125 787 574.999023438 785.374023438 c 0,160,161
 514.8203125 779 514.8203125 779 397.775390625 775.58203125 c 0,162,163
 339.8203125 774 339.8203125 774 320.859375 771.522460938 c 0,164,165
 288.8203125 769 288.8203125 769 288.193359375 768.612304688 c 2,166,-1
 265.125 768.612304688 l 1,167,-1
 262.8203125 738 l 2,168,169
 261.8203125 727 261.8203125 727 258.8203125 681 c 0,170,171
 257.8203125 661 257.8203125 661 250.4609375 590.033203125 c 0,172,173
 241.8203125 508 241.8203125 508 240.978515625 490.440429688 c 0,174,175
 239.8203125 465 239.8203125 465 238.23828125 449.380859375 c 1,176,177
 242.8203125 453 242.8203125 453 248.141601562 456.221679688 c 0,178,179
 264.8203125 467 264.8203125 467 288.131835938 478.440429688 c 0,180,181
 319.8203125 493 319.8203125 493 333.372070312 495.596679688 c 0,182,183
 342.8203125 497 342.8203125 497 357.274414062 501.365234375 c 0,184,185
 385.8203125 509 385.8203125 509 445.466796875 503.895507812 c 0,186,187
 511.8203125 498 511.8203125 498 545.258789062 474.893554688 c 0,188,189
 559.8203125 465 559.8203125 465 574.661132812 450.493164062 c 0,190,191
 600.8203125 426 600.8203125 426 603.59765625 422.649414062 c 0,192,193
 615.8203125 407 615.8203125 407 628.716796875 388.4453125 c 0,194,195
 633.8203125 381 633.8203125 381 640.600585938 370.2421875 c 0,196,197
 651.8203125 355 651.8203125 355 657.271484375 335.577148438 c 128,-1,198
 662.8203125 316 662.8203125 316 665.165039062 276.83203125 c 0,199,200
 667.8203125 242 667.8203125 242 663.575195312 219.13671875 c 0,201,202
 658.8203125 189 658.8203125 189 652.858398438 172.524414062 c 128,-1,203
 646.8203125 156 646.8203125 156 631.20703125 124.280273438 c 0,204,205
 616.8203125 97 616.8203125 97 609.724609375 85.4853515625 c 0,206,207
 601.8203125 74 601.8203125 74 585.311523438 56.234375 c 0,208,209
 559.8203125 29 559.8203125 29 549.286132812 23.771484375 c 0,210,211
 538.8203125 18 538.8203125 18 525.58984375 9.2958984375 c 0,212,213
 509.8203125 -2 509.8203125 -2 491.1015625 -6.1044921875 c 0,214,215
 472.8203125 -10 472.8203125 -10 434.4765625 -11.0830078125 c 0,216,217
 388.8203125 -12 388.8203125 -12 387.766601562 -10.755859375 c 0,0,1
128.8203125 46 m 1,218,219
 148.8203125 93 148.8203125 93 158.299804688 127.099609375 c 0,220,221
 162.8203125 144 162.8203125 144 165.209960938 149.079101562 c 0,222,223
 167.8203125 155 167.8203125 155 169.276367188 162.815429688 c 0,224,225
 170.8203125 171 170.8203125 171 175.1484375 188.916015625 c 0,226,227
 184.8203125 229 184.8203125 229 188.823242188 264.46875 c 0,228,229
 197.8203125 335 197.8203125 335 197.983398438 350.20703125 c 0,230,231
 197.8203125 356 197.8203125 356 188.600585938 345.912109375 c 0,232,233
 187.8203125 345 187.8203125 345 186.196289062 343.337890625 c 0,234,235
 175.8203125 329 175.8203125 329 166.364257812 318.629882812 c 0,236,237
 158.8203125 309 158.8203125 309 149.482421875 296.301757812 c 0,238,239
 140.8203125 286 140.8203125 286 127.868164062 258.625 c 0,240,241
 114.8203125 231 114.8203125 231 97.8984375 195.784179688 c 0,242,243
 80.8203125 160 80.8203125 160 75.8154296875 143.583984375 c 128,-1,244
 70.8203125 127 70.8203125 127 64.3916015625 105.12109375 c 0,245,246
 50.8203125 58 50.8203125 58 66.0078125 35 c 0,247,248
 77.80859375 17.537109375 77.80859375 17.537109375 100.953125 18.8623046875 c 0,249,250
 118.8203125 20 118.8203125 20 128.8203125 46 c 1,218,219
EndSplineSet
Validated: 33
EndChar

StartChar: uni0412
Encoding: 178 1042 9
Width: 701
Flags: W
LayerCount: 2
Fore
SplineSet
429.287109375 -15.8037109375 m 0,0,1
 383.51953125 -10.5615234375 383.51953125 -10.5615234375 355.666992188 -2.9150390625 c 128,-1,2
 327.815429688 4.73046875 327.815429688 4.73046875 296.548828125 20.6376953125 c 0,3,4
 272.45703125 32.89453125 272.45703125 32.89453125 258.245117188 51.3505859375 c 128,-1,5
 244.032226562 69.806640625 244.032226562 69.806640625 247.634765625 84.1572265625 c 0,6,7
 251.717773438 100.427734375 251.717773438 100.427734375 277.296875 71.955078125 c 0,8,9
 304.087890625 42.1318359375 304.087890625 42.1318359375 336.907226562 32.505859375 c 0,10,11
 351.686523438 28.169921875 351.686523438 28.169921875 355.482421875 25.0205078125 c 128,-1,12
 359.278320312 21.8701171875 359.278320312 21.8701171875 386.040039062 17.9267578125 c 0,13,14
 485.373046875 3.2900390625 485.373046875 3.2900390625 503.938476562 12.865234375 c 0,15,16
 511.716796875 16.8779296875 511.716796875 16.8779296875 519.2734375 18.412109375 c 128,-1,17
 526.829101562 19.9482421875 526.829101562 19.9482421875 526.829101562 23.22265625 c 128,-1,18
 526.829101562 26.498046875 526.829101562 26.498046875 545.786132812 44.8603515625 c 128,-1,19
 564.741210938 63.22265625 564.741210938 63.22265625 566.741210938 69.693359375 c 128,-1,20
 568.737304688 76.1611328125 568.737304688 76.1611328125 578.159179688 89.1005859375 c 128,-1,21
 587.580078125 102.037109375 587.580078125 102.037109375 598.805664062 124.81640625 c 128,-1,22
 610.032226562 147.596679688 610.032226562 147.596679688 613.673828125 177.81640625 c 0,23,24
 620.267578125 232.545898438 620.267578125 232.545898438 613.173828125 287.068359375 c 0,25,26
 609.091796875 318.443359375 609.091796875 318.443359375 604.21875 332.734375 c 128,-1,27
 599.346679688 347.025390625 599.346679688 347.025390625 585.3203125 368.759765625 c 0,28,29
 556.951171875 412.717773438 556.951171875 412.717773438 545.715820312 412.717773438 c 0,30,31
 540.987304688 412.717773438 540.987304688 412.717773438 528.861328125 421.973632812 c 0,32,33
 514.401367188 433.009765625 514.401367188 433.009765625 471.875976562 442.858398438 c 0,34,35
 458.318359375 445.998046875 458.318359375 445.998046875 401.579101562 446.97265625 c 128,-1,36
 344.83984375 447.948242188 344.83984375 447.948242188 331.849609375 445.265625 c 0,37,38
 315.803710938 441.951171875 315.803710938 441.951171875 308.494140625 446.740234375 c 0,39,40
 287.3671875 460.581054688 287.3671875 460.581054688 334.995117188 473.974609375 c 0,41,42
 338.041015625 474.831054688 338.041015625 474.831054688 341.362304688 475.6796875 c 0,43,44
 363.33203125 481.294921875 363.33203125 481.294921875 387.380859375 483.973632812 c 128,-1,45
 411.418945312 486.6484375 411.418945312 486.6484375 429.969726562 497.690429688 c 0,46,47
 453.92578125 511.947265625 453.92578125 511.947265625 499.35546875 559.702148438 c 0,48,49
 516.28515625 577.500976562 516.28515625 577.500976562 523.00390625 613.116210938 c 0,50,51
 528.079101562 640.024414062 528.079101562 640.024414062 524.696289062 666.690429688 c 128,-1,52
 521.313476562 693.35546875 521.313476562 693.35546875 507.234375 737.412109375 c 0,53,54
 499.651367188 761.137695312 499.651367188 761.137695312 484.930664062 770.8984375 c 128,-1,55
 470.209960938 780.659179688 470.209960938 780.659179688 438.864257812 782.745117188 c 0,56,57
 421.780273438 783.8828125 421.780273438 783.8828125 415.51953125 782.673828125 c 128,-1,58
 409.258789062 781.46484375 409.258789062 781.46484375 392.455078125 773.784179688 c 2,59,-1
 372.024414062 762.405273438 l 1,60,61
 372.72265625 762.172851562 372.72265625 762.172851562 370.255859375 758.849609375 c 128,-1,62
 367.7890625 755.526367188 367.7890625 755.526367188 362.879882812 750.047851562 c 128,-1,63
 357.970703125 744.569335938 357.970703125 744.569335938 351.803710938 738.276367188 c 0,64,65
 328.999023438 715.0078125 328.999023438 715.0078125 314.783203125 690.9296875 c 128,-1,66
 300.568359375 666.853515625 300.568359375 666.853515625 295.731445312 661.35546875 c 0,67,68
 289.7109375 654.512695312 289.7109375 654.512695312 277.578125 631.540039062 c 128,-1,69
 265.446289062 608.568359375 265.446289062 608.568359375 260.899414062 595.404296875 c 0,70,71
 255.2109375 578.935546875 255.2109375 578.935546875 252.241210938 517.118164062 c 128,-1,72
 249.26953125 455.333007812 249.26953125 455.333007812 249.0625 416.838867188 c 0,73,74
 248.729492188 355.154296875 248.729492188 355.154296875 242.479492188 305.5703125 c 0,75,76
 240.912109375 293.126953125 240.912109375 293.126953125 236.63671875 255.008789062 c 128,-1,77
 232.349609375 216.809570312 232.349609375 216.809570312 230.153320312 212.424804688 c 128,-1,78
 227.953125 208.034179688 227.953125 208.034179688 223.776367188 187.432617188 c 128,-1,79
 219.595703125 166.82421875 219.595703125 166.82421875 211.29296875 146.221679688 c 128,-1,80
 202.986328125 125.612304688 202.986328125 125.612304688 193.02734375 94.5791015625 c 0,81,82
 174.288085938 36.1884765625 174.288085938 36.1884765625 153.469726562 11.7822265625 c 128,-1,83
 132.651367188 -12.6240234375 132.651367188 -12.6240234375 104.057617188 -9.7255859375 c 0,84,85
 70.0537109375 -6.279296875 70.0537109375 -6.279296875 43.9296875 21.318359375 c 0,86,87
 37.6953125 27.90234375 37.6953125 27.90234375 36.34765625 32.2060546875 c 128,-1,88
 35 36.509765625 35 36.509765625 35 49.82421875 c 0,89,90
 35 76.224609375 35 76.224609375 40.2666015625 104.58984375 c 128,-1,91
 45.5341796875 132.955078125 45.5341796875 132.955078125 52.6455078125 144.848632812 c 0,92,93
 55.927734375 150.3359375 55.927734375 150.3359375 61 164.080078125 c 128,-1,94
 66.0732421875 177.829101562 66.0732421875 177.829101562 72.0751953125 191.553710938 c 128,-1,95
 78.080078125 205.2890625 78.080078125 205.2890625 83.080078125 219.02734375 c 128,-1,96
 88.076171875 232.764648438 88.076171875 232.764648438 94.5107421875 242.331054688 c 128,-1,97
 100.943359375 251.897460938 100.943359375 251.897460938 100.943359375 254.22265625 c 128,-1,98
 100.943359375 256.546875 100.943359375 256.546875 110.327148438 276.25 c 0,99,100
 133.915039062 325.783203125 133.915039062 325.783203125 133.915039062 332.879882812 c 0,101,102
 133.915039062 335.629882812 133.915039062 335.629882812 140.784179688 350.64453125 c 128,-1,103
 147.653320312 365.659179688 147.653320312 365.659179688 147.653320312 367.857421875 c 128,-1,104
 147.653320312 370.055664062 147.653320312 370.055664062 154.201171875 383.831054688 c 0,105,106
 164.594726562 405.700195312 164.594726562 405.700195312 181.716796875 455.301757812 c 0,107,108
 206.573242188 527.313476562 206.573242188 527.313476562 211.512695312 533.028320312 c 0,109,110
 221.815429688 544.94921875 221.815429688 544.94921875 221.89453125 605.564453125 c 0,111,112
 221.951171875 647.631835938 221.951171875 647.631835938 224.793945312 666.850585938 c 0,113,114
 226.96484375 681.525390625 226.96484375 681.525390625 224.670898438 732.634765625 c 128,-1,115
 222.377929688 783.743164062 222.377929688 783.743164062 219.403320312 786.984375 c 0,116,117
 217.5703125 788.981445312 217.5703125 788.981445312 203.90625 781.982421875 c 128,-1,118
 190.2421875 774.983398438 190.2421875 774.983398438 169.227539062 775.872070312 c 128,-1,119
 148.2109375 776.76171875 148.2109375 776.76171875 142.909179688 781.561523438 c 0,120,121
 126.53125 796.37890625 126.53125 796.37890625 112.065429688 769.40625 c 0,122,123
 107.159179688 760.26171875 107.159179688 760.26171875 101.991210938 760.26171875 c 128,-1,124
 96.8212890625 760.26171875 96.8212890625 760.26171875 96.994140625 773.311523438 c 0,125,126
 97.1474609375 784.936523438 97.1474609375 784.936523438 103.538085938 792.909179688 c 128,-1,127
 109.928710938 800.880859375 109.928710938 800.880859375 126.184570312 809.727539062 c 0,128,129
 140.034179688 817.264648438 140.034179688 817.264648438 150.387695312 814.1640625 c 128,-1,130
 160.739257812 811.0625 160.739257812 811.0625 164.08984375 807.026367188 c 128,-1,131
 167.439453125 802.990234375 167.439453125 802.990234375 176.421875 801.305664062 c 0,132,133
 191.225585938 798.529296875 191.225585938 798.529296875 220.064453125 820.5390625 c 0,134,135
 232.854492188 830.302734375 232.854492188 830.302734375 241.772460938 830.997070312 c 0,136,137
 247.658203125 831.456054688 247.658203125 831.456054688 250.025390625 829.83203125 c 128,-1,138
 252.392578125 828.208007812 252.392578125 828.208007812 255.700195312 821.442382812 c 0,139,140
 259.2265625 814.225585938 259.2265625 814.225585938 259.497070312 803.249023438 c 128,-1,141
 259.768554688 792.272460938 259.768554688 792.272460938 257.53125 747.263671875 c 0,142,143
 252.318359375 633.811523438 252.318359375 633.811523438 258.765625 642.124023438 c 0,144,145
 261.333007812 647.620117188 261.333007812 647.620117188 273.184570312 666.19140625 c 128,-1,146
 285.036132812 684.763671875 285.036132812 684.763671875 285.036132812 687.147460938 c 128,-1,147
 285.036132812 689.53125 285.036132812 689.53125 289.53125 693.260742188 c 0,148,149
 295.234375 697.993164062 295.234375 697.993164062 311.138671875 722.78125 c 0,150,151
 336.728515625 762.666992188 336.728515625 762.666992188 363.669921875 780.526367188 c 128,-1,152
 390.611328125 798.385742188 390.611328125 798.385742188 429.796875 801.439453125 c 0,153,154
 526.946289062 809.009765625 526.946289062 809.009765625 558.578125 717.584960938 c 0,155,156
 574.065429688 672.819335938 574.065429688 672.819335938 562.875 616.383789062 c 0,157,158
 557.227539062 587.8984375 557.227539062 587.8984375 551.416015625 575.893554688 c 0,159,160
 538.150390625 548.494140625 538.150390625 548.494140625 513.877929688 520.171875 c 128,-1,161
 489.60546875 491.849609375 489.60546875 491.849609375 471.327148438 482.44140625 c 0,162,163
 459.0390625 476.1171875 459.0390625 476.1171875 466.416992188 474.2421875 c 0,164,165
 469.81640625 473.37890625 469.81640625 473.37890625 478.821289062 472.356445312 c 0,166,167
 496.278320312 470.374023438 496.278320312 470.374023438 526.172851562 459.688476562 c 128,-1,168
 556.06640625 449.00390625 556.06640625 449.00390625 566.801757812 440.909179688 c 0,169,170
 600.947265625 415.161132812 600.947265625 415.161132812 610.955078125 393.716796875 c 0,171,172
 618.110351562 378.37890625 618.110351562 378.37890625 626.974609375 364.638671875 c 0,173,174
 647.999023438 332.041992188 647.999023438 332.041992188 661.60546875 276.779296875 c 0,175,176
 666.364257812 257.44921875 666.364257812 257.44921875 666.04296875 241.655273438 c 128,-1,177
 665.720703125 225.861328125 665.720703125 225.861328125 659.814453125 188.806640625 c 0,178,179
 654.157226562 153.321289062 654.157226562 153.321289062 642.900390625 122.869140625 c 0,180,181
 624.869140625 74.095703125 624.869140625 74.095703125 594.591796875 40.9697265625 c 0,182,183
 552.065429688 -5.5556640625 552.065429688 -5.5556640625 530.122070312 -9.0576171875 c 0,184,185
 519.9609375 -10.6787109375 519.9609375 -10.6787109375 514.46484375 -13.8662109375 c 0,186,187
 509.4921875 -16.75 509.4921875 -16.75 479.48046875 -17.4326171875 c 128,-1,188
 449.46875 -18.115234375 449.46875 -18.115234375 429.287109375 -15.8037109375 c 0,0,1
125.916992188 24.49609375 m 0,189,190
 139.939453125 35.5712890625 139.939453125 35.5712890625 154.623046875 74.7900390625 c 0,191,192
 159.247070312 87.1416015625 159.247070312 87.1416015625 164.2578125 98.40625 c 0,193,194
 183.1328125 140.829101562 183.1328125 140.829101562 196.630859375 256.1171875 c 0,195,196
 202.243164062 304.061523438 202.243164062 304.061523438 205.46875 330.295898438 c 0,197,198
 219.573242188 445.021484375 219.573242188 445.021484375 215.279296875 483.076171875 c 0,199,200
 214.723632812 488.002929688 214.723632812 488.002929688 213.528320312 486.09375 c 0,201,202
 210.444335938 481.168945312 210.444335938 481.168945312 196.727539062 440.76171875 c 128,-1,203
 183.002929688 400.342773438 183.002929688 400.342773438 174.578125 381.123046875 c 0,204,205
 158.643554688 344.774414062 158.643554688 344.774414062 158.643554688 342.614257812 c 128,-1,206
 158.643554688 340.6484375 158.643554688 340.6484375 148.836914062 319.712890625 c 128,-1,207
 139.032226562 298.779296875 139.032226562 298.779296875 133.583007812 282.25390625 c 128,-1,208
 128.1328125 265.73046875 128.1328125 265.73046875 124.155273438 257.075195312 c 128,-1,209
 120.17578125 248.415039062 120.17578125 248.415039062 120.166992188 244.712890625 c 128,-1,210
 120.154296875 241.002929688 120.154296875 241.002929688 114.840820312 232.290039062 c 128,-1,211
 109.528320312 223.580078125 109.528320312 223.580078125 105.27734375 209.270507812 c 128,-1,212
 101.029296875 194.967773438 101.029296875 194.967773438 98.7255859375 191.887695312 c 0,213,214
 95.2548828125 187.247070312 95.2548828125 187.247070312 86.9501953125 164.102539062 c 128,-1,215
 78.6455078125 140.958007812 78.6455078125 140.958007812 77.2978515625 132.169921875 c 0,216,217
 75.451171875 120.125976562 75.451171875 120.125976562 71.6943359375 112.670898438 c 0,218,219
 68.162109375 105.663085938 68.162109375 105.663085938 64.8740234375 78.4482421875 c 128,-1,220
 61.5869140625 51.232421875 61.5869140625 51.232421875 63.400390625 44.0107421875 c 128,-1,221
 65.201171875 36.83203125 65.201171875 36.83203125 82.3857421875 27.1552734375 c 0,222,223
 98.220703125 18.2373046875 98.220703125 18.2373046875 107.395507812 17.6767578125 c 128,-1,224
 116.5703125 17.1162109375 116.5703125 17.1162109375 125.916992188 24.49609375 c 0,189,190
EndSplineSet
Validated: 33
EndChar

StartChar: uni0413
Encoding: 179 1043 10
Width: 797
Flags: W
LayerCount: 2
Fore
SplineSet
37.224609375 51.970703125 m 0,0,1
 33.099609375 58.3134765625 33.099609375 58.3134765625 36.625 61.4443359375 c 128,-1,2
 40.1494140625 64.5751953125 40.1494140625 64.5751953125 46.1279296875 64.5751953125 c 0,3,4
 52.3583984375 61.3837890625 52.3583984375 61.3837890625 69.9697265625 46.2431640625 c 128,-1,5
 87.5810546875 31.1015625 87.5810546875 31.1015625 92.845703125 27.1630859375 c 0,6,7
 101.553710938 20.6484375 101.553710938 20.6484375 131.4296875 16.0537109375 c 0,8,9
 151.73046875 12.931640625 151.73046875 12.931640625 164.287109375 23.9873046875 c 0,10,11
 171.190429688 30.064453125 171.190429688 30.064453125 184.520507812 64.3916015625 c 128,-1,12
 197.8515625 98.71875 197.8515625 98.71875 206.412109375 129.422851562 c 0,13,14
 211.038085938 146.006835938 211.038085938 146.006835938 213.37890625 151.526367188 c 128,-1,15
 215.723632812 157.0546875 215.723632812 157.0546875 217.46875 165.340820312 c 128,-1,16
 219.21484375 173.6328125 219.21484375 173.6328125 223.374023438 191.58984375 c 128,-1,17
 227.559570312 209.6640625 227.559570312 209.6640625 230.255859375 221.982421875 c 0,18,19
 250.8671875 344.489257812 250.8671875 344.489257812 253.235351562 469.267578125 c 0,20,21
 254.944335938 563.24609375 254.944335938 563.24609375 257.5078125 610.178710938 c 128,-1,22
 260.072265625 657.162109375 260.072265625 657.162109375 261.5546875 713.041015625 c 2,23,-1
 263.037109375 768.93359375 l 1,24,-1
 249.950195312 767.376953125 l 2,25,26
 230.208007812 765.028320312 230.208007812 765.028320312 194.033203125 751.583007812 c 0,27,28
 172.349609375 743.5234375 172.349609375 743.5234375 152.09765625 726.953125 c 0,29,30
 138.146484375 715.537109375 138.146484375 715.537109375 129.505859375 696.749023438 c 128,-1,31
 120.865234375 677.9609375 120.865234375 677.9609375 127.640625 673.7734375 c 0,32,33
 130.330078125 672.11328125 130.330078125 672.11328125 133.134765625 661.868164062 c 128,-1,34
 135.939453125 651.624023438 135.939453125 651.624023438 149.7890625 636.649414062 c 0,35,36
 167.7734375 617.204101562 167.7734375 617.204101562 160.815429688 612.905273438 c 0,37,38
 157.477539062 610.841796875 157.477539062 610.841796875 147.196289062 616.66015625 c 128,-1,39
 136.916015625 622.477539062 136.916015625 622.477539062 133.376953125 628.432617188 c 0,40,41
 129.107421875 635.62109375 129.107421875 635.62109375 118.735351562 651.28125 c 128,-1,42
 108.373046875 666.926757812 108.373046875 666.926757812 108.373046875 684.734375 c 0,43,44
 108.373046875 715.594726562 108.373046875 715.594726562 136.259765625 741.594726562 c 0,45,46
 145.426757812 750.141601562 145.426757812 750.141601562 169.65625 763.740234375 c 128,-1,47
 193.884765625 777.338867188 193.884765625 777.338867188 199.947265625 777.338867188 c 0,48,49
 203.217773438 777.338867188 203.217773438 777.338867188 217.278320312 781.368164062 c 128,-1,50
 231.3203125 785.393554688 231.3203125 785.393554688 248.893554688 788.909179688 c 2,51,-1
 266.450195312 792.419921875 l 1,52,-1
 265.291015625 808.448242188 l 2,53,54
 264.400390625 820.75390625 264.400390625 820.75390625 267.89453125 824.731445312 c 128,-1,55
 271.387695312 828.708984375 271.387695312 828.708984375 282.12890625 831.001953125 c 0,56,57
 292.350585938 833.18359375 292.350585938 833.18359375 299.03125 826.892578125 c 128,-1,58
 305.712890625 820.6015625 305.712890625 820.6015625 302.350585938 809.221679688 c 2,59,-1
 302.293945312 796.6796875 l 1,60,-1
 314.755859375 796.828125 l 2,61,62
 336.3359375 796.977539062 336.3359375 796.977539062 358.446289062 799.783203125 c 128,-1,63
 380.540039062 802.588867188 380.540039062 802.588867188 444.106445312 803.576171875 c 0,64,65
 461.970703125 804.876953125 461.970703125 804.876953125 521.962890625 808.170898438 c 128,-1,66
 581.955078125 811.46484375 581.955078125 811.46484375 611.973632812 814.513671875 c 0,67,68
 629.243164062 816.538085938 629.243164062 816.538085938 674.837890625 817.7734375 c 0,69,70
 745.209960938 819.680664062 745.209960938 819.680664062 758.1875 805.8671875 c 0,71,72
 762.384765625 801.400390625 762.384765625 801.400390625 762.544921875 799.51171875 c 128,-1,73
 762.705078125 797.622070312 762.705078125 797.622070312 759.322265625 792.4609375 c 0,74,75
 756.08203125 787.517578125 756.08203125 787.517578125 752.46484375 786.423828125 c 128,-1,76
 748.846679688 785.330078125 748.846679688 785.330078125 736.139648438 785.455078125 c 0,77,78
 717.668945312 785.635742188 717.668945312 785.635742188 707.99609375 784.22265625 c 0,79,80
 676.098632812 780.678710938 676.098632812 780.678710938 676.018554688 782.5390625 c 0,81,82
 677.926757812 785.626953125 677.926757812 785.626953125 683.333984375 785.626953125 c 0,83,84
 689.07421875 785.626953125 689.07421875 785.626953125 699.916992188 789.169921875 c 128,-1,85
 710.759765625 792.712890625 710.759765625 792.712890625 710.759765625 794.588867188 c 0,86,87
 710.759765625 796.03125 710.759765625 796.03125 694.727539062 796.483398438 c 128,-1,88
 678.694335938 796.935546875 678.694335938 796.935546875 658.905273438 796.2265625 c 128,-1,89
 639.116210938 795.518554688 639.116210938 795.518554688 629.5625 794.0078125 c 0,90,91
 586.525390625 787.205078125 586.525390625 787.205078125 559.950195312 785.62890625 c 128,-1,92
 533.375 784.051757812 533.375 784.051757812 423.3828125 781.775390625 c 0,93,94
 358.4453125 780.431640625 358.4453125 780.431640625 348.79296875 777.50390625 c 128,-1,95
 339.138671875 774.575195312 339.138671875 774.575195312 316.853515625 774.575195312 c 2,96,-1
 301.864257812 774.575195312 l 1,97,-1
 301.50390625 732.440429688 l 2,98,99
 301.143554688 690.290039062 301.143554688 690.290039062 298.088867188 654.38671875 c 128,-1,100
 295.032226562 618.458984375 295.032226562 618.458984375 293.69921875 568.734375 c 128,-1,101
 292.364257812 518.985351562 292.364257812 518.985351562 289.534179688 467.885742188 c 0,102,103
 286.265625 338.583984375 286.265625 338.583984375 263.711914062 222.275390625 c 0,104,105
 248.452148438 143.571289062 248.452148438 143.571289062 226.870117188 77.4921875 c 0,106,107
 203.034179688 -5.44921875 203.034179688 -5.44921875 135.9453125 -5.763671875 c 0,108,109
 88.5283203125 -6.5869140625 88.5283203125 -6.5869140625 37.224609375 51.970703125 c 0,0,1
EndSplineSet
Validated: 33
EndChar

StartChar: uni0414
Encoding: 180 1044 11
Width: 732
Flags: W
LayerCount: 2
Fore
SplineSet
464.638671875 -3.8935546875 m 0,0,1
 396.7734375 9.5009765625 396.7734375 9.5009765625 340.970703125 62.8935546875 c 0,2,3
 289.729492188 111.921875 289.729492188 111.921875 252.078125 221.65625 c 1,4,5
 249.521484375 213.643554688 249.521484375 213.643554688 238.823242188 174.473632812 c 128,-1,6
 228.124023438 135.302734375 228.124023438 135.302734375 218.3671875 108.493164062 c 0,7,8
 203.854492188 68.61328125 203.854492188 68.61328125 181.508789062 36.9716796875 c 128,-1,9
 159.163085938 5.3291015625 159.163085938 5.3291015625 132.9765625 -2.046875 c 0,10,11
 97.041015625 -12.1708984375 97.041015625 -12.1708984375 74.125 -1.123046875 c 0,12,13
 36.2548828125 17.1318359375 36.2548828125 17.1318359375 35.8837890625 48.5498046875 c 0,14,15
 34.3720703125 65.447265625 34.3720703125 65.447265625 35.447265625 91.3603515625 c 128,-1,16
 36.5234375 117.272460938 36.5234375 117.272460938 39.107421875 142.462890625 c 128,-1,17
 41.6904296875 167.65234375 41.6904296875 167.65234375 53.0078125 196.877929688 c 128,-1,18
 64.32421875 226.104492188 64.32421875 226.104492188 83.29296875 249.62890625 c 0,19,20
 108.827148438 281.29296875 108.827148438 281.29296875 141.513671875 295.409179688 c 128,-1,21
 174.200195312 309.524414062 174.200195312 309.524414062 200.631835938 305.912109375 c 128,-1,22
 227.063476562 302.30078125 227.063476562 302.30078125 241.669921875 286.029296875 c 1,23,24
 259.278320312 341.916015625 259.278320312 341.916015625 273.14453125 409.622070312 c 128,-1,25
 287.010742188 477.327148438 287.010742188 477.327148438 300.235351562 556.272460938 c 128,-1,26
 313.4609375 635.217773438 313.4609375 635.217773438 321.565429688 674.041992188 c 0,27,28
 324.024414062 683.040039062 324.024414062 683.040039062 326.169921875 705.395507812 c 128,-1,29
 328.315429688 727.751953125 328.315429688 727.751953125 333.747070312 742.993164062 c 128,-1,30
 339.177734375 758.234375 339.177734375 758.234375 352.278320312 767.15625 c 1,31,32
 363.473632812 766.818359375 363.473632812 766.818359375 368.5390625 760.291015625 c 128,-1,33
 373.60546875 753.763671875 373.60546875 753.763671875 372.946289062 742.811523438 c 128,-1,34
 372.287109375 731.858398438 372.287109375 731.858398438 369.953125 721.166992188 c 128,-1,35
 367.620117188 710.475585938 367.620117188 710.475585938 364.25 697.745117188 c 128,-1,36
 360.879882812 685.014648438 360.879882812 685.014648438 360.2890625 678.995117188 c 0,37,38
 342.90234375 580.583007812 342.90234375 580.583007812 329.272460938 532.9453125 c 0,39,40
 321.3828125 499.952148438 321.3828125 499.952148438 310.48046875 442.727539062 c 128,-1,41
 299.579101562 385.50390625 299.579101562 385.50390625 288.905273438 341.973632812 c 128,-1,42
 278.23046875 298.443359375 278.23046875 298.443359375 262.74609375 259.379882812 c 1,43,44
 268.270507812 248.084960938 268.270507812 248.084960938 285.510742188 211.359375 c 128,-1,45
 302.751953125 174.634765625 302.751953125 174.634765625 311.974609375 156.350585938 c 128,-1,46
 321.198242188 138.06640625 321.198242188 138.06640625 336.153320312 114.241210938 c 128,-1,47
 351.108398438 90.4150390625 351.108398438 90.4150390625 363.963867188 78.294921875 c 0,48,49
 388.856445312 54.8271484375 388.856445312 54.8271484375 407.481445312 45.3232421875 c 128,-1,50
 426.106445312 35.818359375 426.106445312 35.818359375 457.194335938 26.2236328125 c 1,51,52
 493.09765625 20.265625 493.09765625 20.265625 526.63671875 37.9931640625 c 128,-1,53
 560.174804688 55.7216796875 560.174804688 55.7216796875 577.536132812 88.390625 c 0,54,55
 629.106445312 195.883789062 629.106445312 195.883789062 645.168945312 299.986328125 c 0,56,57
 645.151367188 312.868164062 645.151367188 312.868164062 650.186523438 370.404296875 c 128,-1,58
 655.221679688 427.940429688 655.221679688 427.940429688 649.502929688 440.775390625 c 1,59,60
 644.594726562 540.83203125 644.594726562 540.83203125 619.366210938 597.994140625 c 1,61,62
 597.693359375 683.340820312 597.693359375 683.340820312 491.293945312 755.845703125 c 0,63,64
 478.555664062 769.114257812 478.555664062 769.114257812 459.454101562 777.276367188 c 128,-1,65
 440.352539062 785.4375 440.352539062 785.4375 426.724609375 787.891601562 c 128,-1,66
 413.09765625 790.346679688 413.09765625 790.346679688 388.37109375 793.2265625 c 0,67,68
 359.12890625 798.463867188 359.12890625 798.463867188 324.991210938 791.892578125 c 128,-1,69
 290.853515625 785.321289062 290.853515625 785.321289062 268.58984375 776.146484375 c 128,-1,70
 246.326171875 766.97265625 246.326171875 766.97265625 210.419921875 749.529296875 c 0,71,72
 163.66015625 727.663085938 163.66015625 727.663085938 123.6484375 663.390625 c 1,73,74
 114.192382812 637.520507812 114.192382812 637.520507812 111.569335938 611.80078125 c 128,-1,75
 108.946289062 586.081054688 108.946289062 586.081054688 116.596679688 559.286132812 c 128,-1,76
 124.247070312 532.491210938 124.247070312 532.491210938 143.923828125 514.837890625 c 1,77,78
 144.081054688 492.677734375 144.081054688 492.677734375 119.486328125 515.966796875 c 0,79,80
 101.706054688 532.802734375 101.706054688 532.802734375 99.2353515625 544.802734375 c 1,81,82
 90.82421875 555.522460938 90.82421875 555.522460938 87.654296875 570.189453125 c 128,-1,83
 84.484375 584.856445312 84.484375 584.856445312 85.0048828125 595.025390625 c 128,-1,84
 85.525390625 605.1953125 85.525390625 605.1953125 88.08984375 624.360351562 c 128,-1,85
 90.6533203125 643.525390625 90.6533203125 643.525390625 91.2001953125 650.407226562 c 0,86,87
 93.7587890625 665.055664062 93.7587890625 665.055664062 102.63671875 680.557617188 c 128,-1,88
 111.514648438 696.059570312 111.514648438 696.059570312 117.520507812 703.444335938 c 128,-1,89
 123.526367188 710.829101562 123.526367188 710.829101562 141.171875 728.84375 c 128,-1,90
 158.81640625 746.857421875 158.81640625 746.857421875 161.432617188 749.657226562 c 0,91,92
 174.264648438 761.5234375 174.264648438 761.5234375 190.83984375 770.366210938 c 128,-1,93
 207.415039062 779.208984375 207.415039062 779.208984375 230.543945312 788.544921875 c 128,-1,94
 253.671875 797.879882812 253.671875 797.879882812 263.78515625 802.842773438 c 0,95,96
 349.529296875 836.975585938 349.529296875 836.975585938 428.716796875 813.719726562 c 1,97,98
 446.849609375 814.958007812 446.849609375 814.958007812 462.904296875 807.334960938 c 128,-1,99
 478.958984375 799.7109375 478.958984375 799.7109375 498.762695312 783.8671875 c 128,-1,100
 518.567382812 768.022460938 518.567382812 768.022460938 526.8984375 762.95703125 c 0,101,102
 617.778320312 698.547851562 617.778320312 698.547851562 645.181640625 618.204101562 c 0,103,104
 647.97265625 609.987304688 647.97265625 609.987304688 659.125 580.466796875 c 128,-1,105
 670.276367188 550.947265625 670.276367188 550.947265625 675.696289062 531.453125 c 128,-1,106
 681.116210938 511.958984375 681.116210938 511.958984375 683.029296875 491.922851562 c 0,107,108
 712.319335938 329.810546875 712.319335938 329.810546875 680.37109375 217.057617188 c 1,109,110
 668.94140625 156.696289062 668.94140625 156.696289062 634.790039062 104.307617188 c 0,111,112
 607.547851562 55.51953125 607.547851562 55.51953125 549.595703125 15.5888671875 c 0,113,114
 509.328125 -15.0498046875 509.328125 -15.0498046875 464.638671875 -3.8935546875 c 0,0,1
124.680664062 24.705078125 m 0,115,116
 170.012695312 36.029296875 170.012695312 36.029296875 197.372070312 126.014648438 c 0,117,118
 203.260742188 145.3828125 203.260742188 145.3828125 214.787109375 191.174804688 c 128,-1,119
 226.3125 236.966796875 226.3125 236.966796875 234.426757812 258.31640625 c 1,120,121
 222.094726562 276.828125 222.094726562 276.828125 201.828125 282.650390625 c 128,-1,122
 181.560546875 288.47265625 181.560546875 288.47265625 154.989257812 277.146484375 c 128,-1,123
 128.41796875 265.819335938 128.41796875 265.819335938 103.458007812 236.274414062 c 0,124,125
 88.6201171875 218.7109375 88.6201171875 218.7109375 79.0703125 199.446289062 c 128,-1,126
 69.5205078125 180.180664062 69.5205078125 180.180664062 65.9248046875 157.658203125 c 128,-1,127
 62.3291015625 135.135742188 62.3291015625 135.135742188 61.095703125 123.317382812 c 128,-1,128
 59.8623046875 111.498046875 59.8623046875 111.498046875 60.416015625 87.302734375 c 128,-1,129
 60.96875 63.107421875 60.96875 63.107421875 60.9580078125 62.0205078125 c 0,130,131
 60.69921875 35.2998046875 60.69921875 35.2998046875 78.9091796875 26.5595703125 c 128,-1,132
 97.119140625 17.8203125 97.119140625 17.8203125 124.680664062 24.705078125 c 0,115,116
EndSplineSet
Validated: 33
EndChar

StartChar: uni0416
Encoding: 182 1046 13
Width: 1118
Flags: W
LayerCount: 2
Fore
SplineSet
791.299804688 -3.279296875 m 0,0,1
 771.565429688 3 771.565429688 3 755.479492188 15.755859375 c 0,2,3
 739.565429688 29 739.565429688 29 729.565429688 42 c 128,-1,4
 719.565429688 55 719.565429688 55 710.967773438 75.7177734375 c 0,5,6
 702.565429688 97 702.565429688 97 699.01171875 105.748046875 c 0,7,8
 693.565429688 119 693.565429688 119 691.123046875 132.317382812 c 0,9,10
 682.565429688 190 682.565429688 190 681.389648438 254.6171875 c 0,11,12
 680.565429688 313 680.565429688 313 689.4921875 389.18359375 c 0,13,14
 696.565429688 454 696.565429688 454 696.869140625 453.715820312 c 2,15,-1
 698.668945312 481.232421875 l 1,16,-1
 690.712890625 463.944335938 l 2,17,18
 679.565429688 438 679.565429688 438 670.014648438 416.69921875 c 0,19,20
 614.565429688 293 614.565429688 293 595.682617188 204.002929688 c 0,21,22
 590.565429688 180 590.565429688 180 582.345703125 152.096679688 c 0,23,24
 580.565429688 146 580.565429688 146 576.708984375 134.466796875 c 0,25,26
 572.565429688 123 572.565429688 123 572.069335938 118.150390625 c 0,27,28
 569.565429688 101 569.565429688 101 568.49609375 97.107421875 c 0,29,30
 556.565429688 41 556.565429688 41 556.89453125 41.234375 c 0,31,32
 555.565429688 33 555.565429688 33 554.036132812 23.0859375 c 0,33,34
 553.565429688 16 553.565429688 16 552.024414062 14.2568359375 c 0,35,36
 550.565429688 13 550.565429688 13 546.189453125 13.38671875 c 0,37,38
 537.565429688 14 537.565429688 14 536.466796875 23.416015625 c 0,39,40
 535.565429688 32 535.565429688 32 538.1953125 70.083984375 c 0,41,42
 541.565429688 131 541.565429688 131 544.086914062 153.349609375 c 0,43,44
 548.565429688 194 548.565429688 194 554.739257812 248.543945312 c 0,45,46
 561.565429688 303 561.565429688 303 564.0625 327.456054688 c 0,47,48
 570.565429688 387 570.565429688 387 577.702148438 490.90625 c 0,49,50
 584.565429688 595 584.565429688 595 582.951171875 596.668945312 c 1,51,52
 577.565429688 580 577.565429688 580 565.768554688 542.452148438 c 0,53,54
 549.565429688 491 549.565429688 491 548.82421875 488.788085938 c 0,55,56
 520.565429688 428 520.565429688 428 506.932617188 392.802734375 c 0,57,58
 483.565429688 333 483.565429688 333 467.921875 299.3984375 c 0,59,60
 457.565429688 278 457.565429688 278 443.682617188 244.686523438 c 0,61,62
 411.565429688 169 411.565429688 169 366.520507812 101.603515625 c 0,63,64
 349.565429688 76 349.565429688 76 343.124023438 66.8837890625 c 0,65,66
 336.565429688 58 336.565429688 58 320.725585938 38.9130859375 c 0,67,68
 304.565429688 20 304.565429688 20 292.485351562 12.7841796875 c 0,69,70
 275.565429688 3 275.565429688 3 260.670898438 -1.43359375 c 0,71,72
 236.565429688 -9 236.565429688 -9 218.44140625 -8.6455078125 c 0,73,74
 176.565429688 -7 176.565429688 -7 150.262695312 -1.7041015625 c 0,75,76
 123.565429688 4 123.565429688 4 96.94140625 21.0849609375 c 0,77,78
 79.5654296875 32 79.5654296875 32 70.2587890625 36.3603515625 c 0,79,80
 58.5654296875 41 58.5654296875 41 46.2529296875 51.6845703125 c 0,81,82
 33.5654296875 62 33.5654296875 62 35.1826171875 65.3134765625 c 0,83,84
 39.5654296875 75 39.5654296875 75 64.146484375 60.9091796875 c 0,85,86
 103.565429688 40 103.565429688 40 118.735351562 32.8173828125 c 0,87,88
 133.565429688 25 133.565429688 25 164.623046875 16.767578125 c 0,89,90
 195.565429688 8 195.565429688 8 222.859375 9.671875 c 0,91,92
 243.565429688 11 243.565429688 11 262.565429688 20 c 0,93,94
 277.565429688 27 277.565429688 27 293.618164062 41.7109375 c 0,95,96
 321.565429688 69 321.565429688 69 356.2734375 146.484375 c 0,97,98
 378.565429688 196 378.565429688 196 384.942382812 218.321289062 c 0,99,100
 397.565429688 260 397.565429688 260 402.697265625 284.541992188 c 0,101,102
 417.565429688 360 417.565429688 360 417.25 361.067382812 c 0,103,104
 417.565429688 366 417.565429688 366 418.848632812 370.125 c 0,105,106
 477.565429688 762 477.565429688 762 393.412109375 798.413085938 c 1,107,108
 329.565429688 818 329.565429688 818 242.534179688 781.309570312 c 0,109,110
 227.565429688 775 227.565429688 775 202.799804688 758.544921875 c 0,111,112
 178.565429688 742 178.565429688 742 166.60546875 729.702148438 c 0,113,114
 148.565429688 710 148.565429688 710 141.8125 710.473632812 c 0,115,116
 133.565429688 710 133.565429688 710 131.270507812 712.4765625 c 0,117,118
 128.565429688 714 128.565429688 714 128.840820312 723.788085938 c 0,119,120
 128.448242188 738.348632812 128.448242188 738.348632812 157.443359375 755.744140625 c 0,121,122
 347.669921875 874.245117188 347.669921875 874.245117188 426.560546875 808 c 0,123,124
 513.610351562 734.904296875 513.610351562 734.904296875 465.109375 436.880859375 c 0,125,126
 449.14453125 338.8984375 449.14453125 338.8984375 423.852539062 246.7890625 c 1,127,128
 432.565429688 255 432.565429688 255 442.978515625 282.564453125 c 0,129,130
 450.565429688 303 450.565429688 303 466.499023438 337.649414062 c 0,131,132
 482.565429688 373 482.565429688 373 487.827148438 386.918945312 c 0,133,134
 527.565429688 473 527.565429688 473 530.809570312 483.717773438 c 0,135,136
 575.565429688 616 575.565429688 616 592.359375 712.778320312 c 0,137,138
 592.565429688 714 592.565429688 714 593.969726562 722.33984375 c 0,139,140
 595.565429688 730 595.565429688 730 596.359375 736.135742188 c 0,141,142
 597.565429688 742 597.565429688 742 599.670898438 750.948242188 c 0,143,144
 601.565429688 760 601.565429688 760 604.3359375 766.615234375 c 0,145,146
 606.565429688 773 606.565429688 773 610.48046875 779.71484375 c 0,147,148
 616.565429688 789 616.565429688 789 618.515625 789.8828125 c 0,149,150
 626.565429688 793 626.565429688 793 629.741210938 783.31640625 c 0,151,152
 634.565429688 766 634.565429688 766 622.953125 636.090820312 c 0,153,154
 617.565429688 574 617.565429688 574 607.447265625 428.463867188 c 0,155,156
 603.565429688 377 603.565429688 377 600.915039062 351.305664062 c 0,157,158
 596.518554688 314.610351562 596.518554688 314.610351562 595.987304688 305.010742188 c 2,159,-1
 594.115234375 271.196289062 l 1,160,-1
 613.330078125 316.233398438 l 2,161,162
 617.565429688 332 617.565429688 332 624.754882812 349.026367188 c 0,163,164
 631.565429688 366 631.565429688 366 641.240234375 386.38671875 c 0,165,166
 650.565429688 407 650.565429688 407 654.580078125 415.837890625 c 0,167,168
 661.565429688 432 661.565429688 432 677.145507812 468.48046875 c 128,-1,169
 692.565429688 505 692.565429688 505 701.805664062 526.0546875 c 0,170,171
 710.565429688 548 710.565429688 548 721.75390625 577.263671875 c 0,172,173
 732.565429688 607 732.565429688 607 739.004882812 630.479492188 c 0,174,175
 748.565429688 670 748.565429688 670 775.8984375 720.263671875 c 0,176,177
 799.565429688 765 799.565429688 765 839.998046875 796.508789062 c 0,178,179
 881.565429688 829 881.565429688 829 934.765625 825.849609375 c 0,180,181
 971.565429688 824 971.565429688 824 998.538085938 810.723632812 c 0,182,183
 1025.56542969 798 1025.56542969 798 1057.71289062 772.622070312 c 0,184,185
 1075.56542969 759 1075.56542969 759 1079.54394531 753.609375 c 0,186,187
 1083.56542969 749 1083.56542969 749 1082.93652344 742.500976562 c 0,188,189
 1081.56542969 733 1081.56542969 733 1076.50292969 732.455078125 c 128,-1,190
 1071.56542969 732 1071.56542969 732 1048.07714844 749.916992188 c 0,191,192
 1029.56542969 765 1029.56542969 765 1021.2109375 770.73828125 c 0,193,194
 1012.56542969 777 1012.56542969 777 997.79296875 784.547851562 c 0,195,196
 978.565429688 794 978.565429688 794 966.405273438 796.122070312 c 0,197,198
 932.565429688 802 932.565429688 802 903.783203125 793.3203125 c 0,199,200
 874.565429688 785 874.565429688 785 855.137695312 767.639648438 c 0,201,202
 835.565429688 751 835.565429688 751 819.204101562 725.185546875 c 0,203,204
 802.565429688 700 802.565429688 700 793.791015625 677.791015625 c 0,205,206
 784.565429688 656 784.565429688 656 777.630859375 631.561523438 c 0,207,208
 744.565429688 523 744.565429688 523 729.313476562 438.563476562 c 0,209,210
 713.565429688 355 713.565429688 355 714.682617188 264.026367188 c 0,211,212
 715.565429688 168 715.565429688 168 738.403320312 94.7001953125 c 0,213,214
 760.565429688 22 760.565429688 22 803.510742188 17.3056640625 c 0,215,216
 835.565429688 14 835.565429688 14 855.565429688 20 c 128,-1,217
 875.565429688 26 875.565429688 26 895.455078125 32.447265625 c 0,218,219
 914.565429688 39 914.565429688 39 927.565429688 44 c 0,220,221
 941.565429688 50 941.565429688 50 956.577148438 54.7626953125 c 0,222,223
 967.565429688 58 967.565429688 58 978.932617188 60.9287109375 c 0,224,225
 1019.56542969 68 1019.56542969 68 1019.70996094 51.6171875 c 0,226,227
 1019.56542969 47 1019.56542969 47 989.774414062 35.529296875 c 0,228,229
 970.565429688 28 970.565429688 28 950.565429688 21 c 0,230,-1
 927.565429688 14 l 0,231,232
 912.565429688 10 912.565429688 10 897.807617188 6.642578125 c 0,233,234
 849.565429688 -3 849.565429688 -3 828.565429688 -4 c 0,235,236
 797.565429688 -5 797.565429688 -5 791.299804688 -3.279296875 c 0,0,1
EndSplineSet
Validated: 33
EndChar

StartChar: uni0417
Encoding: 183 1047 14
Width: 594
Flags: W
LayerCount: 2
Fore
SplineSet
339.78515625 -5.6669921875 m 1,0,1
 296.401367188 -17 296.401367188 -17 202.254882812 -8.734375 c 1,2,3
 80.4013671875 8 80.4013671875 8 40.4794921875 75.3193359375 c 0,4,5
 28.4013671875 96 28.4013671875 96 42.9482421875 96.837890625 c 0,6,7
 59.4013671875 97 59.4013671875 97 69.255859375 80.8876953125 c 1,8,9
 124.401367188 37 124.401367188 37 184.401367188 23 c 1,10,11
 261.401367188 6 261.401367188 6 344.500976562 28.9208984375 c 0,12,13
 387.401367188 41 387.401367188 41 425.279296875 68.3623046875 c 0,14,15
 459.401367188 92 459.401367188 92 488.774414062 131.157226562 c 0,16,17
 526.401367188 181 526.401367188 181 522.498046875 256.239257812 c 0,18,19
 520.401367188 300 520.401367188 300 512.157226562 321.970703125 c 0,20,21
 495.401367188 365 495.401367188 365 480.42578125 384.521484375 c 0,22,23
 448.401367188 426 448.401367188 426 412.401367188 443 c 0,24,25
 385.401367188 456 385.401367188 456 321.138671875 467.359375 c 0,26,27
 311.401367188 469 311.401367188 469 288.907226562 470.622070312 c 0,28,29
 266.401367188 472 266.401367188 472 251.389648438 474.469726562 c 128,-1,30
 236.401367188 477 236.401367188 477 236.265625 482.095703125 c 0,31,32
 235.401367188 487 235.401367188 487 254.032226562 492.4140625 c 0,33,34
 272.401367188 498 272.401367188 498 298.889648438 506.291992188 c 0,35,36
 317.401367188 512 317.401367188 512 338.622070312 522.017578125 c 0,37,38
 377.401367188 541 377.401367188 541 404.0546875 580.97265625 c 0,39,40
 438.401367188 631 438.401367188 631 435.419921875 662.400390625 c 0,41,42
 428.401367188 738 428.401367188 738 385.921875 772.8203125 c 0,43,44
 356.401367188 797 356.401367188 797 307.19921875 800.361328125 c 0,45,46
 258.401367188 804 258.401367188 804 225.203125 786.59765625 c 1,47,48
 216.401367188 771 216.401367188 771 200.848632812 777.981445312 c 0,49,50
 186.401367188 785 186.401367188 785 201.057617188 799.08984375 c 0,51,52
 227.401367188 824 227.401367188 824 272.323242188 830.26171875 c 0,53,54
 312.401367188 836 312.401367188 836 351.0859375 823.666015625 c 0,55,56
 403.401367188 808 403.401367188 808 436.595703125 763.415039062 c 0,57,58
 465.401367188 723 465.401367188 723 468.270507812 663.987304688 c 1,59,60
 474.401367188 635 474.401367188 635 448.0703125 585.213867188 c 0,61,62
 430.005859375 550.172851562 430.005859375 550.172851562 393.184570312 522.088867188 c 0,63,64
 373.401367188 507 373.401367188 507 341.401367188 492 c 1,65,66
 353.401367188 488 353.401367188 488 365.401367188 485 c 1,67,68
 458.401367188 465 458.401367188 465 508.688476562 398.073242188 c 0,69,70
 570.401367188 318 570.401367188 318 557.702148438 201.188476562 c 1,71,72
 546.401367188 147 546.401367188 147 517.953125 100.280273438 c 0,73,74
 489.401367188 54 489.401367188 54 446.5390625 30.685546875 c 0,75,76
 395.401367188 3 395.401367188 3 339.78515625 -5.6669921875 c 1,0,1
EndSplineSet
Validated: 33
EndChar

StartChar: uni0418
Encoding: 184 1048 15
Width: 803
Flags: W
LayerCount: 2
Fore
SplineSet
511.440429688 32.84765625 m 0,0,1
 504.266601562 54.451171875 504.266601562 54.451171875 501.559570312 133.333984375 c 2,2,-1
 499.727539062 186.7109375 l 1,3,-1
 491.931640625 169.358398438 l 2,4,5
 484.356445312 152.49609375 484.356445312 152.49609375 478.5078125 139.53515625 c 0,6,7
 467.907226562 116.044921875 467.907226562 116.044921875 448.868164062 86.3271484375 c 128,-1,8
 429.828125 56.609375 429.828125 56.609375 411.904296875 39.318359375 c 0,9,10
 410.01171875 37.537109375 410.01171875 37.537109375 404.99609375 32.5791015625 c 128,-1,11
 399.981445312 27.6201171875 399.981445312 27.6201171875 398.0546875 25.9990234375 c 128,-1,12
 396.127929688 24.376953125 396.127929688 24.376953125 390.509765625 20.3134765625 c 128,-1,13
 384.891601562 16.25 384.891601562 16.25 379.170898438 13.5126953125 c 128,-1,14
 373.450195312 10.7763671875 373.450195312 10.7763671875 363.643554688 6.5146484375 c 128,-1,15
 353.8359375 2.2529296875 353.8359375 2.2529296875 340.91015625 -2.5078125 c 0,16,17
 300.688476562 -17.3212890625 300.688476562 -17.3212890625 251.46875 -20.46875 c 128,-1,18
 202.249023438 -23.615234375 202.249023438 -23.615234375 162.876953125 -13.3095703125 c 0,19,20
 129.112304688 -4.50390625 129.112304688 -4.50390625 109.999023438 23.46875 c 128,-1,21
 90.8857421875 51.44140625 90.8857421875 51.44140625 87.669921875 88.900390625 c 128,-1,22
 84.4541015625 126.360351562 84.4541015625 126.360351562 87.150390625 159.137695312 c 128,-1,23
 89.845703125 191.915039062 89.845703125 191.915039062 97.1875 222.66796875 c 0,24,25
 105.71484375 255.969726562 105.71484375 255.969726562 116.735351562 334.897460938 c 0,26,27
 120.694335938 363.240234375 120.694335938 363.240234375 136.892578125 431.954101562 c 0,28,29
 144.092773438 462.500976562 144.092773438 462.500976562 145.465820312 481.516601562 c 128,-1,30
 146.836914062 500.525390625 146.836914062 500.525390625 149.7734375 520.243164062 c 0,31,32
 163.47265625 612.216796875 163.47265625 612.216796875 164.344726562 666.04296875 c 0,33,34
 164.923828125 701.716796875 164.923828125 701.716796875 162.78125 744.76953125 c 128,-1,35
 160.639648438 787.822265625 160.639648438 787.822265625 158.211914062 789.323242188 c 0,36,37
 156.349609375 790.474609375 156.349609375 790.474609375 142.703125 783.485351562 c 128,-1,38
 129.05859375 776.495117188 129.05859375 776.495117188 107.86328125 777.391601562 c 128,-1,39
 86.66796875 778.288085938 86.66796875 778.288085938 81.31640625 783.12890625 c 0,40,41
 64.7998046875 798.076171875 64.7998046875 798.076171875 50.20703125 770.870117188 c 0,42,43
 45.259765625 761.645507812 45.259765625 761.645507812 40.0458984375 761.645507812 c 128,-1,44
 34.83203125 761.645507812 34.83203125 761.645507812 35.005859375 774.807617188 c 0,45,46
 35.1611328125 786.533203125 35.1611328125 786.533203125 41.607421875 794.575195312 c 128,-1,47
 48.052734375 802.6171875 48.052734375 802.6171875 64.4482421875 811.5390625 c 0,48,49
 78.41796875 819.141601562 78.41796875 819.141601562 88.8603515625 816.013671875 c 128,-1,50
 99.302734375 812.884765625 99.302734375 812.884765625 102.680664062 808.814453125 c 128,-1,51
 106.05859375 804.744140625 106.05859375 804.744140625 115.119140625 803.044921875 c 0,52,53
 130.051757812 800.243164062 130.051757812 800.243164062 159.138671875 822.444335938 c 0,54,55
 172.041015625 832.291015625 172.041015625 832.291015625 181.034179688 832.9921875 c 0,56,57
 187.1015625 833.465820312 187.1015625 833.465820312 189.0234375 828.659179688 c 0,58,59
 190.126953125 825.8984375 190.126953125 825.8984375 191.041992188 823.995117188 c 0,60,61
 195.874023438 813.946289062 195.874023438 813.946289062 197.48046875 753.451171875 c 128,-1,62
 199.086914062 692.955078125 199.086914062 692.955078125 195.782226562 620.319335938 c 0,63,64
 192.4296875 550.71484375 192.4296875 550.71484375 187.434570312 513.780273438 c 128,-1,65
 182.439453125 476.845703125 182.439453125 476.845703125 165.611328125 397.247070312 c 0,66,67
 163.625 387.846679688 163.625 387.846679688 157.459960938 358.68359375 c 128,-1,68
 151.295898438 329.520507812 151.295898438 329.520507812 149.2109375 319.65625 c 0,69,70
 142.471679688 287.768554688 142.471679688 287.768554688 138.283203125 262.848632812 c 128,-1,71
 134.088867188 237.907226562 134.088867188 237.907226562 131.48828125 229.595703125 c 0,72,73
 127.666992188 217.3828125 127.666992188 217.3828125 123.581054688 175.26953125 c 128,-1,74
 119.495117188 133.155273438 119.495117188 133.155273438 119.250976562 103.475585938 c 0,75,76
 114.095703125 64.712890625 114.095703125 64.712890625 136.84375 41.1552734375 c 128,-1,77
 159.592773438 17.59765625 159.592773438 17.59765625 193.727539062 10.3994140625 c 0,78,79
 210.9765625 4.994140625 210.9765625 4.994140625 251.352539062 5.6201171875 c 128,-1,80
 291.728515625 6.24609375 291.728515625 6.24609375 317.377929688 17.083984375 c 0,81,82
 364.049804688 36.8037109375 364.049804688 36.8037109375 382.469726562 57.7255859375 c 0,83,84
 413.186523438 92.619140625 413.186523438 92.619140625 424.924804688 113.209960938 c 0,85,86
 432.809570312 127.041992188 432.809570312 127.041992188 441.6875 140.920898438 c 0,87,88
 455.295898438 162.193359375 455.295898438 162.193359375 477.809570312 231.829101562 c 128,-1,89
 500.322265625 301.465820312 500.322265625 301.465820312 512.014648438 358.451171875 c 0,90,91
 517.415039062 384.771484375 517.415039062 384.771484375 521.975585938 404.174804688 c 128,-1,92
 526.532226562 423.559570312 526.532226562 423.559570312 529.32421875 438.813476562 c 128,-1,93
 532.115234375 454.072265625 532.115234375 454.072265625 534.370117188 465.138671875 c 0,94,95
 542.171875 503.428710938 542.171875 503.428710938 546.862304688 562.126953125 c 0,96,97
 556.146484375 678.31640625 556.146484375 678.31640625 563.45703125 733.934570312 c 0,98,99
 567.46484375 764.430664062 567.46484375 764.430664062 569.3046875 788.572265625 c 0,100,101
 571.0234375 811.119140625 571.0234375 811.119140625 575.403320312 816.864257812 c 128,-1,102
 579.784179688 822.610351562 579.784179688 822.610351562 592.37890625 818.836914062 c 0,103,104
 601.640625 816.0625 601.640625 816.0625 604.100585938 809.059570312 c 128,-1,105
 606.560546875 802.056640625 606.560546875 802.056640625 608.470703125 776.88671875 c 0,106,107
 610.477539062 750.451171875 610.477539062 750.451171875 602.330078125 662.440429688 c 128,-1,108
 594.18359375 574.428710938 594.18359375 574.428710938 585.05859375 523.971679688 c 0,109,110
 582.166015625 507.974609375 582.166015625 507.974609375 579.883789062 485.17578125 c 128,-1,111
 577.598632812 462.369140625 577.598632812 462.369140625 570.315429688 430.772460938 c 128,-1,112
 563.03125 399.182617188 563.03125 399.182617188 563.03125 390.448242188 c 128,-1,113
 563.03125 381.716796875 563.03125 381.716796875 553.58203125 333.21875 c 0,114,115
 540.5859375 266.506835938 540.5859375 266.506835938 539.427734375 238.735351562 c 0,116,117
 538.5546875 217.796875 538.5546875 217.796875 535.366210938 167.24609375 c 0,118,119
 530.318359375 128.705078125 530.318359375 128.705078125 532.764648438 90.345703125 c 128,-1,120
 535.209960938 51.986328125 535.209960938 51.986328125 553.069335938 28.396484375 c 0,121,122
 567.659179688 9.125 567.659179688 9.125 585.328125 5.251953125 c 128,-1,123
 602.997070312 1.3798828125 602.997070312 1.3798828125 617.866210938 7.74609375 c 128,-1,124
 632.735351562 14.1123046875 632.735351562 14.1123046875 652.249023438 28.56640625 c 0,125,126
 696.588867188 54.55078125 696.588867188 54.55078125 741.793945312 95.9658203125 c 0,127,128
 767.489257812 119.58203125 767.489257812 119.58203125 768.108398438 103.8515625 c 0,129,130
 768.1640625 102.454101562 768.1640625 102.454101562 768.079101562 100.750976562 c 0,131,132
 767.607421875 91.263671875 767.607421875 91.263671875 744.295898438 68.9833984375 c 0,133,134
 702.526367188 29.060546875 702.526367188 29.060546875 677.30078125 12.322265625 c 128,-1,135
 652.075195312 -4.4150390625 652.075195312 -4.4150390625 615.529296875 -16.45703125 c 0,136,137
 592.762695312 -23.958984375 592.762695312 -23.958984375 574.58984375 -23.958984375 c 0,138,139
 553.1953125 -22.3125 553.1953125 -22.3125 536.323242188 -6.0302734375 c 128,-1,140
 519.451171875 10.251953125 519.451171875 10.251953125 511.440429688 32.84765625 c 0,0,1
EndSplineSet
Validated: 33
EndChar

StartChar: uni0419
Encoding: 185 1049 16
Width: 803
Flags: W
LayerCount: 2
Fore
SplineSet
511 33 m 0,0,1
 504 54 504 54 501 133 c 2,2,-1
 500 187 l 1,3,-1
 492 169 l 2,4,5
 484 152 484 152 478 140 c 0,6,7
 466 112 466 112 449 86 c 0,8,9
 424 49 424 49 412 39 c 0,10,11
 407 35 407 35 405 33 c 0,12,13
 402 30 402 30 398 26 c 0,14,15
 396 24 396 24 390 20 c 0,16,17
 387 18 387 18 379 14 c 0,18,19
 375 12 375 12 364 7 c 0,20,21
 352 1 352 1 341 -3 c 0,22,23
 307 -15 307 -15 251 -20 c 0,24,25
 204 -24 204 -24 163 -13 c 0,26,27
 128 -4 128 -4 110 23 c 0,28,29
 92 49 92 49 88 89 c 0,30,31
 84 125 84 125 87 159 c 0,32,33
 90 192 90 192 97 223 c 0,34,35
 109 275 109 275 117 335 c 0,36,37
 121 361 121 361 137 432 c 0,38,39
 142 455 142 455 145 481 c 0,40,41
 145 483 145 483 150 520 c 0,42,43
 162 615 162 615 164 666 c 0,44,45
 165 700 165 700 163 745 c 0,46,47
 161 787 161 787 158 789 c 0,48,49
 158 789 158 789 143 783 c 0,50,51
 126 776 126 776 108 777 c 0,52,53
 86 778 86 778 81 783 c 0,54,55
 65 798 65 798 50 771 c 0,56,57
 45 762 45 762 40 762 c 128,-1,58
 35 762 35 762 35 775 c 0,59,60
 35 785 35 785 42 795 c 0,61,62
 49 804 49 804 64 812 c 0,63,64
 78 819 78 819 89 816 c 0,65,66
 98 813 98 813 102 809 c 128,-1,67
 106 805 106 805 115 803 c 0,68,69
 130 800 130 800 159 822 c 0,70,71
 171 831 171 831 181 833 c 0,72,73
 187 834 187 834 189 829 c 0,74,75
 190 827 190 827 191 824 c 0,76,77
 195 811 195 811 197 753 c 0,78,79
 199 690 199 690 196 620 c 0,80,81
 193 562 193 562 187 514 c 0,82,83
 180 458 180 458 166 397 c 0,84,85
 164 388 164 388 158 359 c 0,86,87
 153 338 153 338 149 320 c 0,88,89
 142 288 142 288 138 263 c 0,90,91
 137 254 137 254 131 230 c 0,92,93
 130 226 130 226 124 175 c 0,94,95
 119 133 119 133 119 103 c 0,96,97
 119 60 119 60 137 41 c 0,98,99
 161 16 161 16 194 10 c 0,100,101
 215 6 215 6 251 6 c 0,102,103
 292 6 292 6 317 17 c 0,104,105
 364 37 364 37 382 58 c 0,106,107
 415 96 415 96 425 113 c 0,108,109
 432 126 432 126 442 141 c 0,110,111
 455 161 455 161 478 232 c 0,112,113
 502 307 502 307 512 358 c 0,114,115
 517 383 517 383 522 404 c 0,116,117
 526 418 526 418 529 439 c 0,118,119
 531 453 531 453 534 465 c 0,120,121
 543 505 543 505 547 562 c 0,122,123
 556 686 556 686 563 734 c 0,124,125
 566 751 566 751 569 789 c 0,126,127
 571 812 571 812 575 817 c 0,128,129
 580 823 580 823 592 819 c 0,130,131
 602 816 602 816 604 809 c 128,-1,132
 606 802 606 802 608 777 c 0,133,134
 610 748 610 748 602 662 c 0,135,136
 594 581 594 581 585 524 c 0,137,138
 584 521 584 521 580 485 c 0,139,140
 578 468 578 468 570 431 c 0,141,142
 563 398 563 398 563 390 c 0,143,144
 563 387 563 387 553 333 c 0,145,146
 540 263 540 263 539 239 c 0,147,148
 538 218 538 218 535 167 c 0,149,150
 532 112 532 112 533 90 c 0,151,152
 534 52 534 52 553 28 c 0,153,154
 568 9 568 9 585 5 c 0,155,156
 601 1 601 1 618 8 c 0,157,158
 633 14 633 14 652 29 c 0,159,160
 705 60 705 60 742 96 c 0,161,162
 767 120 767 120 768 104 c 0,163,164
 768 103 768 103 768 101 c 0,165,166
 768 92 768 92 744 69 c 0,167,168
 705 31 705 31 677 12 c 0,169,170
 656 -2 656 -2 615 -16 c 0,171,172
 591 -24 591 -24 574 -24 c 0,173,174
 555 -24 555 -24 536.043945312 -6.15625 c 0,175,176
 519.057617188 9.833984375 519.057617188 9.833984375 511 33 c 0,0,1
305.588867188 895.318359375 m 0,177,178
 285.338867188 924.954101562 285.338867188 924.954101562 298.40625 931.946289062 c 0,179,180
 304.864257812 936.221679688 304.864257812 936.221679688 315.407226562 933.794921875 c 128,-1,181
 325.951171875 931.368164062 325.951171875 931.368164062 332.30859375 922.127929688 c 0,182,183
 347.387695312 897.55859375 347.387695312 897.55859375 376.454101562 895.314453125 c 128,-1,184
 405.51953125 893.0703125 405.51953125 893.0703125 428.254882812 906.629882812 c 0,185,186
 461.659179688 923.124023438 461.659179688 923.124023438 461.659179688 910.51953125 c 0,187,188
 461.659179688 905.025390625 461.659179688 905.025390625 448.643554688 894.676757812 c 128,-1,189
 435.62890625 884.327148438 435.62890625 884.327148438 416.6796875 874.75390625 c 0,190,191
 388.46875 858.9296875 388.46875 858.9296875 356.567382812 863.517578125 c 128,-1,192
 324.666015625 868.10546875 324.666015625 868.10546875 305.588867188 895.318359375 c 0,177,178
EndSplineSet
Validated: 33
EndChar

StartChar: uni041A
Encoding: 186 1050 17
Width: 741
Flags: W
LayerCount: 2
Fore
SplineSet
201.676757812 833.711914062 m 0,0,1
 211.647460938 836.180664062 211.647460938 836.180664062 217.6953125 832.65625 c 128,-1,2
 223.7421875 829.1328125 223.7421875 829.1328125 225.463867188 821.762695312 c 128,-1,3
 227.185546875 814.393554688 227.185546875 814.393554688 227.834960938 805.106445312 c 128,-1,4
 228.483398438 795.819335938 228.483398438 795.819335938 227.65625 786.760742188 c 128,-1,5
 226.829101562 777.703125 226.829101562 777.703125 227.779296875 770.802734375 c 0,6,7
 228.291992188 749.529296875 228.291992188 749.529296875 227.965820312 669.291015625 c 128,-1,8
 227.638671875 589.053710938 227.638671875 589.053710938 228.696289062 567.798828125 c 1,9,10
 233.315429688 574.0703125 233.315429688 574.0703125 249.971679688 597.284179688 c 128,-1,11
 266.626953125 620.498046875 266.626953125 620.498046875 275.495117188 632.229492188 c 128,-1,12
 284.36328125 643.959960938 284.36328125 643.959960938 300.083007812 662.28515625 c 128,-1,13
 315.802734375 680.609375 315.802734375 680.609375 330.5390625 694.389648438 c 0,14,15
 369.114257812 730.462890625 369.114257812 730.462890625 420.060546875 762.568359375 c 128,-1,16
 471.005859375 794.672851562 471.005859375 794.672851562 515.55859375 802.376953125 c 0,17,18
 517.657226562 802.798828125 517.657226562 802.798828125 538.959960938 807.263671875 c 128,-1,19
 560.26171875 811.728515625 560.26171875 811.728515625 566.546875 812.705078125 c 0,20,21
 572.83203125 814 572.83203125 814 589.787109375 815.708007812 c 0,22,23
 606.741210938 817.734375 606.741210938 817.734375 615.899414062 816.803710938 c 128,-1,24
 625.05859375 815.872070312 625.05859375 815.872070312 638.556640625 813.266601562 c 128,-1,25
 652.0546875 810.661132812 652.0546875 810.661132812 663.244140625 805.288085938 c 0,26,27
 686.858398438 787.181640625 686.858398438 787.181640625 657.412109375 776.6640625 c 0,28,29
 637.405273438 769.51953125 637.405273438 769.51953125 630.025390625 774.068359375 c 0,30,31
 625.9921875 776.553710938 625.9921875 776.553710938 637.55859375 782.154296875 c 0,32,33
 638.896484375 782.801757812 638.896484375 782.801757812 640.43359375 783.478515625 c 0,34,35
 663.83203125 793 663.83203125 793 638.28125 797.934570312 c 0,36,37
 620.83203125 800 620.83203125 800 587.116210938 795.056640625 c 1,38,39
 552.327148438 790.5703125 552.327148438 790.5703125 520.09765625 779.20703125 c 128,-1,40
 487.868164062 767.84375 487.868164062 767.84375 451.9765625 745.388671875 c 128,-1,41
 416.0859375 722.934570312 416.0859375 722.934570312 397.0625 709.311523438 c 128,-1,42
 378.038085938 695.689453125 378.038085938 695.689453125 336.528320312 664.083984375 c 0,43,44
 316.244140625 645.935546875 316.244140625 645.935546875 286.419921875 604.344726562 c 128,-1,45
 256.595703125 562.754882812 256.595703125 562.754882812 240.362304688 533.264648438 c 0,46,47
 230.349609375 507.524414062 230.349609375 507.524414062 229.368164062 456.40234375 c 128,-1,48
 228.38671875 405.279296875 228.38671875 405.279296875 227.084960938 395.16015625 c 0,49,50
 226.506835938 387.740234375 226.506835938 387.740234375 225.41796875 373.616210938 c 0,51,52
 220.842773438 314.2890625 220.842773438 314.2890625 218.036132812 285.580078125 c 128,-1,53
 215.228515625 256.870117188 215.228515625 256.870117188 208.241210938 213.891601562 c 128,-1,54
 201.25390625 170.913085938 201.25390625 170.913085938 189.73828125 123.034179688 c 0,55,56
 167.790039062 49.3349609375 167.790039062 49.3349609375 119.044921875 -0.138671875 c 0,57,58
 98.005859375 -20.7041015625 98.005859375 -20.7041015625 71.76171875 -8.22265625 c 128,-1,59
 45.5185546875 4.2587890625 45.5185546875 4.2587890625 40.3134765625 31.55078125 c 0,60,61
 35.7578125 47.3486328125 35.7578125 47.3486328125 35.11328125 64.048828125 c 128,-1,62
 34.4677734375 80.7490234375 34.4677734375 80.7490234375 37.4951171875 97.9404296875 c 128,-1,63
 40.5234375 115.1328125 40.5234375 115.1328125 44.1171875 129.171875 c 128,-1,64
 47.7099609375 143.209960938 47.7099609375 143.209960938 53.2138671875 162.486328125 c 128,-1,65
 58.716796875 181.763671875 58.716796875 181.763671875 61.439453125 193.831054688 c 0,66,67
 69.568359375 222.747070312 69.568359375 222.747070312 79.37109375 248.291015625 c 128,-1,68
 89.173828125 273.834960938 89.173828125 273.834960938 103.793945312 307.033203125 c 128,-1,69
 118.413085938 340.23046875 118.413085938 340.23046875 125.56640625 357.936523438 c 0,70,71
 136.151367188 384.133789062 136.151367188 384.133789062 157.5625 426.337890625 c 128,-1,72
 178.973632812 468.54296875 178.973632812 468.54296875 189.810546875 499.327148438 c 1,73,74
 189.836914062 518.740234375 189.836914062 518.740234375 190.618164062 587.506835938 c 128,-1,75
 191.399414062 656.272460938 191.399414062 656.272460938 191.159179688 708.440429688 c 128,-1,76
 190.918945312 760.609375 190.918945312 760.609375 188.9296875 796.436523438 c 1,77,78
 176.271484375 785.301757812 176.271484375 785.301757812 157.877929688 785.326171875 c 128,-1,79
 139.483398438 785.3515625 139.483398438 785.3515625 125.731445312 789.731445312 c 128,-1,80
 111.979492188 794.111328125 111.979492188 794.111328125 96.498046875 789.275390625 c 1,81,82
 89.74609375 769.041992188 89.74609375 769.041992188 80.458984375 773.630859375 c 0,83,84
 70.1318359375 778.733398438 70.1318359375 778.733398438 77.39453125 794.233398438 c 0,85,86
 79.2705078125 798.23828125 79.2705078125 798.23828125 82.556640625 801.771484375 c 0,87,88
 89.943359375 812.551757812 89.943359375 812.551757812 100.744140625 816.28125 c 128,-1,89
 111.544921875 820.009765625 111.544921875 820.009765625 117.64453125 819.53515625 c 128,-1,90
 123.744140625 819.060546875 123.744140625 819.060546875 139.639648438 814.323242188 c 128,-1,91
 155.536132812 809.586914062 155.536132812 809.586914062 158.024414062 808.989257812 c 0,92,93
 167.801757812 810.736328125 167.801757812 810.736328125 181.85546875 821.072265625 c 128,-1,94
 195.909179688 831.408203125 195.909179688 831.408203125 201.676757812 833.711914062 c 0,0,1
270.323242188 484.301757812 m 0,95,96
 286.34765625 503.09375 286.34765625 503.09375 303.833984375 511.298828125 c 0,97,98
 310.270507812 514.319335938 310.270507812 514.319335938 310.095703125 510.279296875 c 128,-1,99
 309.912109375 506.05859375 309.912109375 506.05859375 302.393554688 494.399414062 c 0,100,101
 300.337890625 485.409179688 300.337890625 485.409179688 317.83984375 490.608398438 c 0,102,103
 324.454101562 492.573242188 324.454101562 492.573242188 340.568359375 498.912109375 c 0,104,105
 367.32421875 509.438476562 367.32421875 509.438476562 374.794921875 509.53125 c 0,106,107
 401.500976562 518.053710938 401.500976562 518.053710938 432.661132812 507.245117188 c 128,-1,108
 463.821289062 496.436523438 463.821289062 496.436523438 484.716796875 474.15625 c 0,109,110
 517.404296875 439.302734375 517.404296875 439.302734375 512.961914062 360.546875 c 0,111,112
 511.602539062 339.044921875 511.602539062 339.044921875 503.515625 278.771484375 c 128,-1,113
 495.428710938 218.498046875 495.428710938 218.498046875 495.888671875 176.479492188 c 128,-1,114
 496.348632812 134.4609375 496.348632812 134.4609375 509.243164062 95.47265625 c 0,115,116
 519.123046875 58.9921875 519.123046875 58.9921875 547.294921875 33.3720703125 c 128,-1,117
 575.466796875 7.7529296875 575.466796875 7.7529296875 609.868164062 15.0498046875 c 0,118,119
 619.049804688 15.43359375 619.049804688 15.43359375 647.662109375 19.927734375 c 0,120,121
 706.315429688 29.1396484375 706.315429688 29.1396484375 706.920898438 21.4697265625 c 0,122,123
 707.006835938 20.3798828125 707.006835938 20.3798828125 706.2890625 18.9892578125 c 0,124,125
 700.62890625 8.0263671875 700.62890625 8.0263671875 662.977539062 -0.2900390625 c 128,-1,126
 625.326171875 -8.6064453125 625.326171875 -8.6064453125 588.272460938 -11.384765625 c 0,127,128
 560.08203125 -13.498046875 560.08203125 -13.498046875 534.922851562 1.484375 c 128,-1,129
 509.762695312 16.466796875 509.762695312 16.466796875 492.612304688 41.6103515625 c 0,130,131
 457.384765625 96.6748046875 457.384765625 96.6748046875 463.25 203.870117188 c 0,132,133
 463.0859375 221.96484375 463.0859375 221.96484375 464.65625 241.200195312 c 128,-1,134
 466.225585938 260.435546875 466.225585938 260.435546875 469.422851562 286.586914062 c 128,-1,135
 472.620117188 312.737304688 472.620117188 312.737304688 473.690429688 323.58984375 c 0,136,137
 473.15625 335.610351562 473.15625 335.610351562 474.965820312 361.026367188 c 128,-1,138
 476.775390625 386.442382812 476.775390625 386.442382812 475.163085938 406.041015625 c 128,-1,139
 473.55078125 425.639648438 473.55078125 425.639648438 465.301757812 442.825195312 c 0,140,141
 452.098632812 470.331054688 452.098632812 470.331054688 418.234375 479.797851562 c 128,-1,142
 384.370117188 489.264648438 384.370117188 489.264648438 358.4296875 477.325195312 c 0,143,144
 332.341796875 469.234375 332.341796875 469.234375 263.817382812 431.794921875 c 0,145,146
 240.145507812 419.063476562 240.145507812 419.063476562 236.794921875 438.448242188 c 0,147,148
 233.397460938 458.099609375 233.397460938 458.099609375 251.223632812 470.055664062 c 0,149,150
 254.70703125 472.391601562 254.70703125 472.391601562 258.629882812 473.568359375 c 0,151,152
 263.91015625 478.4765625 263.91015625 478.4765625 270.323242188 484.301757812 c 0,95,96
187.739257812 417.19921875 m 1,153,154
 172.19921875 371.401367188 172.19921875 371.401367188 133.237304688 281.177734375 c 128,-1,155
 94.2763671875 190.954101562 94.2763671875 190.954101562 76.779296875 125.380859375 c 0,156,157
 49.734375 43.474609375 49.734375 43.474609375 82.2705078125 10.0439453125 c 1,158,159
 99.3544921875 7.1953125 99.3544921875 7.1953125 110.21875 19.6376953125 c 128,-1,160
 121.08203125 32.0810546875 121.08203125 32.0810546875 130.825195312 59.3447265625 c 128,-1,161
 140.568359375 86.609375 140.568359375 86.609375 143.233398438 91.6396484375 c 0,162,163
 155.823242188 126.056640625 155.823242188 126.056640625 162.708007812 158.21875 c 128,-1,164
 169.592773438 190.380859375 169.592773438 190.380859375 176.249023438 242.03515625 c 128,-1,165
 182.905273438 293.688476562 182.905273438 293.688476562 185.618164062 310.650390625 c 0,166,167
 189.08203125 366.399414062 189.08203125 366.399414062 187.739257812 417.19921875 c 1,153,154
EndSplineSet
Validated: 33
EndChar

StartChar: uni041B
Encoding: 187 1051 18
Width: 833
Flags: W
LayerCount: 2
Fore
SplineSet
662.3515625 830.107421875 m 0,0,1
 666.853515625 830.184570312 666.853515625 830.184570312 669.068359375 828.346679688 c 0,2,3
 676.439453125 822.228515625 676.439453125 822.228515625 670.522460938 776.708984375 c 0,4,5
 665.844726562 740.736328125 665.844726562 740.736328125 658.576171875 607.021484375 c 1,6,7
 640.975585938 404.622070312 640.975585938 404.622070312 640.74609375 226.017578125 c 1,8,-1
 640.73046875 226.631835938 l 2,9,10
 640.825195312 248.323242188 640.825195312 248.323242188 641.138671875 226.260742188 c 0,11,12
 641.333007812 212.567382812 641.333007812 212.567382812 641.592773438 181.944335938 c 2,13,-1
 641.875976562 148.515625 l 1,14,15
 638.34375 71.8193359375 638.34375 71.8193359375 654.986328125 38.283203125 c 0,16,17
 660.919921875 19.4833984375 660.919921875 19.4833984375 690.802734375 18.0693359375 c 128,-1,18
 720.684570312 16.65625 720.684570312 16.65625 755.465820312 23.5693359375 c 128,-1,19
 790.247070312 30.482421875 790.247070312 30.482421875 794.559570312 29.85546875 c 0,20,21
 807.524414062 19.5791015625 807.524414062 19.5791015625 777.86328125 12.095703125 c 0,22,23
 761.825195312 8.048828125 761.825195312 8.048828125 731.41796875 4.263671875 c 0,24,25
 727.858398438 3.8203125 727.858398438 3.8203125 719.703125 2.392578125 c 128,-1,26
 711.547851562 0.9638671875 711.547851562 0.9638671875 706.474609375 0.400390625 c 128,-1,27
 701.401367188 -0.1640625 701.401367188 -0.1640625 691.270507812 0.138671875 c 128,-1,28
 681.140625 0.44140625 681.140625 0.44140625 669.083007812 2.345703125 c 0,29,30
 647.51953125 5.751953125 647.51953125 5.751953125 634.224609375 18.9951171875 c 128,-1,31
 620.9296875 32.2392578125 620.9296875 32.2392578125 616.618164062 49.7587890625 c 0,32,33
 607.604492188 89.603515625 607.604492188 89.603515625 605.541015625 131.463867188 c 128,-1,34
 603.478515625 173.32421875 603.478515625 173.32421875 606.064453125 241.034179688 c 128,-1,35
 608.651367188 308.745117188 608.651367188 308.745117188 608.78125 324.450195312 c 0,36,37
 610.91015625 373.291992188 610.91015625 373.291992188 618.046875 477.810546875 c 128,-1,38
 625.18359375 582.330078125 625.18359375 582.330078125 626.694335938 643.708984375 c 2,39,-1
 627.697265625 674.07421875 l 1,40,-1
 619.993164062 647.409179688 l 1,41,42
 576.43359375 477.407226562 576.43359375 477.407226562 503.96484375 330.801757812 c 0,43,44
 499.012695312 320.985351562 499.012695312 320.985351562 482.20703125 292.990234375 c 0,45,46
 467.900390625 269.701171875 467.900390625 269.701171875 445.608398438 232.314453125 c 2,47,-1
 385.217773438 147.770507812 l 1,48,49
 348.518554688 111.181640625 348.518554688 111.181640625 326.215820312 90.41015625 c 128,-1,50
 303.913085938 69.6396484375 303.913085938 69.6396484375 266.995117188 42.9111328125 c 128,-1,51
 230.078125 16.1826171875 230.078125 16.1826171875 198.354492188 4.259765625 c 0,52,53
 180.526367188 -2.2197265625 180.526367188 -2.2197265625 170.286132812 -3.6865234375 c 128,-1,54
 160.044921875 -5.154296875 160.044921875 -5.154296875 127.364257812 -5.912109375 c 0,55,56
 81.7236328125 -5.87890625 81.7236328125 -5.87890625 54.54296875 15.70703125 c 128,-1,57
 27.3623046875 37.2919921875 27.3623046875 37.2919921875 37.984375 79.4619140625 c 0,58,59
 39.9189453125 86.4208984375 39.9189453125 86.4208984375 46.740234375 86.4208984375 c 0,60,61
 51.1591796875 86.4208984375 51.1591796875 86.4208984375 52.7607421875 84.21484375 c 128,-1,62
 54.36328125 82.0087890625 54.36328125 82.0087890625 55.8369140625 73.89453125 c 0,63,64
 62.2763671875 40.6806640625 62.2763671875 40.6806640625 78.6640625 27.7958984375 c 128,-1,65
 95.0517578125 14.91015625 95.0517578125 14.91015625 125.96875 16.3330078125 c 0,66,67
 178.72265625 18.435546875 178.72265625 18.435546875 215.599609375 38.9833984375 c 0,68,69
 290.95703125 86.3173828125 290.95703125 86.3173828125 360.268554688 165.228515625 c 128,-1,70
 429.580078125 244.140625 429.580078125 244.140625 482.067382812 348.83984375 c 0,71,72
 496.650390625 378.049804688 496.650390625 378.049804688 516.107421875 420.49609375 c 0,73,74
 589.034179688 597.256835938 589.034179688 597.256835938 617.338867188 697.270507812 c 0,75,76
 617.338867188 704.66015625 617.338867188 704.66015625 622.908203125 720.501953125 c 128,-1,77
 628.478515625 736.352539062 628.478515625 736.352539062 631.204101562 753.8125 c 128,-1,78
 633.926757812 771.271484375 633.926757812 771.271484375 638.063476562 789.372070312 c 128,-1,79
 642.19921875 807.46875 642.19921875 807.46875 642.296875 816.173828125 c 0,80,81
 642.364257812 821.947265625 642.364257812 821.947265625 648.89453125 825.966796875 c 128,-1,82
 655.424804688 829.986328125 655.424804688 829.986328125 662.3515625 830.107421875 c 0,0,1
EndSplineSet
Validated: 41
EndChar

StartChar: uni041C
Encoding: 188 1052 19
Width: 1044
Flags: W
LayerCount: 2
Fore
SplineSet
535.022460938 788.993164062 m 128,-1,1
 539.1953125 807.260742188 539.1953125 807.260742188 539.279296875 814.56640625 c 128,-1,2
 539.36328125 821.87109375 539.36328125 821.87109375 549.334960938 828.008789062 c 128,-1,3
 559.305664062 834.147460938 559.305664062 834.147460938 566.53125 828.150390625 c 128,-1,4
 573.756835938 822.154296875 573.756835938 822.154296875 568.408203125 781.0234375 c 128,-1,5
 563.060546875 739.892578125 563.060546875 739.892578125 555.725585938 604.948242188 c 1,6,7
 538.344726562 405.087890625 538.344726562 405.087890625 537.762695312 227.30859375 c 1,8,-1
 538.583984375 175.920898438 l 1,9,-1
 538.870117188 142.181640625 l 1,10,11
 533.997070312 36.3486328125 533.997070312 36.3486328125 572.274414062 20.83984375 c 1,12,13
 602.662109375 32.3369140625 602.662109375 32.3369140625 631.116210938 66.8740234375 c 0,14,15
 633.916015625 71.4580078125 633.916015625 71.4580078125 650.420898438 98.3134765625 c 128,-1,16
 666.926757812 125.169921875 666.926757812 125.169921875 680.48828125 157.1484375 c 128,-1,17
 694.05078125 189.126953125 694.05078125 189.126953125 717.858398438 274.182617188 c 128,-1,18
 741.666015625 359.239257812 741.666015625 359.239257812 777.327148438 500.59375 c 128,-1,19
 812.98828125 641.94921875 812.98828125 641.94921875 827.146484375 696.036132812 c 0,20,21
 827.146484375 703.493164062 827.146484375 703.493164062 832.767578125 719.483398438 c 128,-1,22
 838.391601562 735.486328125 838.391601562 735.486328125 841.140625 753.103515625 c 128,-1,23
 843.88671875 770.709960938 843.88671875 770.709960938 848.063476562 788.993164062 c 128,-1,24
 852.23828125 807.260742188 852.23828125 807.260742188 852.321289062 814.565429688 c 128,-1,25
 852.404296875 821.87109375 852.404296875 821.87109375 862.375976562 828.008789062 c 128,-1,26
 872.34765625 834.147460938 872.34765625 834.147460938 879.572265625 828.151367188 c 128,-1,27
 886.796875 822.155273438 886.796875 822.155273438 881.450195312 781.02734375 c 128,-1,28
 876.102539062 739.899414062 876.102539062 739.899414062 868.766601562 604.948242188 c 1,29,30
 851.50390625 406.4296875 851.50390625 406.4296875 850.841796875 228.926757812 c 1,31,-1
 851.625976562 175.920898438 l 1,32,-1
 851.912109375 142.181640625 l 1,33,34
 848.34765625 64.771484375 848.34765625 64.771484375 865.143554688 30.92578125 c 1,35,36
 875.541992188 -2.015625 875.541992188 -2.015625 966.557617188 16.0751953125 c 0,37,38
 1001.66210938 23.0517578125 1001.66210938 23.0517578125 1006.01367188 22.419921875 c 0,39,40
 1019.16601562 11.9951171875 1019.16601562 11.9951171875 988.841796875 4.4130859375 c 0,41,42
 972.682617188 0.373046875 972.682617188 0.373046875 955.6875 -1.7421875 c 128,-1,43
 938.693359375 -3.857421875 938.693359375 -3.857421875 930.461914062 -5.298828125 c 128,-1,44
 922.231445312 -6.740234375 922.231445312 -6.740234375 912.244140625 -7.8505859375 c 128,-1,45
 902.2578125 -8.9599609375 902.2578125 -8.9599609375 879.932617188 -5.4345703125 c 128,-1,46
 857.607421875 -1.908203125 857.607421875 -1.908203125 844.189453125 11.4580078125 c 128,-1,47
 830.770507812 24.8251953125 830.770507812 24.8251953125 825.075195312 49.2255859375 c 128,-1,48
 819.380859375 73.6259765625 819.380859375 73.6259765625 816.686523438 111.998046875 c 128,-1,49
 813.993164062 150.369140625 813.993164062 150.369140625 814.534179688 178.647460938 c 128,-1,50
 815.075195312 206.926757812 815.075195312 206.926757812 816.697265625 251.825195312 c 128,-1,51
 818.3203125 296.72265625 818.3203125 296.72265625 819.571289062 334.758789062 c 128,-1,52
 820.822265625 372.793945312 820.822265625 372.793945312 827.9609375 460.581054688 c 128,-1,53
 835.100585938 548.368164062 835.100585938 548.368164062 836.588867188 608.831054688 c 2,54,-1
 837.6015625 639.478515625 l 1,55,56
 817.158203125 558.27734375 817.158203125 558.27734375 782.625976562 435.013671875 c 128,-1,57
 748.09375 311.749023438 748.09375 311.749023438 737.827148438 273.4140625 c 0,58,59
 719.565429688 194.708007812 719.565429688 194.708007812 691.653320312 134.11328125 c 0,60,61
 686.1875 122.247070312 686.1875 122.247070312 665.911132812 88.767578125 c 128,-1,62
 645.635742188 55.287109375 645.635742188 55.287109375 638.122070312 47.3291015625 c 128,-1,63
 630.608398438 39.37109375 630.608398438 39.37109375 627.177734375 35.6982421875 c 128,-1,64
 623.747070312 32.025390625 623.747070312 32.025390625 622.638671875 30.890625 c 128,-1,65
 621.530273438 29.755859375 621.530273438 29.755859375 617.784179688 26.064453125 c 128,-1,66
 614.038085938 22.3720703125 614.038085938 22.3720703125 611.9921875 20.7314453125 c 128,-1,67
 609.946289062 19.091796875 609.946289062 19.091796875 605.81640625 15.7626953125 c 128,-1,68
 601.686523438 12.4326171875 601.686523438 12.4326171875 598.635742188 10.6689453125 c 0,69,70
 530.854492188 -28.5078125 530.854492188 -28.5078125 513.377929688 42.5078125 c 0,71,72
 500.018554688 101.567382812 500.018554688 101.567382812 501.025390625 154.247070312 c 128,-1,73
 502.033203125 206.926757812 502.033203125 206.926757812 503.655273438 251.825195312 c 128,-1,74
 505.278320312 296.72265625 505.278320312 296.72265625 506.48828125 333.833984375 c 128,-1,75
 507.69921875 370.944335938 507.69921875 370.944335938 514.869140625 468.466796875 c 128,-1,76
 522.040039062 565.98828125 522.040039062 565.98828125 523.546875 627.245117188 c 1,77,-1
 524.559570312 641.3203125 l 1,78,-1
 514.942382812 594.151367188 l 2,79,80
 485.03515625 447.465820312 485.03515625 447.465820312 445.151367188 354.025390625 c 0,81,82
 424.744140625 306.213867188 424.744140625 306.213867188 411.416992188 271.254882812 c 128,-1,83
 398.08984375 236.295898438 398.08984375 236.295898438 390.293945312 217.111328125 c 128,-1,84
 382.498046875 197.926757812 382.498046875 197.926757812 369.546875 169.221679688 c 0,85,86
 321.81640625 63.4296875 321.81640625 63.4296875 229.333007812 7.634765625 c 1,87,88
 184.40234375 -8.6943359375 184.40234375 -8.6943359375 132.940429688 -9.3291015625 c 128,-1,89
 81.478515625 -9.9638671875 81.478515625 -9.9638671875 54.416015625 10.1083984375 c 128,-1,90
 27.3544921875 30.1806640625 27.3544921875 30.1806640625 38.0107421875 72.4873046875 c 0,91,92
 39.9619140625 79.5107421875 39.9619140625 79.5107421875 45.634765625 79.5107421875 c 128,-1,93
 51.3076171875 79.5107421875 51.3076171875 79.5107421875 52.9248046875 77.2841796875 c 128,-1,94
 54.5419921875 75.0576171875 54.5419921875 75.0576171875 56.029296875 66.8671875 c 0,95,96
 62.5283203125 33.345703125 62.5283203125 33.345703125 79.068359375 20.33984375 c 128,-1,97
 95.6083984375 7.3349609375 95.6083984375 7.3349609375 126.8125 8.7705078125 c 0,98,99
 128.766601562 8.8486328125 128.766601562 8.8486328125 137.176757812 9.1298828125 c 128,-1,100
 145.586914062 9.4111328125 145.586914062 9.4111328125 147.850585938 9.5546875 c 128,-1,101
 150.114257812 9.697265625 150.114257812 9.697265625 157.828125 10.3232421875 c 128,-1,102
 165.54296875 10.9501953125 165.54296875 10.9501953125 168.82421875 11.7431640625 c 128,-1,103
 172.106445312 12.537109375 172.106445312 12.537109375 179.651367188 14.0927734375 c 128,-1,104
 187.197265625 15.6474609375 187.197265625 15.6474609375 192.024414062 17.67578125 c 128,-1,105
 196.8515625 19.7041015625 196.8515625 19.7041015625 204.754882812 22.7724609375 c 128,-1,106
 212.659179688 25.8408203125 212.659179688 25.8408203125 226.000976562 33.279296875 c 128,-1,107
 239.341796875 40.7177734375 239.341796875 40.7177734375 252.887695312 49.80078125 c 128,-1,108
 266.43359375 58.8828125 266.43359375 58.8828125 280.278320312 75.853515625 c 128,-1,109
 294.123046875 92.8232421875 294.123046875 92.8232421875 308.794921875 119.40625 c 128,-1,110
 323.466796875 145.98828125 323.466796875 145.98828125 335.512695312 169.87890625 c 128,-1,111
 347.557617188 193.76953125 347.557617188 193.76953125 363.48046875 231.7421875 c 128,-1,112
 379.403320312 269.71484375 379.403320312 269.71484375 388.876953125 293.079101562 c 128,-1,113
 398.350585938 316.443359375 398.350585938 316.443359375 414.750976562 358.359375 c 128,-1,114
 431.15234375 400.275390625 431.15234375 400.275390625 440.940429688 423.19140625 c 128,-1,115
 450.729492188 446.107421875 450.729492188 446.107421875 461.484375 480.190429688 c 128,-1,116
 472.23828125 514.2734375 472.23828125 514.2734375 477.915039062 537.524414062 c 128,-1,117
 483.590820312 560.775390625 483.590820312 560.775390625 495.337890625 613.55078125 c 128,-1,118
 507.0859375 666.326171875 507.0859375 666.326171875 514.104492188 696.036132812 c 0,119,120
 514.104492188 703.48828125 514.104492188 703.48828125 519.725585938 719.483398438 c 128,-1,121
 525.350585938 735.486328125 525.350585938 735.486328125 528.098632812 753.103515625 c 128,-1,0
 530.8515625 770.74609375 530.8515625 770.74609375 535.022460938 788.993164062 c 128,-1,1
EndSplineSet
Validated: 33
EndChar

StartChar: uni041D
Encoding: 189 1053 20
Width: 700
Flags: W
LayerCount: 2
Fore
SplineSet
71.341796875 -8.8251953125 m 0,0,1
 61.0751953125 -6.828125 61.0751953125 -6.828125 56.1416015625 -1.9091796875 c 128,-1,2
 51.2080078125 3.0107421875 51.2080078125 3.0107421875 44.515625 17.9267578125 c 0,3,4
 36.791015625 35.1396484375 36.791015625 35.1396484375 35.2626953125 67.6259765625 c 0,5,6
 33.4267578125 106.640625 33.4267578125 106.640625 44.4384765625 149.809570312 c 0,7,8
 76.31640625 274.77734375 76.31640625 274.77734375 117.012695312 338.688476562 c 0,9,10
 126.076171875 352.922851562 126.076171875 352.922851562 146.176757812 379.513671875 c 128,-1,11
 166.276367188 406.104492188 166.276367188 406.104492188 174.650390625 414.9375 c 2,12,-1
 182.779296875 423.512695312 l 1,13,-1
 185.250976562 514.333984375 l 2,14,15
 187.72265625 605.157226562 187.72265625 605.157226562 184.874023438 634.848632812 c 128,-1,16
 182.026367188 664.538085938 182.026367188 664.538085938 182.026367188 722.669921875 c 128,-1,17
 182.026367188 780.798828125 182.026367188 780.798828125 179.805664062 782.170898438 c 128,-1,18
 177.583984375 783.541992188 177.583984375 783.541992188 164.357421875 776.766601562 c 128,-1,19
 151.130859375 769.990234375 151.130859375 769.990234375 130.58203125 770.858398438 c 128,-1,20
 110.033203125 771.727539062 110.033203125 771.727539062 104.846679688 776.421875 c 0,21,22
 88.833984375 790.911132812 88.833984375 790.911132812 74.6875 764.536132812 c 0,23,24
 69.8916015625 755.594726562 69.8916015625 755.594726562 64.8369140625 755.594726562 c 128,-1,25
 59.783203125 755.594726562 59.783203125 755.594726562 59.9521484375 768.354492188 c 0,26,27
 60.21875 788.575195312 60.21875 788.575195312 88.494140625 803.962890625 c 0,28,29
 102.037109375 811.333007812 102.037109375 811.333007812 112.159179688 808.30078125 c 128,-1,30
 122.28125 805.268554688 122.28125 805.268554688 125.557617188 801.322265625 c 128,-1,31
 128.833007812 797.375976562 128.833007812 797.375976562 137.616210938 795.728515625 c 0,32,33
 152.090820312 793.012695312 152.090820312 793.012695312 180.290039062 814.53515625 c 0,34,35
 192.796875 824.080078125 192.796875 824.080078125 201.500976562 824.760742188 c 128,-1,36
 210.204101562 825.44140625 210.204101562 825.44140625 214.829101562 816.208007812 c 128,-1,37
 219.454101562 806.9765625 219.454101562 806.9765625 218.326171875 702.03515625 c 128,-1,38
 217.198242188 597.115234375 217.198242188 597.115234375 214.432617188 566.203125 c 128,-1,39
 211.666992188 535.30078125 211.666992188 535.30078125 211.623046875 490.45703125 c 2,40,-1
 211.580078125 445.604492188 l 1,41,-1
 225.6640625 449.786132812 l 2,42,43
 239.75 453.96875 239.75 453.96875 296.426757812 450.612304688 c 0,44,45
 346.094726562 447.671875 346.094726562 447.671875 362.361328125 449.930664062 c 128,-1,46
 378.626953125 452.190429688 378.626953125 452.190429688 407.58984375 466.051757812 c 0,47,48
 431.130859375 477.318359375 431.130859375 477.318359375 445.477539062 491.240234375 c 128,-1,49
 459.82421875 505.162109375 459.82421875 505.162109375 472.319335938 528.865234375 c 0,50,51
 491.3203125 564.91015625 491.3203125 564.91015625 495.546875 579.766601562 c 128,-1,52
 499.774414062 594.623046875 499.774414062 594.623046875 503.08984375 637.001953125 c 0,53,54
 507.111328125 688.431640625 507.111328125 688.431640625 507.139648438 743.505859375 c 0,55,56
 507.157226562 782.788085938 507.157226562 782.788085938 508.080078125 792.655273438 c 128,-1,57
 509.00390625 802.5234375 509.00390625 802.5234375 513.580078125 812.3515625 c 0,58,59
 518.784179688 823.526367188 518.784179688 823.526367188 522.387695312 826.921875 c 128,-1,60
 525.991210938 830.318359375 525.991210938 830.318359375 536.666992188 834.109375 c 0,61,62
 547.639648438 838.006835938 547.639648438 838.006835938 552.780273438 836.615234375 c 128,-1,63
 557.919921875 835.224609375 557.919921875 835.224609375 567.3359375 825.810546875 c 0,64,65
 579.055664062 814.08984375 579.055664062 814.08984375 581.172851562 802.303710938 c 0,66,67
 592.198242188 740.911132812 592.198242188 740.911132812 541.737304688 634.087890625 c 0,68,69
 531.293945312 611.98046875 531.293945312 611.98046875 531.293945312 591.352539062 c 0,70,71
 531.293945312 551.884765625 531.293945312 551.884765625 520.609375 429.196289062 c 0,72,73
 517.921875 398.331054688 517.921875 398.331054688 515.091796875 345.91796875 c 128,-1,74
 512.265625 293.552734375 512.265625 293.552734375 508.45703125 262.638671875 c 0,75,76
 497.859375 176.645507812 497.859375 176.645507812 499.595703125 98.3134765625 c 2,77,-1
 500.853515625 41.5419921875 l 1,78,-1
 511.939453125 31.2021484375 l 2,79,80
 523.025390625 20.8623046875 523.025390625 20.8623046875 534.345703125 20.8623046875 c 0,81,82
 571.860351562 20.8623046875 571.860351562 20.8623046875 630.700195312 63.75390625 c 0,83,84
 665.626953125 89.2158203125 665.626953125 89.2158203125 665.626953125 82.8583984375 c 0,85,86
 665.626953125 70.9912109375 665.626953125 70.9912109375 634.645507812 44.4619140625 c 128,-1,87
 603.6640625 17.9326171875 603.6640625 17.9326171875 571.950195312 2.64453125 c 0,88,89
 535.939453125 -14.71484375 535.939453125 -14.71484375 507.616210938 0.7001953125 c 0,90,91
 486.268554688 12.3173828125 486.268554688 12.3173828125 474.12890625 39.041015625 c 0,92,93
 468.3515625 51.7578125 468.3515625 51.7578125 467.299804688 114.216796875 c 128,-1,94
 466.24609375 176.672851562 466.24609375 176.672851562 469.28515625 202.868164062 c 128,-1,95
 472.32421875 229.05859375 472.32421875 229.05859375 476.266601562 297.5625 c 128,-1,96
 480.208007812 366.064453125 480.208007812 366.064453125 482.802734375 384.870117188 c 128,-1,97
 485.3984375 403.690429688 485.3984375 403.690429688 488.274414062 448.000976562 c 128,-1,98
 491.153320312 492.341796875 491.153320312 492.341796875 492.595703125 507.1015625 c 2,99,-1
 494.038085938 521.876953125 l 1,100,-1
 485.147460938 505.94921875 l 2,101,102
 462.762695312 465.841796875 462.762695312 465.841796875 418.045898438 444.385742188 c 0,103,104
 388.55078125 430.233398438 388.55078125 430.233398438 365.250976562 427.676757812 c 128,-1,105
 341.951171875 425.120117188 341.951171875 425.120117188 281.302734375 429.379882812 c 0,106,107
 240.4453125 432.249023438 240.4453125 432.249023438 232.728515625 429.379882812 c 0,108,109
 223.916992188 426.100585938 223.916992188 426.100585938 216.953125 423.497070312 c 2,110,-1
 208.892578125 420.485351562 l 1,111,-1
 208.87890625 393.275390625 l 2,112,113
 208.868164062 373.138671875 208.868164062 373.138671875 204.15234375 319.69921875 c 128,-1,114
 199.435546875 266.259765625 199.435546875 266.259765625 195.720703125 244.192382812 c 0,115,116
 193.173828125 229.06640625 193.173828125 229.06640625 191.438476562 212.940429688 c 0,117,118
 188.139648438 182.26171875 188.139648438 182.26171875 171.344726562 128.318359375 c 0,119,120
 163.170898438 102.067382812 163.170898438 102.067382812 155.209960938 76.451171875 c 0,121,122
 147.020507812 50.10546875 147.020507812 50.10546875 139.224609375 34.8125 c 0,123,124
 132.369140625 21.365234375 132.369140625 21.365234375 119.2109375 8.130859375 c 128,-1,125
 106.052734375 -5.103515625 106.052734375 -5.103515625 96.3232421875 -8.337890625 c 0,126,127
 86.1787109375 -11.7099609375 86.1787109375 -11.7099609375 71.341796875 -8.8251953125 c 0,0,1
94.6484375 21.2744140625 m 0,128,129
 107.978515625 33.4560546875 107.978515625 33.4560546875 114.00390625 44.267578125 c 128,-1,130
 120.029296875 55.0791015625 120.029296875 55.0791015625 128.34765625 81.7451171875 c 0,131,132
 136.170898438 106.823242188 136.170898438 106.823242188 145.788085938 137.721679688 c 0,133,134
 160.961914062 186.471679688 160.961914062 186.471679688 164.575195312 218.313476562 c 0,135,136
 166.411132812 234.4765625 166.411132812 234.4765625 170.015625 258.609375 c 0,137,138
 173.794921875 283.91015625 173.794921875 283.91015625 178.09375 330.911132812 c 128,-1,139
 182.393554688 377.913085938 182.393554688 377.913085938 181.581054688 385.043945312 c 0,140,141
 180.823242188 391.694335938 180.823242188 391.694335938 175.271484375 385.291992188 c 0,142,143
 172.077148438 381.608398438 172.077148438 381.608398438 161.875976562 368.189453125 c 0,144,145
 128.495117188 324.276367188 128.495117188 324.276367188 110.978515625 288.177734375 c 128,-1,146
 93.4619140625 252.079101562 93.4619140625 252.079101562 74.16015625 187.419921875 c 0,147,148
 51.654296875 112.029296875 51.654296875 112.029296875 57.9970703125 53.9462890625 c 0,149,150
 62.8623046875 9.392578125 62.8623046875 9.392578125 77.701171875 7.642578125 c 0,151,152
 79.5 7.431640625 79.5 7.431640625 94.6484375 21.2744140625 c 0,128,129
551.16796875 708.21875 m 0,153,154
 561.7421875 741.6875 561.7421875 741.6875 564.969726562 770.966796875 c 128,-1,155
 568.198242188 800.245117188 568.198242188 800.245117188 561.998046875 806.444335938 c 0,156,157
 557.935546875 810.506835938 557.935546875 810.506835938 555.383789062 810.36328125 c 128,-1,158
 552.833007812 810.220703125 552.833007812 810.220703125 547.140625 805.612304688 c 0,159,160
 542.7109375 802.025390625 542.7109375 802.025390625 541.526367188 794.912109375 c 128,-1,161
 540.341796875 787.797851562 540.341796875 787.797851562 538.9765625 756.5859375 c 0,162,163
 537.051757812 712.616210938 537.051757812 712.616210938 535.391601562 688.434570312 c 2,164,-1
 533.73046875 664.256835938 l 1,165,-1
 539.146484375 675.783203125 l 2,166,167
 544.563476562 687.313476562 544.563476562 687.313476562 551.16796875 708.21875 c 0,153,154
EndSplineSet
Validated: 33
EndChar

StartChar: uni041E
Encoding: 190 1054 21
Width: 614
Flags: W
LayerCount: 2
Fore
SplineSet
238.493164062 -3.244140625 m 0,0,1
 210.291015625 -1.58984375 210.291015625 -1.58984375 192.004882812 5.7353515625 c 0,2,3
 171.48046875 13.9560546875 171.48046875 13.9560546875 148.428710938 30.033203125 c 128,-1,4
 125.375976562 46.1103515625 125.375976562 46.1103515625 117.701171875 56.12109375 c 0,5,6
 66.6005859375 139.528320312 66.6005859375 139.528320312 45.7626953125 208.431640625 c 0,7,8
 34.8603515625 244.481445312 34.8603515625 244.481445312 35.001953125 313.227539062 c 0,9,10
 35.0703125 346.50390625 35.0703125 346.50390625 40.056640625 393.205078125 c 128,-1,11
 45.0419921875 439.905273438 45.0419921875 439.905273438 49.9072265625 452.840820312 c 0,12,13
 52.3916015625 459.446289062 52.3916015625 459.446289062 58.8623046875 484.577148438 c 128,-1,14
 65.3310546875 509.703125 65.3310546875 509.703125 70.705078125 524.248046875 c 128,-1,15
 76.0625 538.745117188 76.0625 538.745117188 80.814453125 552.017578125 c 0,16,17
 103.279296875 614.783203125 103.279296875 614.783203125 119.5234375 641.291015625 c 0,18,19
 140.3671875 675.306640625 140.3671875 675.306640625 165.743164062 708.108398438 c 128,-1,20
 191.118164062 740.91015625 191.118164062 740.91015625 206.1328125 753.247070312 c 0,21,22
 277.259765625 805.396484375 277.259765625 805.396484375 320.854492188 820.03515625 c 0,23,24
 357.16796875 832.141601562 357.16796875 832.141601562 378.405273438 832.9609375 c 128,-1,25
 399.641601562 833.78125 399.641601562 833.78125 416.658203125 823.734375 c 0,26,27
 428.640625 816.66015625 428.640625 816.66015625 437.44140625 812.610351562 c 0,28,29
 446.493164062 808.443359375 446.493164062 808.443359375 452.036132812 799.142578125 c 128,-1,30
 457.579101562 789.841796875 457.579101562 789.841796875 456.03125 781.416015625 c 0,31,32
 454.407226562 772.576171875 454.407226562 772.576171875 459.483398438 771.159179688 c 0,33,34
 480.74609375 765.22265625 480.74609375 765.22265625 496.814453125 752.0859375 c 1,35,36
 521.173828125 722.474609375 521.173828125 722.474609375 541.29296875 674.409179688 c 128,-1,37
 561.411132812 626.34375 561.411132812 626.34375 569.8828125 585.077148438 c 0,38,39
 574.250976562 563.357421875 574.250976562 563.357421875 577.28515625 530.989257812 c 128,-1,40
 580.319335938 498.62109375 580.319335938 498.62109375 579.314453125 446.155273438 c 128,-1,41
 578.30859375 393.690429688 578.30859375 393.690429688 569.969726562 346.892578125 c 0,42,43
 562.19140625 303.2421875 562.19140625 303.2421875 554.575195312 274.321289062 c 0,44,45
 550.396484375 258.45703125 550.396484375 258.45703125 546.786132812 241.262695312 c 0,46,47
 543.538085938 225.797851562 543.538085938 225.797851562 530.477539062 192.8671875 c 128,-1,48
 517.416015625 159.9375 517.416015625 159.9375 507.984375 143.430664062 c 0,49,50
 497.0078125 124.223632812 497.0078125 124.223632812 475.834960938 97.5263671875 c 128,-1,51
 454.661132812 70.8291015625 454.661132812 70.8291015625 443.784179688 62.4814453125 c 0,52,53
 403.377929688 18.201171875 403.377929688 18.201171875 357.215820312 5.1015625 c 128,-1,54
 311.0546875 -7.9990234375 311.0546875 -7.9990234375 238.493164062 -3.244140625 c 0,0,1
377.635742188 52.048828125 m 1,55,56
 428.740234375 83.5419921875 428.740234375 83.5419921875 472.044921875 161.662109375 c 0,57,58
 487.013671875 188.552734375 487.013671875 188.552734375 487.013671875 191.900390625 c 128,-1,59
 487.013671875 195.244140625 487.013671875 195.244140625 489.654296875 197.756835938 c 0,60,61
 497.342773438 205.076171875 497.342773438 205.076171875 516.706054688 274.982421875 c 1,62,63
 527.001953125 338.834960938 527.001953125 338.834960938 532.025390625 386.811523438 c 128,-1,64
 537.049804688 434.7890625 537.049804688 434.7890625 536.461914062 493.71875 c 128,-1,65
 535.874023438 552.6484375 535.874023438 552.6484375 526.176757812 604.912109375 c 0,66,67
 512.85546875 668.172851562 512.85546875 668.172851562 484.020507812 713.065429688 c 0,68,69
 470.58203125 733.798828125 470.58203125 733.798828125 466.736328125 739.955078125 c 128,-1,70
 462.927734375 746.055664062 462.927734375 746.055664062 451.018554688 754.387695312 c 128,-1,71
 439.112304688 762.717773438 439.112304688 762.717773438 439.09765625 768.446289062 c 0,72,73
 439.061523438 782.2734375 439.061523438 782.2734375 410.97265625 795.196289062 c 0,74,75
 396.307617188 801.944335938 396.307617188 801.944335938 367.1875 801.944335938 c 0,76,77
 260.034179688 790.590820312 260.034179688 790.590820312 193.607421875 695.177734375 c 0,78,79
 184.44921875 681.607421875 184.44921875 681.607421875 177.4609375 673.150390625 c 0,80,81
 165.840820312 659.09375 165.840820312 659.09375 132.352539062 570.53125 c 0,82,83
 98.6201171875 481.3203125 98.6201171875 481.3203125 94.6708984375 464.7421875 c 0,84,85
 92.15625 454.182617188 92.15625 454.182617188 88.931640625 442.26171875 c 0,86,87
 75.6630859375 393.213867188 75.6630859375 393.213867188 77.6279296875 365.627929688 c 0,88,89
 79.03515625 345.859375 79.03515625 345.859375 76.3828125 325.95703125 c 0,90,91
 70.4072265625 274.169921875 70.4072265625 274.169921875 84.44921875 217.387695312 c 128,-1,92
 98.490234375 160.604492188 98.490234375 160.604492188 121.9296875 116.9609375 c 0,93,94
 152.170898438 51.21484375 152.170898438 51.21484375 205.000976562 31.1806640625 c 1,95,96
 288.0859375 8.2705078125 288.0859375 8.2705078125 377.635742188 52.048828125 c 1,55,56
EndSplineSet
Validated: 33
EndChar

StartChar: uni041F
Encoding: 191 1055 22
Width: 778
Flags: W
LayerCount: 2
Fore
SplineSet
549.98828125 -4.8203125 m 0,0,1
 532.119140625 -2.6201171875 532.119140625 -2.6201171875 521.264648438 8.416015625 c 128,-1,2
 510.41015625 19.4521484375 510.41015625 19.4521484375 507.538085938 34.2998046875 c 128,-1,3
 504.665039062 49.1474609375 504.665039062 49.1474609375 503.474609375 66.12890625 c 128,-1,4
 502.283203125 83.1103515625 502.283203125 83.1103515625 503.741210938 97.201171875 c 0,5,6
 505.012695312 386.337890625 505.012695312 386.337890625 524.611328125 641.119140625 c 0,7,8
 525.552734375 654.4296875 525.552734375 654.4296875 526.446289062 678.21875 c 128,-1,9
 527.33984375 702.0078125 527.33984375 702.0078125 528.67578125 721.681640625 c 128,-1,10
 530.012695312 741.356445312 530.012695312 741.356445312 532.6875 758.560546875 c 1,11,12
 543.821289062 772.739257812 543.821289062 772.739257812 555.693359375 770.450195312 c 128,-1,13
 567.564453125 768.161132812 567.564453125 768.161132812 571.208007812 755.416992188 c 128,-1,14
 574.850585938 742.671875 574.850585938 742.671875 570.163085938 728.061523438 c 0,15,16
 564.159179688 660.774414062 564.159179688 660.774414062 555.348632812 534.259765625 c 128,-1,17
 546.537109375 407.745117188 546.537109375 407.745117188 544.762695312 384.234375 c 0,18,19
 542.98046875 338.744140625 542.98046875 338.744140625 542.071289062 232.166992188 c 128,-1,20
 541.161132812 125.58984375 541.161132812 125.58984375 537.965820312 68.40625 c 1,21,22
 531.486328125 34.6328125 531.486328125 34.6328125 559.106445312 19.71484375 c 128,-1,23
 586.727539062 4.796875 586.727539062 4.796875 611.799804688 28.0888671875 c 0,24,25
 617.418945312 31.9296875 617.418945312 31.9296875 637.2890625 49.828125 c 128,-1,26
 657.159179688 67.7265625 657.159179688 67.7265625 672.272460938 73.984375 c 128,-1,27
 687.385742188 80.2412109375 687.385742188 80.2412109375 704.509765625 74.4521484375 c 1,28,29
 689.940429688 59.447265625 689.940429688 59.447265625 654.69140625 36.2470703125 c 128,-1,30
 619.442382812 13.0458984375 619.442382812 13.0458984375 613.90625 8.91015625 c 0,31,32
 577.430664062 -13.431640625 577.430664062 -13.431640625 549.98828125 -4.8203125 c 0,0,1
35 51.970703125 m 1,33,34
 37.0244140625 58.92578125 37.0244140625 58.92578125 40.4541015625 61.125 c 128,-1,35
 43.8837890625 63.32421875 43.8837890625 63.32421875 49.638671875 60.2109375 c 128,-1,36
 55.392578125 57.0966796875 55.392578125 57.0966796875 59.5361328125 53.7939453125 c 128,-1,37
 63.6787109375 50.490234375 63.6787109375 50.490234375 71.900390625 43.0439453125 c 0,38,39
 74.673828125 40.533203125 74.673828125 40.533203125 76.0791015625 39.2744140625 c 128,-1,40
 77.4833984375 38.015625 77.4833984375 38.015625 80.322265625 35.52734375 c 128,-1,41
 83.1611328125 33.0390625 83.1611328125 33.0390625 84.609375 31.90625 c 128,-1,42
 86.0576171875 30.7734375 86.0576171875 30.7734375 88.9169921875 28.5146484375 c 128,-1,43
 91.7763671875 26.2548828125 91.7763671875 26.2548828125 93.2216796875 25.455078125 c 128,-1,44
 94.6669921875 24.6552734375 94.6669921875 24.6552734375 97.501953125 22.8310546875 c 128,-1,45
 100.3359375 21.0068359375 100.3359375 21.0068359375 101.734375 20.7451171875 c 128,-1,46
 103.131835938 20.4833984375 103.131835938 20.4833984375 105.895507812 19.3017578125 c 128,-1,47
 108.66015625 18.119140625 108.66015625 18.119140625 109.96484375 18.6025390625 c 128,-1,48
 111.26953125 19.0849609375 111.26953125 19.0849609375 113.916992188 18.7509765625 c 0,49,50
 123.041015625 15.1416015625 123.041015625 15.1416015625 131.138671875 14.52734375 c 128,-1,51
 139.236328125 13.9140625 139.236328125 13.9140625 145.83984375 16.884765625 c 128,-1,52
 152.443359375 19.85546875 152.443359375 19.85546875 157.795898438 23.4375 c 128,-1,53
 163.1484375 27.0185546875 163.1484375 27.0185546875 167.94140625 34.52734375 c 128,-1,54
 172.734375 42.0361328125 172.734375 42.0361328125 175.974609375 47.587890625 c 128,-1,55
 179.21484375 53.140625 179.21484375 53.140625 182.829101562 62.962890625 c 128,-1,56
 186.443359375 72.78515625 186.443359375 72.78515625 188.204101562 78.083984375 c 128,-1,57
 189.96484375 83.3828125 189.96484375 83.3828125 192.95703125 93.1123046875 c 0,58,59
 194.057617188 96.693359375 194.057617188 96.693359375 194.590820312 98.408203125 c 0,60,61
 218.877929688 167.134765625 218.877929688 167.134765625 232.145507812 254.380859375 c 128,-1,62
 245.412109375 341.626953125 245.412109375 341.626953125 248.198242188 398.015625 c 128,-1,63
 250.983398438 454.403320312 250.983398438 454.403320312 253.262695312 558.825195312 c 0,64,65
 259.825195312 720.579101562 259.825195312 720.579101562 260.811523438 768.93359375 c 1,66,67
 139.940429688 752.859375 139.940429688 752.859375 112.685546875 696.749023438 c 0,68,69
 103.014648438 683.465820312 103.014648438 683.465820312 113.727539062 666.083007812 c 128,-1,70
 124.440429688 648.69921875 124.440429688 648.69921875 135.495117188 634.388671875 c 128,-1,71
 146.549804688 620.079101562 146.549804688 620.079101562 138.493164062 613.0546875 c 1,72,73
 109.34375 627.506835938 109.34375 627.506835938 96.8349609375 659.942382812 c 128,-1,74
 84.326171875 692.377929688 84.326171875 692.377929688 101.900390625 721.264648438 c 0,75,76
 135.111328125 768.086914062 135.111328125 768.086914062 238.7421875 787.227539062 c 1,77,78
 271.756835938 787.888671875 271.756835938 787.888671875 262.732421875 814.3125 c 1,79,80
 269.379882812 840.184570312 269.379882812 840.184570312 283.654296875 828.506835938 c 128,-1,81
 297.9453125 816.815429688 297.9453125 816.815429688 294.111328125 799.654296875 c 0,82,83
 293.76171875 798.086914062 293.76171875 798.086914062 293.16796875 796.694335938 c 1,84,85
 320.336914062 797.016601562 320.336914062 797.016601562 367.8359375 800.7109375 c 128,-1,86
 415.334960938 804.405273438 415.334960938 804.405273438 443.092773438 804.659179688 c 0,87,88
 473.010742188 805.584960938 473.010742188 805.584960938 561.416015625 812.106445312 c 128,-1,89
 649.821289062 818.626953125 649.821289062 818.626953125 698.235351562 817.6640625 c 1,90,91
 719.739257812 824.876953125 719.739257812 824.876953125 737.434570312 806.484375 c 0,92,93
 751.3203125 792.051757812 751.3203125 792.051757812 734.135742188 786.96875 c 0,94,95
 728.397460938 785.271484375 728.397460938 785.271484375 719.319335938 785.455078125 c 0,96,97
 713.501953125 787.479492188 713.501953125 787.479492188 698.036132812 785.067382812 c 128,-1,98
 682.571289062 782.654296875 682.571289062 782.654296875 673.674804688 781.165039062 c 128,-1,99
 664.77734375 779.674804688 664.77734375 779.674804688 662.133789062 784.720703125 c 1,100,101
 682.416015625 784.768554688 682.416015625 784.768554688 689.720703125 793.233398438 c 0,102,103
 691.880859375 795.735351562 691.880859375 795.735351562 686.931640625 796.573242188 c 0,104,105
 682.640625 797.299804688 682.640625 797.299804688 673.51171875 796.561523438 c 0,106,107
 643.15625 797.55859375 643.15625 797.55859375 583.083007812 790.124023438 c 128,-1,108
 523.009765625 782.690429688 523.009765625 782.690429688 492.578125 783.69140625 c 0,109,110
 478.037109375 783.248046875 478.037109375 783.248046875 449.063476562 782.66015625 c 128,-1,111
 420.08984375 782.073242188 420.08984375 782.073242188 404.500976562 781.571289062 c 128,-1,112
 388.911132812 781.069335938 388.911132812 781.069335938 365.0546875 779.325195312 c 128,-1,113
 341.198242188 777.58203125 341.198242188 777.58203125 319.301757812 774.635742188 c 0,114,115
 316.573242188 774.512695312 316.573242188 774.512695312 310.575195312 774.809570312 c 128,-1,116
 304.577148438 775.107421875 304.577148438 775.107421875 301.893554688 774.977539062 c 128,-1,117
 299.208984375 774.84765625 299.208984375 774.84765625 294.865234375 773.49609375 c 128,-1,118
 290.521484375 772.145507812 290.521484375 772.145507812 291.100585938 768.7265625 c 128,-1,119
 291.6796875 765.30859375 291.6796875 765.30859375 292.208007812 759.02734375 c 0,120,121
 292.05859375 712.936523438 292.05859375 712.936523438 287.107421875 625.661132812 c 128,-1,122
 282.15625 538.38671875 282.15625 538.38671875 281.518554688 498.224609375 c 0,123,124
 277.272460938 249.208007812 277.272460938 249.208007812 208.727539062 51.44921875 c 0,125,126
 200.004882812 16.025390625 200.004882812 16.025390625 164.946289062 0.732421875 c 128,-1,127
 129.887695312 -14.5595703125 129.887695312 -14.5595703125 97.556640625 1.3134765625 c 0,128,129
 68.94140625 13.427734375 68.94140625 13.427734375 35 51.970703125 c 1,33,34
EndSplineSet
Validated: 33
EndChar

StartChar: uni0420
Encoding: 192 1056 23
Width: 695
Flags: W
LayerCount: 2
Fore
SplineSet
207.522460938 0.3369140625 m 0,0,1
 169.814453125 13.7509765625 169.814453125 13.7509765625 128.967773438 64.2607421875 c 0,2,3
 109.04296875 88.8984375 109.04296875 88.8984375 89.4912109375 118.838867188 c 128,-1,4
 69.939453125 148.779296875 69.939453125 148.779296875 69.939453125 154.65234375 c 0,5,6
 69.939453125 161.038085938 69.939453125 161.038085938 74.30078125 164.529296875 c 128,-1,7
 78.662109375 168.020507812 78.662109375 168.020507812 83.142578125 165.220703125 c 128,-1,8
 87.6943359375 162.374023438 87.6943359375 162.374023438 98.6201171875 144.474609375 c 0,9,10
 113.306640625 120.41015625 113.306640625 120.41015625 123.176757812 108.250976562 c 128,-1,11
 133.046875 96.0908203125 133.046875 96.0908203125 155.638671875 74.2265625 c 0,12,13
 197.154296875 34.0478515625 197.154296875 34.0478515625 220.297851562 26.3330078125 c 0,14,15
 232.71875 22.193359375 232.71875 22.193359375 255.806640625 26.171875 c 0,16,17
 272.114257812 28.982421875 272.114257812 28.982421875 277.051757812 31.29296875 c 128,-1,18
 281.98828125 33.603515625 281.98828125 33.603515625 289.428710938 41.908203125 c 0,19,20
 307.569335938 62.1552734375 307.569335938 62.1552734375 314.208984375 90.6123046875 c 0,21,22
 318.088867188 107.239257812 318.088867188 107.239257812 320.680664062 110.499023438 c 0,23,24
 324.163085938 114.877929688 324.163085938 114.877929688 326.928710938 141.056640625 c 128,-1,25
 329.693359375 167.236328125 329.693359375 167.236328125 329.609375 195.030273438 c 0,26,27
 329.374023438 272.495117188 329.374023438 272.495117188 316.119140625 325.423828125 c 0,28,29
 313.044921875 337.696289062 313.044921875 337.696289062 304.658203125 376.884765625 c 128,-1,30
 296.272460938 416.064453125 296.272460938 416.064453125 288.016601562 442.43359375 c 0,31,32
 253.573242188 552.452148438 253.573242188 552.452148438 233.1015625 597.17578125 c 0,33,34
 219.357421875 627.197265625 219.357421875 627.197265625 213.198242188 642.240234375 c 128,-1,35
 207.04296875 657.272460938 207.04296875 657.272460938 193.196289062 688.3671875 c 128,-1,36
 179.345703125 719.47265625 179.345703125 719.47265625 180.669921875 721.618164062 c 0,37,38
 181.775390625 723.407226562 181.775390625 723.407226562 179.247070312 722.829101562 c 0,39,40
 166.091796875 719.822265625 166.091796875 719.822265625 146.047851562 703.375 c 0,41,42
 131.400390625 691.354492188 131.400390625 691.354492188 117.513671875 682.025390625 c 0,43,44
 105.811523438 674.165039062 105.811523438 674.165039062 93.7568359375 657.259765625 c 128,-1,45
 81.701171875 640.35546875 81.701171875 640.35546875 75.2900390625 622.814453125 c 0,46,47
 57.2802734375 573.548828125 57.2802734375 573.548828125 80.650390625 527.094726562 c 0,48,49
 86.083984375 516.294921875 86.083984375 516.294921875 88.6181640625 514.418945312 c 128,-1,50
 91.1533203125 512.543945312 91.1533203125 512.543945312 100.180664062 512.641601562 c 0,51,52
 112.374023438 512.7734375 112.374023438 512.7734375 121.087890625 519.215820312 c 128,-1,53
 129.802734375 525.658203125 129.802734375 525.658203125 134.014648438 522.163085938 c 0,54,55
 140.454101562 515.086914062 140.454101562 515.086914062 137.166992188 506.569335938 c 128,-1,56
 133.879882812 498.05078125 133.879882812 498.05078125 121.623046875 490.94140625 c 128,-1,57
 109.366210938 483.83203125 109.366210938 483.83203125 95.888671875 483.83203125 c 0,58,59
 57.611328125 483.83203125 57.611328125 483.83203125 39.4970703125 535.087890625 c 0,60,61
 33.9638671875 550.745117188 33.9638671875 550.745117188 35.23828125 585.426757812 c 128,-1,62
 36.5146484375 620.106445312 36.5146484375 620.106445312 44.8271484375 637.319335938 c 0,63,64
 64.9423828125 678.969726562 64.9423828125 678.969726562 121.418945312 719.2265625 c 128,-1,65
 177.896484375 759.482421875 177.896484375 759.482421875 252.428710938 785.296875 c 0,66,67
 345.6015625 817.56640625 345.6015625 817.56640625 423.661132812 823.69140625 c 0,68,69
 443.283203125 825.231445312 443.283203125 825.231445312 482.209960938 822.56640625 c 128,-1,70
 521.137695312 819.90234375 521.137695312 819.90234375 541.065429688 815.65625 c 0,71,72
 604.7890625 802.078125 604.7890625 802.078125 635.4140625 736.639648438 c 0,73,74
 651.610351562 702.030273438 651.610351562 702.030273438 656.2734375 684.282226562 c 128,-1,75
 660.936523438 666.534179688 660.936523438 666.534179688 660.932617188 639.508789062 c 0,76,77
 660.924804688 608.08984375 660.924804688 608.08984375 651.076171875 576.075195312 c 128,-1,78
 641.22265625 544.048828125 641.22265625 544.048828125 634.563476562 531.010742188 c 128,-1,79
 627.913085938 517.991210938 627.913085938 517.991210938 614.5546875 490.9765625 c 0,80,81
 600.349609375 462.252929688 600.349609375 462.252929688 580.334960938 442.474609375 c 128,-1,82
 560.3203125 422.696289062 560.3203125 422.696289062 527.616210938 405.065429688 c 0,83,84
 493.868164062 386.87109375 493.868164062 386.87109375 480.780273438 383.034179688 c 128,-1,85
 467.69140625 379.198242188 467.69140625 379.198242188 435.288085938 378.002929688 c 0,86,87
 404.891601562 376.880859375 404.891601562 376.880859375 397.205078125 378.875 c 128,-1,88
 389.518554688 380.870117188 389.518554688 380.870117188 389.518554688 389.877929688 c 0,89,90
 389.518554688 397.965820312 389.518554688 397.965820312 398.484375 401.13671875 c 128,-1,91
 407.450195312 404.307617188 407.450195312 404.307617188 433.221679688 405.334960938 c 0,92,93
 464.635742188 406.587890625 464.635742188 406.587890625 476.091796875 410.69921875 c 0,94,95
 492.192382812 416.4765625 492.192382812 416.4765625 517.78125 431.818359375 c 128,-1,96
 543.37109375 447.161132812 543.37109375 447.161132812 553.446289062 457.077148438 c 0,97,98
 578.953125 482.182617188 578.953125 482.182617188 589.126953125 514.116210938 c 0,99,100
 592.096679688 523.4375 592.096679688 523.4375 594.61328125 528.896484375 c 128,-1,101
 597.130859375 534.358398438 597.130859375 534.358398438 604.137695312 557.57421875 c 0,102,103
 615.993164062 596.84765625 615.993164062 596.84765625 612.759765625 657.88671875 c 128,-1,104
 609.525390625 718.92578125 609.525390625 718.92578125 594.659179688 736.465820312 c 0,105,106
 590.03125 741.92578125 590.03125 741.92578125 586.150390625 749.677734375 c 0,107,108
 582.58984375 756.791015625 582.58984375 756.791015625 569.72265625 767.784179688 c 128,-1,109
 556.85546875 778.77734375 556.85546875 778.77734375 547.533203125 782.669921875 c 0,110,111
 516.872070312 795.475585938 516.872070312 795.475585938 452.341796875 795.76953125 c 0,112,113
 410.001953125 795.961914062 410.001953125 795.961914062 374.495117188 788.6875 c 0,114,115
 286.651367188 770.69140625 286.651367188 770.69140625 248.848632812 754.990234375 c 0,116,117
 232.872070312 748.353515625 232.872070312 748.353515625 221.997070312 743.858398438 c 0,118,119
 211.534179688 739.534179688 211.534179688 739.534179688 212.909179688 733.903320312 c 0,120,121
 224.540039062 686.284179688 224.540039062 686.284179688 257.663085938 614.928710938 c 0,122,123
 267.939453125 592.790039062 267.939453125 592.790039062 291.4453125 533.991210938 c 128,-1,124
 314.950195312 475.192382812 314.950195312 475.192382812 319.51171875 460.211914062 c 0,125,126
 338.254882812 398.66015625 338.254882812 398.66015625 345.100585938 364.125976562 c 128,-1,127
 351.946289062 329.591796875 351.946289062 329.591796875 357.247070312 269.844726562 c 0,128,129
 362.951171875 205.547851562 362.951171875 205.547851562 357.19921875 154.92578125 c 0,130,131
 351.579101562 105.479492188 351.579101562 105.479492188 340.85546875 75.6591796875 c 128,-1,132
 330.130859375 45.8388671875 330.130859375 45.8388671875 310.079101562 23.900390625 c 0,133,134
 296.818359375 9.392578125 296.818359375 9.392578125 288.450195312 5.0361328125 c 128,-1,135
 280.08203125 0.6806640625 280.08203125 0.6806640625 260.147460938 -2.091796875 c 0,136,137
 227.219726562 -6.671875 227.219726562 -6.671875 207.522460938 0.3369140625 c 0,0,1
EndSplineSet
Validated: 33
EndChar

StartChar: uni0421
Encoding: 193 1057 24
Width: 582
Flags: W
LayerCount: 2
Fore
SplineSet
297.959960938 -8.7861328125 m 0,0,1
 290.02734375 -6.7861328125 290.02734375 -6.7861328125 277.510742188 -6.4736328125 c 0,2,3
 258.04296875 -5.9873046875 258.04296875 -5.9873046875 220.59375 4.982421875 c 128,-1,4
 183.145507812 15.9521484375 183.145507812 15.9521484375 161.817382812 27.4150390625 c 0,5,6
 139.34765625 39.4912109375 139.34765625 39.4912109375 114.671875 64.9052734375 c 128,-1,7
 89.9990234375 90.3173828125 89.9990234375 90.3173828125 80.5849609375 106.178710938 c 0,8,9
 60.9228515625 139.314453125 60.9228515625 139.314453125 47.8818359375 201.592773438 c 128,-1,10
 34.841796875 263.870117188 34.841796875 263.870117188 35.001953125 323.870117188 c 0,11,12
 35.28125 428.177734375 35.28125 428.177734375 54.572265625 502.94921875 c 0,13,14
 58.5966796875 518.543945312 58.5966796875 518.543945312 64.302734375 544.965820312 c 128,-1,15
 70.0107421875 571.397460938 70.0107421875 571.397460938 74.939453125 580.611328125 c 128,-1,16
 79.8671875 589.82421875 79.8671875 589.82421875 79.8671875 591.701171875 c 0,17,18
 79.8671875 597.018554688 79.8671875 597.018554688 117.62890625 675.80859375 c 0,19,20
 135.868164062 713.866210938 135.868164062 713.866210938 172.499023438 747.146484375 c 0,21,22
 234.2421875 803.23828125 234.2421875 803.23828125 278.176757812 812.932617188 c 0,23,24
 294.091796875 816.444335938 294.091796875 816.444335938 337.715820312 821.51171875 c 128,-1,25
 381.33984375 826.579101562 381.33984375 826.579101562 386.467773438 825.51171875 c 0,26,27
 393.139648438 824.124023438 393.139648438 824.124023438 415.598632812 820.173828125 c 0,28,29
 475.614257812 809.619140625 475.614257812 809.619140625 501.393554688 799.571289062 c 0,30,31
 523.973632812 790.76953125 523.973632812 790.76953125 538.059570312 770.521484375 c 128,-1,32
 552.145507812 750.274414062 552.145507812 750.274414062 544.163085938 738.091796875 c 0,33,34
 536.505859375 726.40625 536.505859375 726.40625 519.984375 730.029296875 c 128,-1,35
 503.462890625 733.651367188 503.462890625 733.651367188 496.696289062 748.5 c 0,36,37
 492.077148438 758.63671875 492.077148438 758.63671875 475.901367188 770.454101562 c 128,-1,38
 459.724609375 782.271484375 459.724609375 782.271484375 443.918945312 787.056640625 c 0,39,40
 428.489257812 791.728515625 428.489257812 791.728515625 410.809570312 793.569335938 c 128,-1,41
 393.12890625 795.41015625 393.12890625 795.41015625 388.423828125 797.862304688 c 0,42,43
 382.5546875 800.919921875 382.5546875 800.919921875 328.084960938 793.471679688 c 128,-1,44
 273.615234375 786.022460938 273.615234375 786.022460938 263.59375 780.791992188 c 0,45,46
 248.779296875 773.05859375 248.779296875 773.05859375 225.431640625 755.959960938 c 128,-1,47
 202.084960938 738.862304688 202.084960938 738.862304688 191.90234375 728.290039062 c 0,48,49
 154.104492188 689.043945312 154.104492188 689.043945312 126.302734375 620.672851562 c 128,-1,50
 98.501953125 552.30078125 98.501953125 552.30078125 90.4892578125 478.883789062 c 0,51,52
 83.82421875 417.821289062 83.82421875 417.821289062 78.029296875 374.473632812 c 0,53,54
 68.4267578125 302.659179688 68.4267578125 302.659179688 79.771484375 238.34375 c 0,55,56
 85.3427734375 206.767578125 85.3427734375 206.767578125 87.8603515625 192.055664062 c 0,57,58
 90.2060546875 178.34765625 90.2060546875 178.34765625 102.005859375 154.041015625 c 128,-1,59
 113.805664062 129.733398438 113.805664062 129.733398438 125.697265625 114.109375 c 0,60,61
 140.188476562 95.0712890625 140.188476562 95.0712890625 160.20703125 75.0654296875 c 128,-1,62
 180.225585938 55.0595703125 180.225585938 55.0595703125 190.038085938 49.8076171875 c 0,63,64
 209.352539062 39.4716796875 209.352539062 39.4716796875 258.907226562 28.951171875 c 128,-1,65
 308.462890625 18.4306640625 308.462890625 18.4306640625 324.053710938 21.35546875 c 0,66,67
 333.129882812 23.0576171875 333.129882812 23.0576171875 343.419921875 20.7470703125 c 128,-1,68
 353.70703125 18.435546875 353.70703125 18.435546875 365.487304688 21.95703125 c 128,-1,69
 377.265625 25.4775390625 377.265625 25.4775390625 385.466796875 25.5185546875 c 0,70,71
 407.544921875 25.626953125 407.544921875 25.626953125 461.861328125 81.619140625 c 0,72,73
 490.94140625 111.59765625 490.94140625 111.59765625 498.87109375 124.400390625 c 128,-1,74
 506.801757812 137.205078125 506.801757812 137.205078125 514.245117188 141.516601562 c 128,-1,75
 521.689453125 145.828125 521.689453125 145.828125 525.30859375 140.932617188 c 128,-1,76
 528.927734375 136.036132812 528.927734375 136.036132812 524.478515625 126.39453125 c 0,77,78
 509.291992188 93.48828125 509.291992188 93.48828125 476.990234375 57.3369140625 c 128,-1,79
 444.688476562 21.1845703125 444.688476562 21.1845703125 420.739257812 10.2890625 c 0,80,81
 390.15625 -3.625 390.15625 -3.625 368.014648438 -7.2255859375 c 0,82,83
 355.919921875 -9.19140625 355.919921875 -9.19140625 330.032226562 -9.767578125 c 128,-1,84
 304.143554688 -10.3447265625 304.143554688 -10.3447265625 297.959960938 -8.7861328125 c 0,0,1
EndSplineSet
Validated: 33
EndChar

StartChar: uni0422
Encoding: 194 1058 25
Width: 855
Flags: W
LayerCount: 2
Fore
SplineSet
627.709960938 -6.306640625 m 0,0,1
 592.592773438 0.5546875 592.592773438 0.5546875 584.639648438 37.6396484375 c 0,2,3
 581.869140625 50.556640625 581.869140625 50.556640625 581.796875 124.94921875 c 128,-1,4
 581.725585938 199.342773438 581.725585938 199.342773438 584.430664062 255.05078125 c 128,-1,5
 587.137695312 310.813476562 587.137695312 310.813476562 589.780273438 412.841796875 c 128,-1,6
 592.421875 514.86328125 592.421875 514.86328125 595.04296875 536.626953125 c 0,7,8
 603.408203125 606.084960938 603.408203125 606.084960938 604.428710938 675.984375 c 0,9,10
 605.153320312 725.564453125 605.153320312 725.564453125 607.038085938 727.447265625 c 128,-1,11
 608.921875 729.331054688 608.921875 729.331054688 608.96484375 737.720703125 c 128,-1,12
 609.006835938 746.200195312 609.006835938 746.200195312 611.727539062 749.756835938 c 128,-1,13
 614.447265625 753.314453125 614.447265625 753.314453125 622.700195312 755.680664062 c 0,14,15
 640.313476562 760.731445312 640.313476562 760.731445312 644.751953125 755.139648438 c 128,-1,16
 649.190429688 749.548828125 649.190429688 749.548828125 648.06640625 723.725585938 c 0,17,18
 646.909179688 697.141601562 646.909179688 697.141601562 644.379882812 686.256835938 c 128,-1,19
 641.849609375 675.375976562 641.849609375 675.375976562 640.291015625 640.0078125 c 128,-1,20
 638.731445312 604.6171875 638.731445312 604.6171875 636.211914062 577.435546875 c 128,-1,21
 633.690429688 550.20703125 633.690429688 550.20703125 630.8984375 497.178710938 c 128,-1,22
 628.106445312 444.140625 628.106445312 444.140625 625.185546875 422.364257812 c 0,23,24
 620.603515625 388.2265625 620.603515625 388.2265625 619.125976562 148.94921875 c 2,25,-1
 618.446289062 38.7666015625 l 1,26,-1
 626.608398438 27.2626953125 l 2,27,28
 632.407226562 19.0908203125 632.407226562 19.0908203125 635.55859375 17.421875 c 128,-1,29
 638.7109375 15.75390625 638.7109375 15.75390625 648.375 15.740234375 c 0,30,31
 676.588867188 15.7001953125 676.588867188 15.7001953125 691.908203125 28.888671875 c 0,32,33
 697.346679688 33.5712890625 697.346679688 33.5712890625 705.091796875 37.44921875 c 128,-1,34
 712.833984375 41.3251953125 712.833984375 41.3251953125 729.935546875 56.9931640625 c 0,35,36
 753.096679688 78.21484375 753.096679688 78.21484375 771.188476562 78.21484375 c 0,37,38
 786.051757812 78.21484375 786.051757812 78.21484375 777.2109375 69.392578125 c 0,39,40
 773.618164062 65.8076171875 773.618164062 65.8076171875 766.360351562 61.8916015625 c 0,41,42
 753.752929688 55.087890625 753.752929688 55.087890625 735.075195312 40.7578125 c 0,43,44
 688.158203125 4.759765625 688.158203125 4.759765625 682.672851562 4.759765625 c 0,45,46
 678.732421875 4.759765625 678.732421875 4.759765625 674.436523438 0.9853515625 c 0,47,48
 671.622070312 -1.48828125 671.622070312 -1.48828125 657.471679688 -5.3310546875 c 128,-1,49
 643.321289062 -9.173828125 643.321289062 -9.173828125 639.3984375 -8.5302734375 c 0,50,51
 637.44921875 -8.208984375 637.44921875 -8.208984375 627.709960938 -6.306640625 c 0,0,1
88.103515625 4.408203125 m 0,52,53
 86.640625 6.7783203125 86.640625 6.7783203125 78.5830078125 8.388671875 c 128,-1,54
 70.525390625 10.0009765625 70.525390625 10.0009765625 54.140625 22.4609375 c 0,55,56
 40.7822265625 32.6181640625 40.7822265625 32.6181640625 37.4453125 40.1044921875 c 128,-1,57
 34.1083984375 47.5908203125 34.1083984375 47.5908203125 35.32421875 64.6728515625 c 0,58,59
 35.908203125 72.884765625 35.908203125 72.884765625 37.158203125 74.869140625 c 128,-1,60
 38.408203125 76.8544921875 38.408203125 76.8544921875 42.9931640625 76.8544921875 c 128,-1,61
 47.623046875 76.8544921875 47.623046875 76.8544921875 48.8408203125 74.8134765625 c 128,-1,62
 50.0576171875 72.771484375 50.0576171875 72.771484375 50.619140625 64.0654296875 c 128,-1,63
 51.1787109375 55.3779296875 51.1787109375 55.3779296875 53.4599609375 51.52734375 c 128,-1,64
 55.7412109375 47.6767578125 55.7412109375 47.6767578125 64.8427734375 40.0576171875 c 0,65,66
 91.048828125 18.1181640625 91.048828125 18.1181640625 105.286132812 28.4970703125 c 0,67,68
 113.080078125 34.1787109375 113.080078125 34.1787109375 129.260742188 68.9345703125 c 128,-1,69
 145.442382812 103.689453125 145.442382812 103.689453125 153.131835938 131.265625 c 0,70,71
 157.681640625 147.584960938 157.681640625 147.584960938 159.991210938 153.030273438 c 128,-1,72
 162.299804688 158.47265625 162.299804688 158.47265625 164.018554688 166.6328125 c 128,-1,73
 165.74609375 174.833007812 165.74609375 174.833007812 169.833007812 192.477539062 c 128,-1,74
 173.944335938 210.233398438 173.944335938 210.233398438 176.609375 222.404296875 c 0,75,76
 196.90234375 343.0234375 196.90234375 343.0234375 199.235351562 465.892578125 c 0,77,78
 200.916015625 558.37109375 200.916015625 558.37109375 203.442382812 604.640625 c 128,-1,79
 205.96875 650.92578125 205.96875 650.92578125 207.427734375 705.923828125 c 2,80,-1
 208.88671875 760.958007812 l 1,81,-1
 196.000976562 759.424804688 l 2,82,83
 176.561523438 757.112304688 176.561523438 757.112304688 140.942382812 743.873046875 c 0,84,85
 119.591796875 735.938476562 119.591796875 735.938476562 99.6513671875 719.622070312 c 0,86,87
 85.9140625 708.381835938 85.9140625 708.381835938 77.40625 689.881835938 c 128,-1,88
 68.8974609375 671.381835938 68.8974609375 671.381835938 75.5693359375 667.258789062 c 0,89,90
 78.2158203125 665.624023438 78.2158203125 665.624023438 80.978515625 655.536132812 c 128,-1,91
 83.7412109375 645.450195312 83.7412109375 645.450195312 97.3779296875 630.704101562 c 0,92,93
 115.084960938 611.557617188 115.084960938 611.557617188 108.235351562 607.325195312 c 0,94,95
 104.947265625 605.293945312 104.947265625 605.293945312 94.82421875 611.022460938 c 128,-1,96
 84.7021484375 616.750976562 84.7021484375 616.750976562 81.2177734375 622.614257812 c 0,97,98
 76.998046875 629.712890625 76.998046875 629.712890625 66.80078125 645.112304688 c 128,-1,99
 56.59765625 660.516601562 56.59765625 660.516601562 56.59765625 678.051757812 c 0,100,101
 56.59765625 708.4375 56.59765625 708.4375 84.0556640625 734.0390625 c 0,102,103
 93.08203125 742.455078125 93.08203125 742.455078125 116.938476562 755.844726562 c 128,-1,104
 140.795898438 769.233398438 140.795898438 769.233398438 146.765625 769.233398438 c 0,105,106
 149.983398438 769.233398438 149.983398438 769.233398438 163.830078125 773.201171875 c 128,-1,107
 177.678710938 777.170898438 177.678710938 777.170898438 194.9609375 780.626953125 c 2,108,-1
 212.248046875 784.083984375 l 1,109,-1
 211.106445312 799.866210938 l 2,110,111
 210.173828125 812.752929688 210.173828125 812.752929688 212.294921875 816.379882812 c 128,-1,112
 214.416992188 820.0078125 214.416992188 820.0078125 224.092773438 822.073242188 c 128,-1,113
 233.573242188 824.096679688 233.573242188 824.096679688 237.899414062 818.411132812 c 128,-1,114
 242.225585938 812.725585938 242.225585938 812.725585938 240.411132812 800.626953125 c 2,115,-1
 238.55859375 788.27734375 l 1,116,-1
 258.451171875 788.32421875 l 2,117,118
 307.87890625 790.9296875 307.87890625 790.9296875 653.81640625 804.161132812 c 0,119,120
 675.466796875 804.940429688 675.466796875 804.940429688 697.02734375 805.786132812 c 128,-1,121
 718.586914062 806.631835938 718.586914062 806.631835938 729.934570312 807.118164062 c 128,-1,122
 741.28125 807.60546875 741.28125 807.60546875 752.82421875 808.01953125 c 128,-1,123
 764.368164062 808.434570312 764.368164062 808.434570312 769.53515625 808.538085938 c 128,-1,124
 774.701171875 808.642578125 774.701171875 808.642578125 780.115234375 808.522460938 c 128,-1,125
 785.530273438 808.401367188 785.530273438 808.401367188 788.403320312 808.01953125 c 128,-1,126
 791.27734375 807.63671875 791.27734375 807.63671875 794.685546875 806.890625 c 0,127,128
 810.397460938 803.448242188 810.397460938 803.448242188 816.151367188 797.32421875 c 0,129,130
 820.283203125 792.92578125 820.283203125 792.92578125 820.440429688 791.06640625 c 128,-1,131
 820.59765625 789.206054688 820.59765625 789.206054688 817.267578125 784.124023438 c 0,132,133
 814.078125 779.255859375 814.078125 779.255859375 810.515625 778.178710938 c 128,-1,134
 806.953125 777.102539062 806.953125 777.102539062 794.44140625 777.225585938 c 0,135,136
 776.265625 777.405273438 776.265625 777.405273438 766.73046875 776.012695312 c 0,137,138
 735.358398438 772.541992188 735.358398438 772.541992188 735.243164062 774.354492188 c 0,139,140
 737.12109375 777.395507812 737.12109375 777.395507812 742.446289062 777.395507812 c 0,141,142
 748.428710938 777.395507812 748.428710938 777.395507812 758.939453125 780.9453125 c 128,-1,143
 769.451171875 784.495117188 769.451171875 784.495117188 769.451171875 786.515625 c 1,144,145
 684.7890625 782.014648438 684.7890625 782.014648438 512.9921875 776.908203125 c 128,-1,146
 341.194335938 771.801757812 341.194335938 771.801757812 265.938476562 767.540039062 c 2,147,-1
 239.928710938 766.036132812 l 1,148,-1
 239.575195312 724.786132812 l 2,149,150
 239.223632812 683.548828125 239.223632812 683.548828125 236.21484375 648.168945312 c 128,-1,151
 233.20703125 612.80859375 233.20703125 612.80859375 231.891601562 563.83203125 c 128,-1,152
 230.576171875 514.827148438 230.576171875 514.827148438 227.791015625 464.532226562 c 0,153,154
 223.672851562 302.791992188 223.672851562 302.791992188 204.680664062 208.80078125 c 0,155,156
 190.737304688 140.524414062 190.737304688 140.524414062 177.569335938 111.73828125 c 0,157,158
 170.872070312 97.09765625 170.872070312 97.09765625 170.872070312 94.3447265625 c 0,159,160
 170.872070312 90.4404296875 170.872070312 90.4404296875 142.403320312 35.3759765625 c 0,161,162
 135.022460938 21.1015625 135.022460938 21.1015625 127.780273438 15.4052734375 c 0,163,164
 117.329101562 7.18359375 117.329101562 7.18359375 104.12109375 3.5234375 c 128,-1,165
 90.9130859375 -0.1376953125 90.9130859375 -0.1376953125 88.103515625 4.408203125 c 0,52,53
375.74609375 7.755859375 m 0,166,167
 372.749023438 10.751953125 372.749023438 10.751953125 375.202148438 19.2998046875 c 128,-1,168
 377.653320312 27.8525390625 377.653320312 27.8525390625 377.653320312 42.30859375 c 128,-1,169
 377.653320312 56.7705078125 377.653320312 56.7705078125 380.337890625 74.97265625 c 0,170,171
 383.301757812 95.0732421875 383.301757812 95.0732421875 387.317382812 181.543945312 c 128,-1,172
 391.333007812 268.013671875 391.333007812 268.013671875 391.1640625 308.100585938 c 0,173,174
 390.940429688 360.9921875 390.940429688 360.9921875 392.625 460.899414062 c 128,-1,175
 394.309570312 560.806640625 394.309570312 560.806640625 395.456054688 562.662109375 c 0,176,177
 396.80859375 564.849609375 396.80859375 564.849609375 398.216796875 618.751953125 c 128,-1,178
 399.624023438 672.641601562 399.624023438 672.641601562 402.243164062 694.34765625 c 128,-1,179
 404.861328125 716.033203125 404.861328125 716.033203125 404.861328125 731.149414062 c 0,180,181
 404.861328125 758.3515625 404.861328125 758.3515625 422.279296875 758.3515625 c 0,182,183
 431.2265625 758.3515625 431.2265625 758.3515625 436.069335938 753.000976562 c 0,184,185
 439.420898438 749.297851562 439.420898438 749.297851562 439.708007812 742.69921875 c 128,-1,186
 439.99609375 736.1015625 439.99609375 736.1015625 437.936523438 710.15234375 c 0,187,188
 434.9609375 672.634765625 434.9609375 672.634765625 432.037109375 569.2734375 c 128,-1,189
 429.11328125 465.905273438 429.11328125 465.905273438 425.104492188 421.00390625 c 128,-1,190
 421.096679688 376.110351562 421.096679688 376.110351562 420.999023438 340.748046875 c 128,-1,191
 420.901367188 305.372070312 420.901367188 305.372070312 418.416015625 257.770507812 c 128,-1,192
 415.922851562 209.987304688 415.922851562 209.987304688 413.075195312 143.5078125 c 0,193,194
 409.84375 68.087890625 409.84375 68.087890625 407.1171875 42.4697265625 c 128,-1,195
 404.391601562 16.8525390625 404.391601562 16.8525390625 398.984375 11.09765625 c 0,196,197
 394.270507812 6.080078125 394.270507812 6.080078125 386.905273438 5.021484375 c 128,-1,198
 379.540039062 3.9619140625 379.540039062 3.9619140625 375.74609375 7.755859375 c 0,166,167
EndSplineSet
Validated: 33
EndChar

StartChar: uni0423
Encoding: 195 1059 26
Width: 570
Flags: W
LayerCount: 2
Fore
SplineSet
295.28515625 -8.7978515625 m 1,0,1
 251.006835938 -7.8916015625 251.006835938 -7.8916015625 201.916992188 5.6962890625 c 128,-1,2
 152.828125 19.28515625 152.828125 19.28515625 121.610351562 42.626953125 c 0,3,4
 107.090820312 53.77734375 107.090820312 53.77734375 93.384765625 69.9140625 c 128,-1,5
 79.671875 86.0576171875 79.671875 86.0576171875 78.0283203125 99.9404296875 c 0,6,7
 76.5185546875 112.680664062 76.5185546875 112.680664062 78.1396484375 117.341796875 c 128,-1,8
 79.7607421875 122.002929688 79.7607421875 122.002929688 87.0048828125 125.748046875 c 0,9,10
 95.744140625 130.267578125 95.744140625 130.267578125 99.333984375 128.853515625 c 128,-1,11
 102.924804688 127.440429688 102.924804688 127.440429688 106.502929688 118.072265625 c 0,12,13
 111.95703125 103.791992188 111.95703125 103.791992188 132.377929688 84.2646484375 c 128,-1,14
 152.799804688 64.73828125 152.799804688 64.73828125 172.629882812 54.841796875 c 0,15,16
 219.259765625 21.7822265625 219.259765625 21.7822265625 312.610351562 17.5263671875 c 0,17,18
 378.163085938 14.587890625 378.163085938 14.587890625 411.504882812 35.611328125 c 0,19,20
 458.25 65.0869140625 458.25 65.0869140625 475.444335938 108.284179688 c 0,21,22
 495.974609375 159.864257812 495.974609375 159.864257812 497.6640625 188.44140625 c 128,-1,23
 499.353515625 217.017578125 499.353515625 217.017578125 493.15625 273.458984375 c 0,24,25
 492.073242188 290.916015625 492.073242188 290.916015625 480.272460938 365.153320312 c 128,-1,26
 468.471679688 439.389648438 468.471679688 439.389648438 469.70703125 483.0625 c 1,27,28
 458.609375 475.220703125 458.609375 475.220703125 440.024414062 457.237304688 c 128,-1,29
 421.438476562 439.25390625 421.438476562 439.25390625 412.245117188 432.189453125 c 0,30,31
 399.538085938 422.491210938 399.538085938 422.491210938 389.114257812 414.530273438 c 0,32,33
 380.33984375 407.829101562 380.33984375 407.829101562 365.125 395.874023438 c 0,34,35
 332.026367188 369.8671875 332.026367188 369.8671875 322.6015625 365.435546875 c 0,36,37
 314.509765625 361.630859375 314.509765625 361.630859375 300.34375 352.100585938 c 0,38,39
 263.573242188 329.09765625 263.573242188 329.09765625 214.69140625 332.625976562 c 0,40,41
 192.694335938 334.620117188 192.694335938 334.620117188 171.815429688 349.052734375 c 128,-1,42
 150.935546875 363.485351562 150.935546875 363.485351562 144.173828125 384.010742188 c 0,43,44
 140.989257812 393.678710938 140.989257812 393.678710938 138.991210938 403.30078125 c 128,-1,45
 136.994140625 412.922851562 136.994140625 412.922851562 136.603515625 424.153320312 c 128,-1,46
 136.212890625 435.383789062 136.212890625 435.383789062 136.006835938 442.717773438 c 128,-1,47
 135.80078125 450.052734375 135.80078125 450.052734375 137.299804688 463.469726562 c 128,-1,48
 138.799804688 476.88671875 138.799804688 476.88671875 139.407226562 482.002929688 c 128,-1,49
 140.013671875 487.118164062 140.013671875 487.118164062 142.426757812 502.791015625 c 128,-1,50
 144.838867188 518.463867188 144.838867188 518.463867188 145.35546875 521.985351562 c 0,51,52
 158.557617188 610.5234375 158.557617188 610.5234375 159.399414062 662.387695312 c 0,53,54
 159.955078125 696.698242188 159.955078125 696.698242188 157.895507812 738.104492188 c 128,-1,55
 155.8359375 779.51171875 155.8359375 779.51171875 153.500976562 780.954101562 c 0,56,57
 151.708984375 782.061523438 151.708984375 782.061523438 138.584960938 775.338867188 c 128,-1,58
 125.462890625 768.616210938 125.462890625 768.616210938 105.077148438 769.478515625 c 128,-1,59
 84.6923828125 770.33984375 84.6923828125 770.33984375 79.5458984375 774.997070312 c 0,60,61
 63.66015625 789.372070312 63.66015625 789.372070312 49.6259765625 763.206054688 c 0,62,63
 44.8671875 754.334960938 44.8671875 754.334960938 39.853515625 754.334960938 c 128,-1,64
 34.8388671875 754.334960938 34.8388671875 754.334960938 35.005859375 766.994140625 c 0,65,66
 35.271484375 787.053710938 35.271484375 787.053710938 63.322265625 802.3203125 c 0,67,68
 76.7568359375 809.631835938 76.7568359375 809.631835938 86.80078125 806.623046875 c 128,-1,69
 96.84375 803.615234375 96.84375 803.615234375 100.092773438 799.700195312 c 128,-1,70
 103.341796875 795.78515625 103.341796875 795.78515625 112.055664062 794.150390625 c 0,71,72
 126.416992188 791.45703125 126.416992188 791.45703125 154.391601562 812.80859375 c 0,73,74
 166.801757812 822.279296875 166.801757812 822.279296875 175.450195312 822.953125 c 128,-1,75
 184.100585938 823.627929688 184.100585938 823.627929688 188.584960938 814.299804688 c 128,-1,76
 193.061523438 804.989257812 193.061523438 804.989257812 193.899414062 746.453125 c 128,-1,77
 194.737304688 687.916992188 194.737304688 687.916992188 191.389648438 618.413085938 c 0,78,79
 187.130859375 529.995117188 187.130859375 529.995117188 176.6171875 477.161132812 c 0,80,81
 171.3359375 450.619140625 171.3359375 450.619140625 170.986328125 424.498046875 c 128,-1,82
 170.635742188 398.377929688 170.635742188 398.377929688 175.438476562 389.2109375 c 0,83,84
 191.2421875 366.435546875 191.2421875 366.435546875 215.3828125 359.467773438 c 128,-1,85
 239.524414062 352.500976562 239.524414062 352.500976562 262.635742188 358.33984375 c 128,-1,86
 285.747070312 364.1796875 285.747070312 364.1796875 308.041992188 378.55078125 c 0,87,88
 330.58203125 393.208984375 330.58203125 393.208984375 332.981445312 393.208984375 c 128,-1,89
 335.383789062 393.208984375 335.383789062 393.208984375 345.302734375 401.87109375 c 128,-1,90
 355.209960938 410.520507812 355.209960938 410.520507812 367.708007812 419.860351562 c 0,91,92
 434.47265625 469.745117188 434.47265625 469.745117188 446.440429688 487.514648438 c 0,93,94
 450.232421875 493.145507812 450.232421875 493.145507812 460.228515625 504.1953125 c 0,95,96
 468.638671875 513.493164062 468.638671875 513.493164062 470.666992188 522.729492188 c 128,-1,97
 472.6953125 531.966796875 472.6953125 531.966796875 475.946289062 575.770507812 c 0,98,99
 482.822265625 668.442382812 482.822265625 668.442382812 490.609375 727.68359375 c 0,100,101
 494.461914062 756.997070312 494.461914062 756.997070312 496.232421875 780.231445312 c 0,102,103
 497.885742188 801.916015625 497.885742188 801.916015625 502.098632812 807.442382812 c 128,-1,104
 506.311523438 812.967773438 506.311523438 812.967773438 518.424804688 809.33984375 c 0,105,106
 527.696289062 806.561523438 527.696289062 806.561523438 530.802734375 799.2890625 c 128,-1,107
 533.908203125 792.016601562 533.908203125 792.016601562 535.65625 768.993164062 c 0,108,109
 537.471679688 745.080078125 537.471679688 745.080078125 513.279296875 526.475585938 c 0,110,111
 508.275390625 481.264648438 508.275390625 481.264648438 517.833007812 383.067382812 c 128,-1,112
 527.390625 284.87109375 527.390625 284.87109375 527.944335938 269.94921875 c 0,113,114
 531.446289062 175.59765625 531.446289062 175.59765625 521.334960938 135.379882812 c 128,-1,115
 511.224609375 95.162109375 511.224609375 95.162109375 477.653320312 49.9189453125 c 0,116,117
 463.6953125 31.109375 463.6953125 31.109375 426.1953125 12.1181640625 c 128,-1,118
 388.694335938 -6.873046875 388.694335938 -6.873046875 367.250976562 -9.173828125 c 2,119,-1
 280.78515625 -9.0810546875 l 2,120,121
 280.033203125 -8.7978515625 280.033203125 -8.7978515625 295.28515625 -8.7978515625 c 1,0,1
EndSplineSet
Validated: 33
EndChar

StartChar: uni0424
Encoding: 196 1060 27
Width: 747
Flags: W
LayerCount: 2
Fore
SplineSet
266.791015625 0.1826171875 m 0,0,1
 229.73046875 13.3681640625 229.73046875 13.3681640625 189.5859375 63.0078125 c 0,2,3
 170.00390625 87.22265625 170.00390625 87.22265625 150.7890625 116.647460938 c 128,-1,4
 131.573242188 146.073242188 131.573242188 146.073242188 131.573242188 151.845703125 c 0,5,6
 131.573242188 158.122070312 131.573242188 158.122070312 135.860351562 161.552734375 c 128,-1,7
 140.146484375 164.984375 140.146484375 164.984375 144.549804688 162.231445312 c 128,-1,8
 149.021484375 159.4375 149.021484375 159.4375 159.759765625 141.842773438 c 0,9,10
 174.194335938 118.193359375 174.194335938 118.193359375 183.89453125 106.243164062 c 128,-1,11
 193.594726562 94.2919921875 193.594726562 94.2919921875 215.798828125 72.802734375 c 0,12,13
 256.600585938 33.3154296875 256.600585938 33.3154296875 279.346679688 25.732421875 c 0,14,15
 291.552734375 21.6630859375 291.552734375 21.6630859375 314.245117188 25.57421875 c 0,16,17
 330.272460938 28.3369140625 330.272460938 28.3369140625 335.125 30.607421875 c 128,-1,18
 339.9765625 32.87890625 339.9765625 32.87890625 347.2890625 41.0400390625 c 0,19,20
 365.118164062 60.939453125 365.118164062 60.939453125 371.643554688 88.90625 c 0,21,22
 375.455078125 105.24609375 375.455078125 105.24609375 378.002929688 108.451171875 c 0,23,24
 383.951171875 115.930664062 383.951171875 115.930664062 386.000976562 165.017578125 c 128,-1,25
 388.049804688 214.103515625 388.049804688 214.103515625 384.026367188 252.71484375 c 0,26,27
 381.283203125 279.038085938 381.283203125 279.038085938 373.427734375 330.122070312 c 128,-1,28
 365.571289062 381.206054688 365.571289062 381.206054688 363.833984375 384.017578125 c 0,29,30
 362.815429688 385.6640625 362.815429688 385.6640625 361.107421875 412.26953125 c 128,-1,31
 359.399414062 438.873046875 359.399414062 438.873046875 358.509765625 440.34375 c 128,-1,32
 357.620117188 441.810546875 357.620117188 441.810546875 353.21484375 474.024414062 c 0,33,34
 337.8125 586.6796875 337.8125 586.6796875 327.453125 636.418945312 c 0,35,36
 322.140625 661.918945312 322.140625 661.918945312 322.131835938 675.340820312 c 0,37,38
 322.125 687.98046875 322.125 687.98046875 315.283203125 715.186523438 c 128,-1,39
 308.44140625 742.391601562 308.44140625 742.391601562 302.572265625 753.124023438 c 128,-1,40
 296.668945312 763.919921875 296.668945312 763.919921875 275.193359375 774.385742188 c 0,41,42
 258.2578125 782.638671875 258.2578125 782.638671875 234.9765625 788.85546875 c 128,-1,43
 211.6953125 795.072265625 211.6953125 795.072265625 208.1640625 792.284179688 c 0,44,45
 205.396484375 790.098632812 205.396484375 790.098632812 182.578125 786.858398438 c 0,46,47
 143.173828125 781.26171875 143.173828125 781.26171875 118.571289062 760.688476562 c 0,48,49
 97.9921875 743.48046875 97.9921875 743.48046875 90.9775390625 730.564453125 c 128,-1,50
 83.9619140625 717.647460938 83.9619140625 717.647460938 77.8857421875 685.780273438 c 0,51,52
 72.3095703125 656.534179688 72.3095703125 656.534179688 69.728515625 646.844726562 c 0,53,54
 67.259765625 637.569335938 67.259765625 637.569335938 67.224609375 609.900390625 c 128,-1,55
 67.189453125 582.23046875 67.189453125 582.23046875 69.6318359375 571.173828125 c 128,-1,56
 72.119140625 559.920898438 72.119140625 559.920898438 75.322265625 535.760742188 c 0,57,58
 82.546875 481.287109375 82.546875 481.287109375 92.2607421875 458.310546875 c 0,59,60
 99.8896484375 440.266601562 99.8896484375 440.266601562 128.825195312 411.846679688 c 0,61,62
 147.159179688 393.83984375 147.159179688 393.83984375 161.872070312 388.40625 c 128,-1,63
 176.5859375 382.971679688 176.5859375 382.971679688 206.73828125 383.072265625 c 0,64,65
 264.2109375 383.262695312 264.2109375 383.262695312 302.916015625 409.443359375 c 0,66,67
 314.533203125 417.301757812 314.533203125 417.301757812 316.96875 413.452148438 c 0,68,69
 321.837890625 405.756835938 321.837890625 405.756835938 311.016601562 393.432617188 c 0,70,71
 297.353515625 377.872070312 297.353515625 377.872070312 262.958007812 366.849609375 c 128,-1,72
 228.563476562 355.827148438 228.563476562 355.827148438 194.658203125 356.143554688 c 0,73,74
 170.497070312 356.369140625 170.497070312 356.369140625 150.930664062 364.651367188 c 128,-1,75
 131.366210938 372.930664062 131.366210938 372.930664062 120.362304688 381.873046875 c 0,76,77
 104.272460938 394.950195312 104.272460938 394.950195312 87.4765625 413.231445312 c 128,-1,78
 70.6806640625 431.512695312 70.6806640625 431.512695312 66.6162109375 440.374023438 c 0,79,80
 61.1220703125 452.3515625 61.1220703125 452.3515625 55.2041015625 461.84765625 c 0,81,82
 47.703125 473.884765625 47.703125 473.884765625 37.79296875 523.143554688 c 0,83,84
 32.3720703125 550.092773438 32.3720703125 550.092773438 37.47265625 644.471679688 c 0,85,86
 40.6923828125 704.032226562 40.6923828125 704.032226562 52.8203125 717.431640625 c 0,87,88
 57.044921875 722.098632812 57.044921875 722.098632812 63.0869140625 734.958007812 c 128,-1,89
 69.1279296875 747.814453125 69.1279296875 747.814453125 77.5322265625 758.249023438 c 128,-1,90
 85.9365234375 768.684570312 85.9365234375 768.684570312 85.9365234375 770.869140625 c 128,-1,91
 85.9365234375 773.0546875 85.9365234375 773.0546875 105.021484375 789.1171875 c 128,-1,92
 124.10546875 805.180664062 124.10546875 805.180664062 141.93359375 810.288085938 c 0,93,94
 180.512695312 821.342773438 180.512695312 821.342773438 214.791992188 820.696289062 c 2,95,-1
 245.6640625 820.114257812 l 1,96,-1
 275.193359375 805.80078125 l 2,97,98
 315.724609375 786.154296875 315.724609375 786.154296875 329.541015625 761.892578125 c 128,-1,99
 343.357421875 737.629882812 343.357421875 737.629882812 357.893554688 660.577148438 c 0,100,101
 359.16015625 653.86328125 359.16015625 653.86328125 364.62109375 627.024414062 c 0,102,103
 375.094726562 575.5390625 375.094726562 575.5390625 382.682617188 514.287109375 c 0,104,105
 387.412109375 476.112304688 387.412109375 476.112304688 390.348632812 464.032226562 c 128,-1,106
 393.286132812 451.951171875 393.286132812 451.951171875 401.024414062 438.845703125 c 0,107,108
 410.2265625 423.262695312 410.2265625 423.262695312 424.940429688 408.787109375 c 128,-1,109
 439.654296875 394.311523438 439.654296875 394.311523438 446.009765625 394.58984375 c 0,110,111
 513.935546875 397.559570312 513.935546875 397.559570312 530.743164062 403.530273438 c 0,112,113
 546.444335938 409.108398438 546.444335938 409.108398438 571.637695312 424.200195312 c 128,-1,114
 596.831054688 439.291992188 596.831054688 439.291992188 606.767578125 449.071289062 c 0,115,116
 631.8359375 473.745117188 631.8359375 473.745117188 641.834960938 505.129882812 c 0,117,118
 644.750976562 514.28125 644.750976562 514.28125 647.2265625 519.65625 c 128,-1,119
 649.703125 525.02734375 649.703125 525.02734375 656.587890625 547.83984375 c 0,120,121
 668.239257812 586.438476562 668.239257812 586.438476562 665.060546875 646.427734375 c 128,-1,122
 661.881835938 706.41796875 661.881835938 706.41796875 647.272460938 723.65625 c 0,123,124
 642.719726562 729.030273438 642.719726562 729.030273438 638.91015625 736.641601562 c 128,-1,125
 635.099609375 744.255859375 635.099609375 744.255859375 621.583007812 755.420898438 c 128,-1,126
 608.069335938 766.58203125 608.069335938 766.58203125 605.3828125 770 c 0,127,128
 602.049804688 774.240234375 602.049804688 774.240234375 574.3671875 783.122070312 c 128,-1,129
 546.685546875 792.002929688 546.685546875 792.002929688 536.66015625 792.048828125 c 0,130,131
 524.311523438 792.103515625 524.311523438 792.103515625 515.63671875 795.126953125 c 128,-1,132
 506.965820312 798.149414062 506.965820312 798.149414062 472.956054688 794.901367188 c 0,133,134
 438.494140625 791.610351562 438.494140625 791.610351562 423.696289062 784.694335938 c 128,-1,135
 408.8984375 777.778320312 408.8984375 777.778320312 385.833007812 754.181640625 c 0,136,137
 362.1484375 729.951171875 362.1484375 729.951171875 358.266601562 733.171875 c 0,138,139
 351.662109375 738.651367188 351.662109375 738.651367188 357.49609375 761.814453125 c 0,140,141
 363.614257812 786.11328125 363.614257812 786.11328125 400.700195312 803.950195312 c 0,142,143
 421.048828125 813.736328125 421.048828125 813.736328125 443.549804688 816.608398438 c 128,-1,144
 466.051757812 819.481445312 466.051757812 819.481445312 510.37890625 817.952148438 c 0,145,146
 571.426757812 815.844726562 571.426757812 815.844726562 602.700195312 801.5625 c 0,147,148
 610.4453125 798.026367188 610.4453125 798.026367188 626.860351562 790.489257812 c 0,149,150
 664.138671875 773.375 664.138671875 773.375 687.326171875 723.827148438 c 0,151,152
 703.245117188 689.811523438 703.245117188 689.811523438 707.827148438 672.369140625 c 128,-1,153
 712.41015625 654.926757812 712.41015625 654.926757812 712.40625 628.366210938 c 0,154,155
 712.3984375 597.48828125 712.3984375 597.48828125 702.71875 566.0234375 c 128,-1,156
 693.037109375 534.551757812 693.037109375 534.551757812 686.491210938 521.733398438 c 128,-1,157
 679.963867188 508.95703125 679.963867188 508.95703125 666.825195312 482.387695312 c 0,158,159
 652.584960938 453.590820312 652.584960938 453.590820312 632.814453125 434.283203125 c 128,-1,160
 613.043945312 414.9765625 613.043945312 414.9765625 579.44140625 397.05078125 c 0,161,162
 544.654296875 378.493164062 544.654296875 378.493164062 529.298828125 374.61328125 c 128,-1,163
 513.943359375 370.734375 513.943359375 370.734375 473.693359375 370.331054688 c 0,164,165
 443.87109375 370.033203125 443.87109375 370.033203125 434.34765625 372.999023438 c 128,-1,166
 424.823242188 375.963867188 424.823242188 375.963867188 410.458984375 390.017578125 c 2,167,-1
 398.669921875 401.549804688 l 1,168,-1
 399.442382812 389.470703125 l 2,169,170
 400.213867188 377.409179688 400.213867188 377.409179688 405.549804688 338.350585938 c 0,171,172
 421.66015625 220.45703125 421.66015625 220.45703125 413.893554688 152.114257812 c 0,173,174
 408.37109375 103.517578125 408.37109375 103.517578125 397.83203125 74.2099609375 c 128,-1,175
 387.291992188 44.90234375 387.291992188 44.90234375 367.583984375 23.3408203125 c 0,176,177
 354.551757812 9.0830078125 354.551757812 9.0830078125 346.327148438 4.8017578125 c 128,-1,178
 338.102539062 0.5205078125 338.102539062 0.5205078125 318.510742188 -2.2041015625 c 0,179,180
 286.1484375 -6.705078125 286.1484375 -6.705078125 266.791015625 0.1826171875 c 0,0,1
EndSplineSet
Validated: 33
EndChar

StartChar: uni0425
Encoding: 197 1061 28
Width: 858
Flags: W
LayerCount: 2
Fore
SplineSet
340.252929688 828.715820312 m 0,0,1
 357.801757812 828.646484375 357.801757812 828.646484375 379.3359375 825.740234375 c 0,2,3
 397.482421875 823.291015625 397.482421875 823.291015625 402.891601562 820.701171875 c 128,-1,4
 408.30078125 818.112304688 408.30078125 818.112304688 424.090820312 806.03125 c 0,5,6
 464.477539062 775.131835938 464.477539062 775.131835938 466.87109375 649.766601562 c 1,7,8
 480.286132812 687.911132812 480.286132812 687.911132812 497.751953125 720.263671875 c 0,9,10
 519.87890625 761.248046875 519.87890625 761.248046875 562.481445312 793.53125 c 128,-1,11
 605.083984375 825.815429688 605.083984375 825.815429688 658.182617188 826.010742188 c 0,12,13
 661.96484375 826.025390625 661.96484375 826.025390625 665.7421875 825.850585938 c 0,14,15
 735.291015625 821.59375 735.291015625 821.59375 797.810546875 772.622070312 c 0,16,17
 815.533203125 758.516601562 815.533203125 758.516601562 819.643554688 753.609375 c 128,-1,18
 823.75390625 748.701171875 823.75390625 748.701171875 823.036132812 742.500976562 c 0,19,20
 821.97265625 733.302734375 821.97265625 733.302734375 816.602539062 732.455078125 c 128,-1,21
 811.232421875 731.608398438 811.232421875 731.608398438 788.177734375 749.91796875 c 0,22,23
 786.68359375 751.10546875 786.68359375 751.10546875 780.134765625 756.370117188 c 128,-1,24
 773.586914062 761.633789062 773.586914062 761.633789062 771.798828125 762.993164062 c 128,-1,25
 770.01171875 764.352539062 770.01171875 764.352539062 763.751953125 768.958984375 c 128,-1,26
 757.491210938 773.565429688 757.491210938 773.565429688 754.489257812 775.188476562 c 128,-1,27
 751.487304688 776.8125 751.487304688 776.8125 744.732421875 780.736328125 c 128,-1,28
 737.977539062 784.659179688 737.977539062 784.659179688 732.977539062 786.522460938 c 128,-1,29
 727.977539062 788.385742188 727.977539062 788.385742188 719.9453125 791.602539062 c 128,-1,30
 711.913085938 794.818359375 711.913085938 794.818359375 704.131835938 796.896484375 c 128,-1,31
 696.3515625 798.975585938 696.3515625 798.975585938 686.258789062 801.459960938 c 128,-1,32
 676.166015625 803.944335938 676.166015625 803.944335938 664.959960938 806.096679688 c 0,33,34
 638.0703125 811.260742188 638.0703125 811.260742188 610.28125 795.033203125 c 128,-1,35
 582.493164062 778.805664062 582.493164062 778.805664062 561.029296875 750.142578125 c 128,-1,36
 539.565429688 721.478515625 539.565429688 721.478515625 523.630859375 690.513671875 c 128,-1,37
 507.696289062 659.549804688 507.696289062 659.549804688 499.485351562 631.560546875 c 0,38,39
 471.373046875 538.708007812 471.373046875 538.708007812 462.655273438 455.930664062 c 128,-1,40
 453.936523438 373.15234375 453.936523438 373.15234375 454.78125 264.02734375 c 0,41,42
 455.12890625 219.140625 455.12890625 219.140625 460.1484375 177.6640625 c 128,-1,43
 465.16796875 136.186523438 465.16796875 136.186523438 474.938476562 100.125976562 c 128,-1,44
 484.709960938 64.0654296875 484.709960938 64.0654296875 501.508789062 41.609375 c 128,-1,45
 518.307617188 19.154296875 518.307617188 19.154296875 539.9609375 17.3056640625 c 0,46,47
 584.346679688 16.609375 584.346679688 16.609375 623.901367188 29.7216796875 c 128,-1,48
 663.456054688 42.833984375 663.456054688 42.833984375 719.033203125 70.05078125 c 1,49,50
 735.8984375 72.1201171875 735.8984375 72.1201171875 741.387695312 67.19921875 c 128,-1,51
 746.876953125 62.2783203125 746.876953125 62.2783203125 746.876953125 52.6318359375 c 0,52,53
 742.956054688 35.8076171875 742.956054688 35.8076171875 637.90625 6.6435546875 c 0,54,55
 609.901367188 0.7255859375 609.901367188 0.7255859375 562.123046875 -3.984375 c 0,56,57
 550.349609375 -5.14453125 550.349609375 -5.14453125 533.223632812 -3.2783203125 c 0,58,59
 460.6015625 17.6923828125 460.6015625 17.6923828125 432.397460938 142.899414062 c 0,60,61
 424.267578125 178.995117188 424.267578125 178.995117188 421.735351562 229.499023438 c 1,62,63
 389.82421875 141.759765625 389.82421875 141.759765625 369.221679688 101.603515625 c 0,64,65
 313.26953125 -7.458984375 313.26953125 -7.458984375 206.546875 -8.6455078125 c 0,66,67
 127.013671875 -6.4150390625 127.013671875 -6.4150390625 77.7470703125 24.7333984375 c 0,68,69
 67.55078125 31.2958984375 67.55078125 31.2958984375 54.71484375 41.833984375 c 0,70,71
 44.7177734375 50.0419921875 44.7177734375 50.0419921875 38.9306640625 58.6591796875 c 128,-1,72
 33.1435546875 67.2763671875 33.1435546875 67.2763671875 35.8759765625 70.8583984375 c 0,73,74
 36.662109375 71.888671875 36.662109375 71.888671875 37.72265625 73.8564453125 c 128,-1,75
 38.7822265625 75.8232421875 38.7822265625 75.8232421875 39.3671875 76.279296875 c 128,-1,76
 39.9521484375 76.736328125 39.9521484375 76.736328125 41.6669921875 76.9580078125 c 128,-1,77
 43.3828125 77.1796875 43.3828125 77.1796875 46.2841796875 75.873046875 c 128,-1,78
 49.1865234375 74.5673828125 49.1865234375 74.5673828125 54.0751953125 71.85546875 c 0,79,80
 66.18359375 65.4931640625 66.18359375 65.4931640625 91.81640625 50.490234375 c 128,-1,81
 117.44921875 35.4873046875 117.44921875 35.4873046875 131.576171875 28.2373046875 c 128,-1,82
 145.703125 20.98828125 145.703125 20.98828125 167.9296875 14.7548828125 c 128,-1,83
 190.155273438 8.521484375 190.155273438 8.521484375 210.963867188 9.6728515625 c 0,84,85
 238.625 11.5068359375 238.625 11.5068359375 256.056640625 18.09765625 c 128,-1,86
 273.48828125 24.6884765625 273.48828125 24.6884765625 296.318359375 41.7109375 c 0,87,88
 306.650390625 49.4150390625 306.650390625 49.4150390625 316.181640625 62.67578125 c 128,-1,89
 325.712890625 75.9365234375 325.712890625 75.9365234375 330.520507812 85.1875 c 128,-1,90
 335.328125 94.439453125 335.328125 94.439453125 345.368164062 116.731445312 c 128,-1,91
 355.408203125 139.0234375 355.408203125 139.0234375 358.973632812 146.484375 c 0,92,93
 373.837890625 177.587890625 373.837890625 177.587890625 385.6484375 218.42578125 c 128,-1,94
 397.458984375 259.263671875 397.458984375 259.263671875 402.255859375 283.418945312 c 128,-1,95
 407.053710938 307.575195312 407.053710938 307.575195312 416.301757812 359.243164062 c 0,96,97
 422.649414062 394.70703125 422.649414062 394.70703125 428.032226562 430.337890625 c 128,-1,98
 433.415039062 465.969726562 433.415039062 465.969726562 439.21875 532.662109375 c 128,-1,99
 445.022460938 599.35546875 445.022460938 599.35546875 443.37109375 649.51171875 c 128,-1,100
 441.720703125 699.66796875 441.720703125 699.66796875 427.516601562 743.663085938 c 128,-1,101
 413.313476562 787.657226562 413.313476562 787.657226562 385.166015625 798.412109375 c 0,102,103
 321.91015625 822.583007812 321.91015625 822.583007812 238.604492188 787.12890625 c 0,104,105
 224.739257812 781.227539062 224.739257812 781.227539062 198.610351562 762.106445312 c 128,-1,106
 172.481445312 742.985351562 172.481445312 742.985351562 160.18359375 729.701171875 c 0,107,108
 142.391601562 710.481445312 142.391601562 710.481445312 135.390625 710.47265625 c 0,109,110
 127.278320312 710.462890625 127.278320312 710.462890625 124.84765625 712.477539062 c 128,-1,111
 122.41796875 714.4921875 122.41796875 714.4921875 122.41796875 723.7890625 c 0,112,113
 122.41796875 732.46484375 122.41796875 732.46484375 151.021484375 755.744140625 c 0,114,115
 237.90625 829.122070312 237.90625 829.122070312 340.252929688 828.715820312 c 0,0,1
474.974609375 684.674804688 m 1024,116,-1
EndSplineSet
Validated: 33
EndChar

StartChar: uni0426
Encoding: 198 1062 29
Width: 804
Flags: W
LayerCount: 2
Fore
SplineSet
661.145507812 -140.588867188 m 0,0,1
 636.9609375 -133.09765625 636.9609375 -133.09765625 628.166015625 -114.1640625 c 128,-1,2
 619.372070312 -95.2294921875 619.372070312 -95.2294921875 627.1953125 -74.9794921875 c 128,-1,3
 635.01953125 -54.728515625 635.01953125 -54.728515625 655.212890625 -42.5078125 c 0,4,5
 657.235351562 -39.23828125 657.235351562 -39.23828125 662.653320312 -34.4150390625 c 128,-1,6
 668.071289062 -29.5927734375 668.071289062 -29.5927734375 671.275390625 -26.505859375 c 128,-1,7
 674.479492188 -23.41796875 674.479492188 -23.41796875 676.18359375 -18.021484375 c 128,-1,8
 677.887695312 -12.625 677.887695312 -12.625 672.482421875 -8.20703125 c 1,9,10
 670.466796875 6.1572265625 670.466796875 6.1572265625 664.969726562 11.8828125 c 128,-1,11
 659.473632812 17.6083984375 659.473632812 17.6083984375 651.204101562 15.626953125 c 128,-1,12
 642.935546875 13.64453125 642.935546875 13.64453125 634.77734375 9.390625 c 128,-1,13
 626.620117188 5.1376953125 626.620117188 5.1376953125 615.958984375 -0.5712890625 c 128,-1,14
 605.297851562 -6.2802734375 605.297851562 -6.2802734375 598.340820312 -7.892578125 c 0,15,16
 579.978515625 -16.0546875 579.978515625 -16.0546875 562.4765625 -18.884765625 c 128,-1,17
 544.974609375 -21.7138671875 544.974609375 -21.7138671875 526.99609375 -15.4990234375 c 128,-1,18
 509.017578125 -9.283203125 509.017578125 -9.283203125 499.475585938 8.42578125 c 0,19,20
 485.654296875 25.8779296875 485.654296875 25.8779296875 480.663085938 47.27734375 c 128,-1,21
 475.670898438 68.6767578125 475.670898438 68.6767578125 475.129882812 102.635742188 c 128,-1,22
 474.587890625 136.595703125 474.587890625 136.595703125 473.581054688 146.317382812 c 0,23,24
 472.99609375 149.931640625 472.99609375 149.931640625 473.021484375 163.24609375 c 0,25,26
 472.263671875 182.728515625 472.263671875 182.728515625 470.240234375 182.360351562 c 0,27,28
 416.892578125 46.4248046875 416.892578125 46.4248046875 314.499023438 2.5771484375 c 0,29,30
 300.186523438 -5.8525390625 300.186523438 -5.8525390625 262.842773438 -10.701171875 c 128,-1,31
 225.499023438 -15.5498046875 225.499023438 -15.5498046875 197.094726562 -15.6796875 c 0,32,33
 172.879882812 -15.791015625 172.879882812 -15.791015625 142.51953125 -1.01953125 c 128,-1,34
 112.16015625 13.7509765625 112.16015625 13.7509765625 101.768554688 34.2802734375 c 0,35,36
 95.111328125 47.4326171875 95.111328125 47.4326171875 92.701171875 56.7177734375 c 128,-1,37
 90.291015625 66.0029296875 90.291015625 66.0029296875 89.9033203125 79.708984375 c 128,-1,38
 89.515625 93.4150390625 89.515625 93.4150390625 89.158203125 96.8779296875 c 0,39,40
 88.44921875 205.114257812 88.44921875 205.114257812 103.116210938 259.06640625 c 1,41,42
 113.981445312 338.8359375 113.981445312 338.8359375 140.837890625 460.064453125 c 0,43,44
 142.91015625 478.524414062 142.91015625 478.524414062 147.458984375 514.580078125 c 128,-1,45
 152.0078125 550.635742188 152.0078125 550.635742188 154.112304688 569.157226562 c 128,-1,46
 156.215820312 587.677734375 156.215820312 587.677734375 159.333007812 623.83203125 c 128,-1,47
 162.44921875 659.985351562 162.44921875 659.985351562 161.657226562 678.641601562 c 128,-1,48
 160.864257812 697.297851562 160.864257812 697.297851562 159.619140625 733.623046875 c 0,49,50
 159.553710938 735.249023438 159.553710938 735.249023438 159.518554688 737.015625 c 128,-1,51
 159.482421875 738.782226562 159.482421875 738.782226562 159.444335938 741.568359375 c 0,52,53
 159.29296875 752.4296875 159.29296875 752.4296875 158.713867188 758.051757812 c 128,-1,54
 158.134765625 763.673828125 158.134765625 763.673828125 155.848632812 770.538085938 c 128,-1,55
 153.5625 777.403320312 153.5625 777.403320312 147.779296875 776.8125 c 128,-1,56
 141.99609375 776.221679688 141.99609375 776.221679688 132.794921875 768.622070312 c 1,57,58
 120.057617188 764.66796875 120.057617188 764.66796875 105.96484375 766.133789062 c 128,-1,59
 91.8720703125 767.598632812 91.8720703125 767.598632812 80.181640625 771.231445312 c 128,-1,60
 68.4912109375 774.86328125 68.4912109375 774.86328125 57.33984375 770.409179688 c 128,-1,61
 46.1884765625 765.955078125 46.1884765625 765.955078125 39.3349609375 750.161132812 c 1,62,63
 33.650390625 759.645507812 33.650390625 759.645507812 35.419921875 769.883789062 c 128,-1,64
 37.1904296875 780.123046875 37.1904296875 780.123046875 45.9375 787.978515625 c 128,-1,65
 54.6845703125 795.834960938 54.6845703125 795.834960938 65.01953125 800.494140625 c 128,-1,66
 75.35546875 805.15234375 75.35546875 805.15234375 86.802734375 803.477539062 c 128,-1,67
 98.2509765625 801.802734375 98.2509765625 801.802734375 105.421875 792.979492188 c 1,68,69
 116.063476562 788.330078125 116.063476562 788.330078125 132.778320312 795.875 c 128,-1,70
 149.493164062 803.418945312 149.493164062 803.418945312 161.865234375 812.165039062 c 128,-1,71
 174.237304688 820.91015625 174.237304688 820.91015625 183.958984375 817.124023438 c 128,-1,72
 193.6796875 813.336914062 193.6796875 813.336914062 194.526367188 789.23828125 c 0,73,74
 201.232421875 605.57421875 201.232421875 605.57421875 180.265625 474.217773438 c 0,75,76
 174.796875 443.58984375 174.796875 443.58984375 152.6328125 338.493164062 c 128,-1,77
 130.467773438 233.395507812 130.467773438 233.395507812 122.990234375 175.497070312 c 0,78,79
 122.62890625 170.9453125 122.62890625 170.9453125 121.123046875 154.40234375 c 128,-1,80
 119.6171875 137.860351562 119.6171875 137.860351562 119.29296875 131.060546875 c 128,-1,81
 118.967773438 124.26171875 118.967773438 124.26171875 118.732421875 111.602539062 c 128,-1,82
 118.49609375 98.9423828125 118.49609375 98.9423828125 119.802734375 89.1181640625 c 128,-1,83
 121.110351562 79.29296875 121.110351562 79.29296875 123.739257812 69.73828125 c 0,84,85
 136.795898438 22.2919921875 136.795898438 22.2919921875 196.8046875 12.9970703125 c 0,86,87
 226.48828125 8.3994140625 226.48828125 8.3994140625 278.174804688 23.9794921875 c 128,-1,88
 329.861328125 39.5595703125 329.861328125 39.5595703125 357.278320312 60.3017578125 c 1,89,90
 425.090820312 132.194335938 425.090820312 132.194335938 458.614257812 256.084960938 c 0,91,92
 497.325195312 391.7578125 497.325195312 391.7578125 514.51171875 514.299804688 c 0,93,94
 515.498046875 524.908203125 515.498046875 524.908203125 523.767578125 634.504882812 c 128,-1,95
 532.037109375 744.100585938 532.037109375 744.100585938 540.375 800.43359375 c 1,96,97
 555.479492188 809.149414062 555.479492188 809.149414062 565.205078125 801.759765625 c 128,-1,98
 574.930664062 794.37109375 574.930664062 794.37109375 577.411132812 778.284179688 c 128,-1,99
 579.890625 762.196289062 579.890625 762.196289062 580.909179688 744.98828125 c 128,-1,100
 581.927734375 727.78125 581.927734375 727.78125 579.6171875 716.859375 c 0,101,102
 570.418945312 576.280273438 570.418945312 576.280273438 543.16015625 425.897460938 c 0,103,104
 522.9453125 309.143554688 522.9453125 309.143554688 515.372070312 263.470703125 c 0,105,106
 514.444335938 248.295898438 514.444335938 248.295898438 511.8515625 213.8359375 c 128,-1,107
 509.259765625 179.376953125 509.259765625 179.376953125 508.090820312 159.748046875 c 128,-1,108
 506.921875 140.120117188 506.921875 140.120117188 506.834960938 111.42578125 c 128,-1,109
 506.747070312 82.7314453125 506.747070312 82.7314453125 508.995117188 58.853515625 c 0,110,111
 513.908203125 20.755859375 513.908203125 20.755859375 548.614257812 10.7646484375 c 128,-1,112
 583.3203125 0.7744140625 583.3203125 0.7744140625 611.560546875 24.4443359375 c 0,113,114
 678.1328125 81.7978515625 678.1328125 81.7978515625 685.650390625 25.5693359375 c 0,115,116
 687.3671875 22.7822265625 687.3671875 22.7822265625 689.610351562 17.107421875 c 128,-1,117
 691.853515625 11.4326171875 691.853515625 11.4326171875 693.620117188 7.61328125 c 128,-1,118
 695.38671875 3.79296875 695.38671875 3.79296875 697.918945312 0.7578125 c 128,-1,119
 700.451171875 -2.27734375 700.451171875 -2.27734375 704.002929688 -1.1962890625 c 128,-1,120
 707.5546875 -0.115234375 707.5546875 -0.115234375 712.110351562 5.423828125 c 0,121,122
 722.977539062 19.150390625 722.977539062 19.150390625 753.447265625 24.7001953125 c 0,123,124
 770.831054688 27.8662109375 770.831054688 27.8662109375 769.108398438 20.46484375 c 0,125,126
 767.926757812 15.3916015625 767.926757812 15.3916015625 756.670898438 6.0185546875 c 0,127,128
 694.380859375 -25.1240234375 694.380859375 -25.1240234375 727.11328125 -64.41796875 c 0,129,130
 727.719726562 -69.7041015625 727.719726562 -69.7041015625 730.439453125 -78.06640625 c 128,-1,131
 733.159179688 -86.4287109375 733.159179688 -86.4287109375 735.118164062 -92.458984375 c 128,-1,132
 737.076171875 -98.48828125 737.076171875 -98.48828125 736.53515625 -105.90234375 c 128,-1,133
 735.994140625 -113.31640625 735.994140625 -113.31640625 731.349609375 -119.068359375 c 0,134,135
 724.403320312 -138.399414062 724.403320312 -138.399414062 701.458007812 -142.958007812 c 128,-1,136
 678.512695312 -147.516601562 678.512695312 -147.516601562 661.145507812 -140.588867188 c 0,0,1
697.747070312 -116.283203125 m 1,137,138
 710.4296875 -100.189453125 710.4296875 -100.189453125 701.142578125 -68.740234375 c 0,139,140
 692.887695312 -40.78515625 692.887695312 -40.78515625 678.634765625 -52.775390625 c 0,141,142
 673.538085938 -57.0625 673.538085938 -57.0625 668.5546875 -67.095703125 c 1,143,144
 655.11328125 -79.369140625 655.11328125 -79.369140625 655.705078125 -96.3603515625 c 128,-1,145
 656.295898438 -113.3515625 656.295898438 -113.3515625 668.024414062 -119.497070312 c 128,-1,146
 679.752929688 -125.641601562 679.752929688 -125.641601562 697.747070312 -116.283203125 c 1,137,138
EndSplineSet
Validated: 33
EndChar

StartChar: uni0427
Encoding: 199 1063 30
Width: 728
Flags: W
LayerCount: 2
Fore
SplineSet
475.615234375 0.703125 m 0,0,1
 451.256835938 23.1552734375 451.256835938 23.1552734375 444.126953125 44.62109375 c 0,2,3
 436.625976562 67.2080078125 436.625976562 67.2080078125 435.071289062 157.53515625 c 0,4,5
 434.21484375 207.318359375 434.21484375 207.318359375 435.123046875 221.3046875 c 128,-1,6
 436.03125 235.290039062 436.03125 235.290039062 442.077148438 265.416015625 c 0,7,8
 450.240234375 306.0859375 450.240234375 306.0859375 450.240234375 330.977539062 c 0,9,10
 450.240234375 390.208984375 450.240234375 390.208984375 463.661132812 450.57421875 c 0,11,12
 466.05078125 461.32421875 466.05078125 461.32421875 467.6171875 470.737304688 c 2,13,-1
 469.181640625 480.146484375 l 1,14,-1
 460.509765625 469.392578125 l 2,15,16
 443.077148438 447.775390625 443.077148438 447.775390625 415.541992188 426.731445312 c 0,17,18
 401.666992188 416.125 401.666992188 416.125 392.208984375 408.903320312 c 0,19,20
 383.384765625 402.1640625 383.384765625 402.1640625 368.010742188 390.083984375 c 0,21,22
 334.620117188 363.848632812 334.620117188 363.848632812 325.115234375 359.379882812 c 0,23,24
 316.94140625 355.536132812 316.94140625 355.536132812 302.663085938 345.927734375 c 128,-1,25
 288.379882812 336.315429688 288.379882812 336.315429688 283.4296875 336.315429688 c 128,-1,26
 278.482421875 336.315429688 278.482421875 336.315429688 277.02734375 333.963867188 c 0,27,28
 275.193359375 330.997070312 275.193359375 330.997070312 252.028320312 328.069335938 c 128,-1,29
 228.862304688 325.141601562 228.862304688 325.141601562 216.26171875 326.283203125 c 0,30,31
 195.181640625 328.1953125 195.181640625 328.1953125 175.010742188 342.893554688 c 128,-1,32
 154.838867188 357.591796875 154.838867188 357.591796875 145.127929688 378.1171875 c 0,33,34
 138.524414062 392.07421875 138.524414062 392.07421875 138.071289062 423.002929688 c 128,-1,35
 137.6171875 453.931640625 137.6171875 453.931640625 139.172851562 456.448242188 c 128,-1,36
 140.727539062 458.965820312 140.727539062 458.965820312 142.083984375 478.478515625 c 128,-1,37
 143.440429688 497.984375 143.440429688 497.984375 146.319335938 517.297851562 c 0,38,39
 159.638671875 606.6171875 159.638671875 606.6171875 160.486328125 658.927734375 c 0,40,41
 161.047851562 693.538085938 161.047851562 693.538085938 158.969726562 735.306640625 c 128,-1,42
 156.891601562 777.075195312 156.891601562 777.075195312 154.536132812 778.530273438 c 0,43,44
 152.727539062 779.647460938 152.727539062 779.647460938 139.490234375 772.866210938 c 128,-1,45
 126.252929688 766.084960938 126.252929688 766.084960938 105.688476562 766.954101562 c 128,-1,46
 85.1259765625 767.82421875 85.1259765625 767.82421875 79.9345703125 772.521484375 c 0,47,48
 63.91015625 787.022460938 63.91015625 787.022460938 49.7529296875 760.626953125 c 0,49,50
 44.9541015625 751.678710938 44.9541015625 751.678710938 39.89453125 751.678710938 c 128,-1,51
 34.8369140625 751.678710938 34.8369140625 751.678710938 35.005859375 764.448242188 c 0,52,53
 35.2734375 784.684570312 35.2734375 784.684570312 63.5693359375 800.083007812 c 0,54,55
 77.123046875 807.458984375 77.123046875 807.458984375 87.2529296875 804.424804688 c 128,-1,56
 97.384765625 801.387695312 97.384765625 801.387695312 100.661132812 797.440429688 c 128,-1,57
 103.940429688 793.490234375 103.940429688 793.490234375 112.728515625 791.842773438 c 0,58,59
 127.215820312 789.125 127.215820312 789.125 155.434570312 810.663085938 c 0,60,61
 167.951171875 820.215820312 167.951171875 820.215820312 176.677734375 820.896484375 c 0,62,63
 182.377929688 821.340820312 182.377929688 821.340820312 184.67578125 819.828125 c 128,-1,64
 186.97265625 818.314453125 186.97265625 818.314453125 189.926757812 812.16796875 c 0,65,66
 194.442382812 802.776367188 194.442382812 802.776367188 195.288085938 743.728515625 c 128,-1,67
 196.133789062 684.680664062 196.133789062 684.680664062 192.755859375 614.568359375 c 0,68,69
 188.459960938 525.374023438 188.459960938 525.374023438 177.854492188 472.081054688 c 0,70,71
 172.528320312 445.307617188 172.528320312 445.307617188 172.174804688 418.958984375 c 128,-1,72
 171.821289062 392.609375 171.821289062 392.609375 176.665039062 383.36328125 c 0,73,74
 190.7421875 356.494140625 190.7421875 356.494140625 228.561523438 349.504882812 c 0,75,76
 243.35546875 346.770507812 243.35546875 346.770507812 258.921875 352.296875 c 128,-1,77
 274.491210938 357.823242188 274.491210938 357.823242188 281.08984375 357.823242188 c 128,-1,78
 287.693359375 357.823242188 287.693359375 357.823242188 310.427734375 372.609375 c 128,-1,79
 333.163085938 387.395507812 333.163085938 387.395507812 335.5859375 387.395507812 c 128,-1,80
 338.005859375 387.395507812 338.005859375 387.395507812 348.014648438 396.1328125 c 128,-1,81
 358.010742188 404.860351562 358.010742188 404.860351562 370.615234375 414.280273438 c 0,82,83
 437.963867188 464.599609375 437.963867188 464.599609375 450.037109375 482.525390625 c 0,84,85
 453.8671875 488.211914062 453.8671875 488.211914062 463.9453125 499.352539062 c 0,86,87
 472.4296875 508.731445312 472.4296875 508.731445312 474.475585938 518.047851562 c 128,-1,88
 476.522460938 527.365234375 476.522460938 527.365234375 479.80078125 571.553710938 c 0,89,90
 486.736328125 665.025390625 486.736328125 665.025390625 494.591796875 724.793945312 c 0,91,92
 498.478515625 754.364257812 498.478515625 754.364257812 500.264648438 777.801757812 c 0,93,94
 501.931640625 799.67578125 501.931640625 799.67578125 506.181640625 805.25 c 128,-1,95
 510.431640625 810.825195312 510.431640625 810.825195312 522.650390625 807.1640625 c 0,96,97
 532.002929688 804.362304688 532.002929688 804.362304688 535.13671875 797.025390625 c 128,-1,98
 538.270507812 789.688476562 538.270507812 789.688476562 540.033203125 766.46484375 c 0,99,100
 541.98046875 740.818359375 541.98046875 740.818359375 534.076171875 655.431640625 c 128,-1,101
 526.171875 570.045898438 526.171875 570.045898438 517.318359375 521.09375 c 0,102,103
 514.512695312 505.573242188 514.512695312 505.573242188 512.297851562 483.456054688 c 128,-1,104
 510.08203125 461.32421875 510.08203125 461.32421875 503.015625 430.67578125 c 128,-1,105
 495.948242188 400.029296875 495.948242188 400.029296875 495.948242188 391.553710938 c 128,-1,106
 495.948242188 383.08203125 495.948242188 383.08203125 486.78125 336.032226562 c 0,107,108
 474.171875 271.302734375 474.171875 271.302734375 473.048828125 244.366210938 c 0,109,110
 472.233398438 224.764648438 472.233398438 224.764648438 469.108398438 175.009765625 c 128,-1,111
 465.985351562 125.272460938 465.985351562 125.272460938 466.899414062 95.701171875 c 0,112,113
 467.572265625 73.9248046875 467.572265625 73.9248046875 469.194335938 67.322265625 c 128,-1,114
 470.81640625 60.71875 470.81640625 60.71875 479.204101562 45.6123046875 c 0,115,116
 488.25 29.3212890625 488.25 29.3212890625 492.859375 23.9697265625 c 128,-1,117
 497.467773438 18.6181640625 497.467773438 18.6181640625 501.797851562 19.37890625 c 0,118,119
 505.358398438 20.0048828125 505.358398438 20.0048828125 520.146484375 18.0078125 c 128,-1,120
 534.936523438 16.0107421875 534.936523438 16.0107421875 551.06640625 23.15234375 c 128,-1,121
 567.197265625 30.291015625 567.197265625 30.291015625 580.735351562 40.4677734375 c 128,-1,122
 594.274414062 50.6435546875 594.274414062 50.6435546875 606.278320312 56.73046875 c 128,-1,123
 618.284179688 62.8193359375 618.284179688 62.8193359375 625.005859375 69.5234375 c 128,-1,124
 631.719726562 76.220703125 631.719726562 76.220703125 641.137695312 83.201171875 c 128,-1,125
 650.556640625 90.181640625 650.556640625 90.181640625 667.608398438 105.856445312 c 0,126,127
 693.255859375 127.854492188 693.255859375 127.854492188 693.109375 110.498046875 c 0,128,129
 692.65234375 101.294921875 692.65234375 101.294921875 670.036132812 79.6787109375 c 0,130,131
 629.512695312 40.9462890625 629.512695312 40.9462890625 605.040039062 24.7080078125 c 128,-1,132
 580.56640625 8.46875 580.56640625 8.46875 545.110351562 -3.2138671875 c 0,133,134
 523.0234375 -10.4921875 523.0234375 -10.4921875 505.392578125 -10.4921875 c 0,135,136
 492.681640625 -10.4921875 492.681640625 -10.4921875 488.52734375 -8.9296875 c 128,-1,137
 484.372070312 -7.3681640625 484.372070312 -7.3681640625 475.615234375 0.703125 c 0,0,1
EndSplineSet
Validated: 33
EndChar

